<svg width="250" height="40" viewBox="0 0 250 40" fill="none" xmlns="http://www.w3.org/2000/svg">
<mask id="mask0_2064_290" style="mask-type:alpha" maskUnits="userSpaceOnUse" x="0" y="0" width="250" height="40">
<rect width="250" height="40" fill="#D9D9D9"/>
</mask>
<g mask="url(#mask0_2064_290)">
<rect width="315" height="599" rx="30" transform="matrix(1 0 0 -1 -30 607)" fill="#CAC5F9"/>
<path fill-rule="evenodd" clip-rule="evenodd" d="M128 38C116.402 38 107 28.598 107 17C107 12.0473 108.714 7.49511 111.582 3.90446C112.696 2.51022 111.784 0 110 0H0C-16.5685 0 -30 13.4315 -30 30V577C-30 593.569 -16.5685 607 0 607H255C271.569 607 285 593.569 285 577V30C285 13.4315 271.569 0 255 0H146C144.216 0 143.304 2.51022 144.418 3.90446C147.286 7.49511 149 12.0473 149 17C149 28.598 139.598 38 128 38Z" fill="#E4E4EF"/>
<rect x="111" width="34" height="34" rx="17" fill="#FF605C"/>
<rect x="112.7" y="1.7" width="30.6" height="30.6" rx="15.3" stroke="#E4E4EF" stroke-opacity="0.4" stroke-width="3.4"/>
<path fill-rule="evenodd" clip-rule="evenodd" d="M126.266 19.1105C126.137 19.8177 126.697 20.4659 127.416 20.4659L127.41 20.46H127.958C128.547 20.46 129.024 20.018 129.113 19.4405V19.4346C129.148 19.1812 129.278 18.8806 129.49 18.5211C129.614 18.3149 129.767 18.1204 129.95 17.9377C130.144 17.7491 130.35 17.5546 130.569 17.3542C130.787 17.1598 131.022 16.9299 131.264 16.6706C131.783 16.1225 132.207 15.5273 132.543 14.879C132.885 14.2367 133.056 13.5177 133.056 12.7339C133.056 12.2035 132.961 11.6908 132.779 11.178C132.602 10.6653 132.342 10.2174 132.001 9.82846C131.506 9.23323 130.887 8.80891 130.138 8.5496C129.402 8.2903 128.612 8.16064 127.775 8.16064C127.227 8.16064 126.679 8.24315 126.131 8.40227C125.589 8.56139 125.105 8.80302 124.669 9.12126C124.109 9.51022 123.662 10.0347 123.32 10.6889C123.231 10.8598 123.149 11.0425 123.078 11.2252C122.783 11.9795 123.361 12.7987 124.168 12.7869H124.622C125.129 12.7869 125.559 12.451 125.73 11.9736C125.731 11.9695 125.733 11.965 125.734 11.9602C125.739 11.9448 125.745 11.9268 125.754 11.9088C125.86 11.6436 126.025 11.4197 126.255 11.237C126.449 11.072 126.691 10.9482 126.974 10.8716C127.262 10.7891 127.563 10.7478 127.875 10.7478C128.252 10.7478 128.612 10.8068 128.948 10.9305C129.284 11.0484 129.561 11.2429 129.773 11.5257C129.908 11.6849 130.003 11.8793 130.056 12.0974C130.109 12.3154 130.138 12.5512 130.138 12.8046C130.138 13.1936 130.091 13.5589 129.991 13.9008C129.891 14.2367 129.685 14.5785 129.372 14.9203C128.995 15.3269 128.647 15.6511 128.335 15.8927C128.023 16.1284 127.746 16.3701 127.492 16.6117C127.245 16.8474 127.015 17.1716 126.809 17.5723C126.573 17.9907 126.402 18.4504 126.296 18.9454C126.29 18.9723 126.286 18.998 126.282 19.0229C126.277 19.0528 126.273 19.0816 126.266 19.1105ZM127.715 25.8392C128.691 25.8392 129.483 25.0477 129.483 24.0712C129.483 23.0948 128.691 22.3032 127.715 22.3032C126.738 22.3032 125.947 23.0948 125.947 24.0712C125.947 25.0477 126.738 25.8392 127.715 25.8392Z" fill="white"/>
</g>
</svg>
