<svg width="315" height="40" viewBox="0 0 315 40" fill="none" xmlns="http://www.w3.org/2000/svg">
<mask id="mask0_2064_290" style="mask-type:alpha" maskUnits="userSpaceOnUse" x="0" y="0" width="315" height="40">
<rect width="315" height="40" fill="#D9D9D9"/>
</mask>
<g mask="url(#mask0_2064_290)">
<rect width="315" height="599" rx="30" transform="matrix(1 0 0 -1 0 607)" fill="#CAC5F9"/>
<path fill-rule="evenodd" clip-rule="evenodd" d="M158 38C146.402 38 137 28.598 137 17C137 12.0473 138.714 7.49511 141.582 3.90446C142.696 2.51022 141.784 0 140 0V0H30C13.4315 0 0 13.4315 0 30V577C0 593.569 13.4315 607 30 607H285C301.569 607 315 593.569 315 577V30C315 13.4315 301.569 0 285 0H176V0C174.216 0 173.304 2.51022 174.418 3.90446C177.286 7.49511 179 12.0473 179 17C179 28.598 169.598 38 158 38Z" fill="#E4E4EF"/>
<rect x="141" width="34" height="34" rx="17" fill="#FF605C"/>
<rect x="142.7" y="1.7" width="30.6" height="30.6" rx="15.3" stroke="#E4E4EF" stroke-opacity="0.4" stroke-width="3.4"/>
<path fill-rule="evenodd" clip-rule="evenodd" d="M156.266 19.1105C156.137 19.8177 156.697 20.4659 157.416 20.4659L157.41 20.46H157.958C158.547 20.46 159.024 20.018 159.113 19.4405V19.4346C159.148 19.1812 159.278 18.8806 159.49 18.5211C159.614 18.3149 159.767 18.1204 159.95 17.9377C160.144 17.7491 160.35 17.5546 160.569 17.3542C160.787 17.1598 161.022 16.9299 161.264 16.6706C161.783 16.1225 162.207 15.5273 162.543 14.879C162.885 14.2367 163.056 13.5177 163.056 12.7339C163.056 12.2035 162.961 11.6908 162.779 11.178C162.602 10.6653 162.342 10.2174 162.001 9.82846C161.506 9.23323 160.887 8.80891 160.138 8.5496C159.402 8.2903 158.612 8.16064 157.775 8.16064C157.227 8.16064 156.679 8.24315 156.131 8.40227C155.589 8.56139 155.105 8.80302 154.669 9.12126C154.109 9.51022 153.662 10.0347 153.32 10.6889C153.231 10.8598 153.149 11.0425 153.078 11.2252C152.783 11.9795 153.361 12.7987 154.168 12.7869H154.622C155.129 12.7869 155.559 12.451 155.73 11.9736C155.731 11.9695 155.733 11.965 155.734 11.9602C155.739 11.9448 155.745 11.9268 155.754 11.9088C155.86 11.6436 156.025 11.4197 156.255 11.237C156.449 11.072 156.691 10.9482 156.974 10.8716C157.262 10.7891 157.563 10.7478 157.875 10.7478C158.252 10.7478 158.612 10.8068 158.948 10.9305C159.284 11.0484 159.561 11.2429 159.773 11.5257C159.908 11.6849 160.003 11.8793 160.056 12.0974C160.109 12.3154 160.138 12.5512 160.138 12.8046C160.138 13.1936 160.091 13.5589 159.991 13.9008C159.891 14.2367 159.685 14.5785 159.372 14.9203C158.995 15.3269 158.647 15.6511 158.335 15.8927C158.023 16.1284 157.746 16.3701 157.492 16.6117C157.245 16.8474 157.015 17.1716 156.809 17.5723C156.573 17.9907 156.402 18.4504 156.296 18.9454C156.29 18.9723 156.286 18.998 156.282 19.0229C156.277 19.0528 156.273 19.0816 156.266 19.1105ZM157.715 25.8392C158.691 25.8392 159.483 25.0477 159.483 24.0712C159.483 23.0948 158.691 22.3032 157.715 22.3032C156.738 22.3032 155.947 23.0948 155.947 24.0712C155.947 25.0477 156.738 25.8392 157.715 25.8392Z" fill="white"/>
</g>
</svg>
