<svg width="180" height="288" viewBox="0 0 180 288" fill="none" xmlns="http://www.w3.org/2000/svg">
<path d="M180 173C179.99 176.63 178.82 180.07 176.14 183C170.66 189 159.211 190.42 154.232 187.5C148.762 184.29 147.672 183 144.092 180V216.76C144.092 229.52 135.233 234 130.253 234H126.003V280.61C126.003 284.69 122.694 288 118.614 288H101.395C97.3053 288 93.9955 284.69 93.9955 280.61V234H85.996V280.61C85.996 284.69 82.6862 288 78.6165 288H61.3776C57.3079 288 53.9981 284.69 53.9981 280.61V234H49.8184C44.8487 234 35.9993 229.52 35.9993 216.76V180C32.4295 183 31.3496 184.29 25.8799 187.5C20.9103 190.42 9.48101 189 4.01137 183C-3.04817 175.26 -0.0983629 164 7.49114 155C20.6403 139.38 40.5 118.5 54 104C61 97.5 69.9571 90.36 88.6358 90.02V90C65.0474 89.76 45.9986 70.56 45.9986 46.92V43.08C45.9986 19.28 65.2874 0 89.0758 0H90.9157C114.714 0 134.003 19.28 134.003 43.08V46.92C134.003 70.56 114.954 89.76 91.3557 90V90.02C110.224 90.47 123.324 100.65 134.083 112C145.092 123.61 154.042 132.78 173 156C177.24 161.35 180.02 167.4 180 173Z" fill="#CAC5F9"/>
<mask id="mask0_119_563" style="mask-type:alpha" maskUnits="userSpaceOnUse" x="0" y="0" width="181" height="288">
<path d="M133.502 43.08V46.92C133.502 70.4339 114.436 89.5 90.9217 89.5H89.0817C65.5679 89.5 46.5017 70.4339 46.5017 46.92V43.08C46.5017 19.5562 65.5678 0.5 89.0817 0.5H90.9217C114.436 0.5 133.502 19.5562 133.502 43.08Z" fill="#E4E4EF" stroke="#CAC5F9"/>
<path d="M99.6889 90.3802C98.9234 90.2367 98.1476 90.1097 97.3612 90L99.7902 89.5L99.7901 89.5003C99.7827 89.5079 99.5773 89.7183 99.5686 90C99.5649 90.1175 99.5955 90.2474 99.6889 90.3802ZM99.6889 90.3802C99.7168 90.4199 99.7504 90.4599 99.7904 90.5M99.6889 90.3802C99.7465 90.391 99.8041 90.4019 99.8616 90.4129C99.8233 90.4666 99.7923 90.4981 99.7904 90.5M99.7904 90.5C99.7904 90.5 99.7903 90.5 99.7903 90.5H99.7905C99.7905 90.5 99.7904 90.5 99.7904 90.5ZM179.502 172.998V172.999C179.492 176.514 178.362 179.831 175.773 182.662L175.772 182.663C173.13 185.556 169.012 187.375 164.912 188.103C160.798 188.833 156.829 188.443 154.485 187.069C150.093 184.492 148.566 183.176 146.238 181.173C145.69 180.701 145.098 180.191 144.413 179.617L143.592 178.929V180V216.76C143.592 229.223 134.977 233.5 130.252 233.5H126.002H125.502V234V280.61C125.502 284.414 122.415 287.5 118.612 287.5H101.392C97.5878 287.5 94.5016 284.414 94.5016 280.61V234V233.5H94.0016H86.0016H85.5016V234V280.61C85.5016 284.414 82.4151 287.5 78.6216 287.5H61.3816C57.5882 287.5 54.5016 284.414 54.5016 280.61V234V233.5H54.0016H49.8216C45.1074 233.5 36.5016 229.224 36.5016 216.76V180V178.927L35.68 179.617C34.9942 180.193 34.4015 180.705 33.8533 181.179C31.5375 183.179 30.0154 184.494 25.6286 187.069L25.6283 187.069C23.2892 188.443 19.328 188.833 15.2216 188.103C11.129 187.375 7.01913 185.557 4.38113 182.663L4.38104 182.663C0.969857 178.923 -0.0317774 174.335 0.751307 169.553C1.53668 164.758 4.11982 159.774 7.87386 155.322L7.87413 155.322C21.0144 139.713 49.3631 109.345 54.3536 104.354C56.8486 101.859 60.3021 98.4071 65.8528 95.5701C71.4012 92.7343 79.0725 90.4999 90.0016 90.5H90.0416C90.0417 90.5 90.0418 90.5 90.0419 90.5C90.0421 90.5 90.0424 90.5 90.0426 90.5C90.0436 90.5 90.0446 90.5 90.0456 90.5C90.0466 90.5 90.0475 90.5 90.0485 90.5C109.41 90.5024 122.745 100.772 133.719 112.344C134.509 113.177 135.288 113.997 136.061 114.811C146.06 125.338 155.025 134.775 172.612 156.313C176.813 161.615 179.521 167.556 179.502 172.998ZM180.502 173.002C180.502 173.002 180.502 173.001 180.502 173.001L180.002 173L180.502 173.002ZM176.511 183.337L176.142 183L176.511 183.337Z" fill="#E4E4EF" stroke="#CAC5F9"/>
</mask>
<g mask="url(#mask0_119_563)">
<rect x="36" y="36" width="18" height="18" stroke="#E4E4EF"/>
<rect x="72" y="36" width="18" height="18" stroke="#E4E4EF"/>
<rect x="90" y="36" width="18" height="18" stroke="#E4E4EF"/>
<rect x="90" y="18" width="18" height="18" stroke="#E4E4EF"/>
<rect x="108" y="36" width="18" height="18" stroke="#E4E4EF"/>
<rect x="126" y="36" width="18" height="18" stroke="#E4E4EF"/>
<rect x="162" y="36" width="18" height="18" stroke="#E4E4EF"/>
<rect x="144" y="36" width="18" height="18" stroke="#E4E4EF"/>
<rect x="180" y="36" width="18" height="18" stroke="#E4E4EF"/>
<rect x="72" y="54" width="18" height="18" stroke="#E4E4EF"/>
<rect x="36" width="18" height="18" stroke="#E4E4EF"/>
<rect x="-18" y="36" width="18" height="18" stroke="#E4E4EF"/>
<rect x="90" y="54" width="18" height="18" stroke="#E4E4EF"/>
<rect x="72" width="18" height="18" stroke="#E4E4EF"/>
<rect x="54" y="36" width="18" height="18" stroke="#E4E4EF"/>
<rect x="90" width="18" height="18" stroke="#E4E4EF"/>
<rect x="126" y="54" width="18" height="18" stroke="#E4E4EF"/>
<rect x="162" y="54" width="18" height="18" stroke="#E4E4EF"/>
<rect x="108" width="18" height="18" stroke="#E4E4EF"/>
<rect x="126" width="18" height="18" stroke="#E4E4EF"/>
<rect x="108" y="54" width="18" height="18" stroke="#E4E4EF"/>
<rect x="162" width="18" height="18" stroke="#E4E4EF"/>
<rect x="144" width="18" height="18" stroke="#E4E4EF"/>
<rect x="180" width="18" height="18" stroke="#E4E4EF"/>
<rect x="36" y="54" width="18" height="18" stroke="#E4E4EF"/>
<rect x="72" y="18" width="18" height="18" stroke="#E4E4EF"/>
<rect x="-18" y="54" width="18" height="18" stroke="#E4E4EF"/>
<rect x="144" y="54" width="18" height="18" stroke="#E4E4EF"/>
<rect x="180" y="54" width="18" height="18" stroke="#E4E4EF"/>
<rect x="72" y="72" width="18" height="18" stroke="#E4E4EF"/>
<rect x="-18" width="18" height="18" stroke="#E4E4EF"/>
<rect x="72" y="90" width="18" height="18" stroke="#E4E4EF"/>
<rect x="90" y="72" width="18" height="18" stroke="#E4E4EF"/>
<rect x="54" width="18" height="18" stroke="#E4E4EF"/>
<rect x="90" y="90" width="18" height="18" stroke="#E4E4EF"/>
<rect x="126" y="18" width="18" height="18" stroke="#E4E4EF"/>
<rect x="162" y="18" width="18" height="18" stroke="#E4E4EF"/>
<rect x="126" y="72" width="18" height="18" stroke="#E4E4EF"/>
<rect x="162" y="72" width="18" height="18" stroke="#E4E4EF"/>
<rect x="108" y="18" width="18" height="18" stroke="#E4E4EF"/>
<rect x="126" y="90" width="18" height="18" stroke="#E4E4EF"/>
<rect x="162" y="90" width="18" height="18" stroke="#E4E4EF"/>
<rect x="36" y="18" width="18" height="18" stroke="#E4E4EF"/>
<rect x="-18" y="18" width="18" height="18" stroke="#E4E4EF"/>
<rect x="144" y="18" width="18" height="18" stroke="#E4E4EF"/>
<rect x="180" y="18" width="18" height="18" stroke="#E4E4EF"/>
<rect x="54" y="54" width="18" height="18" stroke="#E4E4EF"/>
<rect x="108" y="72" width="18" height="18" stroke="#E4E4EF"/>
<rect x="-18" y="72" width="18" height="18" stroke="#E4E4EF"/>
<rect x="36" y="72" width="18" height="18" stroke="#E4E4EF"/>
<rect x="90" y="108" width="18" height="18" stroke="#E4E4EF"/>
<rect x="108" y="90" width="18" height="18" stroke="#E4E4EF"/>
<rect x="90" y="180" width="18" height="18" stroke="#E4E4EF"/>
<rect y="36" width="18" height="18" stroke="#E4E4EF"/>
<rect x="-18" y="90" width="18" height="18" stroke="#E4E4EF"/>
<rect x="90" y="252" width="18" height="18" stroke="#E4E4EF"/>
<rect x="90" y="270" width="18" height="18" stroke="#E4E4EF"/>
<rect x="72" y="108" width="18" height="18" stroke="#E4E4EF"/>
<rect x="144" y="72" width="18" height="18" stroke="#E4E4EF"/>
<rect x="180" y="72" width="18" height="18" stroke="#E4E4EF"/>
<rect x="72" y="180" width="18" height="18" stroke="#E4E4EF"/>
<rect x="72" y="252" width="18" height="18" stroke="#E4E4EF"/>
<rect x="18" y="36" width="18" height="18" stroke="#E4E4EF"/>
<rect x="72" y="270" width="18" height="18" stroke="#E4E4EF"/>
<rect x="36" y="90" width="18" height="18" stroke="#E4E4EF"/>
<rect x="126" y="108" width="18" height="18" stroke="#E4E4EF"/>
<rect y="54" width="18" height="18" stroke="#E4E4EF"/>
<rect x="162" y="108" width="18" height="18" stroke="#E4E4EF"/>
<rect x="144" y="90" width="18" height="18" stroke="#E4E4EF"/>
<rect x="180" y="90" width="18" height="18" stroke="#E4E4EF"/>
<rect x="126" y="180" width="18" height="18" stroke="#E4E4EF"/>
<rect x="162" y="180" width="18" height="18" stroke="#E4E4EF"/>
<rect x="126" y="252" width="18" height="18" stroke="#E4E4EF"/>
<rect x="162" y="252" width="18" height="18" stroke="#E4E4EF"/>
<rect x="54" y="18" width="18" height="18" stroke="#E4E4EF"/>
<rect x="126" y="270" width="18" height="18" stroke="#E4E4EF"/>
<rect x="162" y="270" width="18" height="18" stroke="#E4E4EF"/>
<rect x="54" y="72" width="18" height="18" stroke="#E4E4EF"/>
<rect x="72" y="126" width="18" height="18" stroke="#E4E4EF"/>
<rect x="90" y="126" width="18" height="18" stroke="#E4E4EF"/>
<rect x="54" y="90" width="18" height="18" stroke="#E4E4EF"/>
<rect x="72" y="198" width="18" height="18" stroke="#E4E4EF"/>
<rect x="90" y="198" width="18" height="18" stroke="#E4E4EF"/>
<rect width="18" height="18" stroke="#E4E4EF"/>
<rect x="90" y="144" width="18" height="18" stroke="#E4E4EF"/>
<rect x="72" y="144" width="18" height="18" stroke="#E4E4EF"/>
<rect x="90" y="216" width="18" height="18" stroke="#E4E4EF"/>
<rect x="72" y="216" width="18" height="18" stroke="#E4E4EF"/>
<rect x="90" y="162" width="18" height="18" stroke="#E4E4EF"/>
<rect x="90" y="234" width="18" height="18" stroke="#E4E4EF"/>
<rect x="18" y="54" width="18" height="18" stroke="#E4E4EF"/>
<rect x="18" width="18" height="18" stroke="#E4E4EF"/>
<rect x="72" y="162" width="18" height="18" stroke="#E4E4EF"/>
<rect x="72" y="234" width="18" height="18" stroke="#E4E4EF"/>
<rect y="18" width="18" height="18" stroke="#E4E4EF"/>
<rect x="126" y="126" width="18" height="18" stroke="#E4E4EF"/>
<rect x="162" y="126" width="18" height="18" stroke="#E4E4EF"/>
<rect x="-18" y="108" width="18" height="18" stroke="#E4E4EF"/>
<rect x="126" y="198" width="18" height="18" stroke="#E4E4EF"/>
<rect x="162" y="198" width="18" height="18" stroke="#E4E4EF"/>
<rect y="72" width="18" height="18" stroke="#E4E4EF"/>
<rect x="126" y="144" width="18" height="18" stroke="#E4E4EF"/>
<rect x="162" y="144" width="18" height="18" stroke="#E4E4EF"/>
<rect x="-18" y="252" width="18" height="18" stroke="#E4E4EF"/>
<rect x="108" y="108" width="18" height="18" stroke="#E4E4EF"/>
<rect x="-18" y="180" width="18" height="18" stroke="#E4E4EF"/>
<rect x="126" y="216" width="18" height="18" stroke="#E4E4EF"/>
<rect x="162" y="216" width="18" height="18" stroke="#E4E4EF"/>
<rect x="-18" y="270" width="18" height="18" stroke="#E4E4EF"/>
<rect x="126" y="162" width="18" height="18" stroke="#E4E4EF"/>
<rect x="162" y="162" width="18" height="18" stroke="#E4E4EF"/>
<rect x="126" y="234" width="18" height="18" stroke="#E4E4EF"/>
<rect x="108" y="252" width="18" height="18" stroke="#E4E4EF"/>
<rect x="162" y="234" width="18" height="18" stroke="#E4E4EF"/>
<rect y="90" width="18" height="18" stroke="#E4E4EF"/>
<rect x="108" y="180" width="18" height="18" stroke="#E4E4EF"/>
<rect x="18" y="18" width="18" height="18" stroke="#E4E4EF"/>
<rect x="18" y="72" width="18" height="18" stroke="#E4E4EF"/>
<rect x="108" y="270" width="18" height="18" stroke="#E4E4EF"/>
<rect x="18" y="90" width="18" height="18" stroke="#E4E4EF"/>
<rect x="36" y="108" width="18" height="18" stroke="#E4E4EF"/>
<rect x="-18" y="126" width="18" height="18" stroke="#E4E4EF"/>
<rect x="144" y="108" width="18" height="18" stroke="#E4E4EF"/>
<rect x="180" y="108" width="18" height="18" stroke="#E4E4EF"/>
<rect x="-18" y="198" width="18" height="18" stroke="#E4E4EF"/>
<rect x="108" y="126" width="18" height="18" stroke="#E4E4EF"/>
<rect x="-18" y="144" width="18" height="18" stroke="#E4E4EF"/>
<rect x="108" y="198" width="18" height="18" stroke="#E4E4EF"/>
<rect x="-18" y="216" width="18" height="18" stroke="#E4E4EF"/>
<rect x="108" y="144" width="18" height="18" stroke="#E4E4EF"/>
<rect x="36" y="180" width="18" height="18" stroke="#E4E4EF"/>
<rect x="108" y="216" width="18" height="18" stroke="#E4E4EF"/>
<rect x="36" y="252" width="18" height="18" stroke="#E4E4EF"/>
<rect x="-18" y="162" width="18" height="18" stroke="#E4E4EF"/>
<rect x="144" y="252" width="18" height="18" stroke="#E4E4EF"/>
<rect x="180" y="252" width="18" height="18" stroke="#E4E4EF"/>
<rect x="108" y="162" width="18" height="18" stroke="#E4E4EF"/>
<rect x="-18" y="234" width="18" height="18" stroke="#E4E4EF"/>
<rect x="108" y="234" width="18" height="18" stroke="#E4E4EF"/>
<rect x="144" y="180" width="18" height="18" stroke="#E4E4EF"/>
<rect x="180" y="180" width="18" height="18" stroke="#E4E4EF"/>
<rect x="54" y="252" width="18" height="18" stroke="#E4E4EF"/>
<rect x="36" y="270" width="18" height="18" stroke="#E4E4EF"/>
<rect x="144" y="270" width="18" height="18" stroke="#E4E4EF"/>
<rect x="180" y="270" width="18" height="18" stroke="#E4E4EF"/>
<rect x="54" y="108" width="18" height="18" stroke="#E4E4EF"/>
<rect x="54" y="180" width="18" height="18" stroke="#E4E4EF"/>
<rect x="54" y="270" width="18" height="18" stroke="#E4E4EF"/>
<rect x="36" y="126" width="18" height="18" stroke="#E4E4EF"/>
<rect x="144" y="126" width="18" height="18" stroke="#E4E4EF"/>
<rect x="180" y="126" width="18" height="18" stroke="#E4E4EF"/>
<rect x="36" y="198" width="18" height="18" stroke="#E4E4EF"/>
<rect x="144" y="198" width="18" height="18" stroke="#E4E4EF"/>
<rect x="180" y="198" width="18" height="18" stroke="#E4E4EF"/>
<rect x="36" y="144" width="18" height="18" stroke="#E4E4EF"/>
<rect x="144" y="144" width="18" height="18" stroke="#E4E4EF"/>
<rect x="180" y="144" width="18" height="18" stroke="#E4E4EF"/>
<rect x="36" y="216" width="18" height="18" stroke="#E4E4EF"/>
<rect x="144" y="216" width="18" height="18" stroke="#E4E4EF"/>
<rect x="180" y="216" width="18" height="18" stroke="#E4E4EF"/>
<rect x="36" y="162" width="18" height="18" stroke="#E4E4EF"/>
<rect x="144" y="162" width="18" height="18" stroke="#E4E4EF"/>
<rect y="252" width="18" height="18" stroke="#E4E4EF"/>
<rect x="180" y="162" width="18" height="18" stroke="#E4E4EF"/>
<rect x="18" y="252" width="18" height="18" stroke="#E4E4EF"/>
<rect x="36" y="234" width="18" height="18" stroke="#E4E4EF"/>
<rect x="144" y="234" width="18" height="18" stroke="#E4E4EF"/>
<rect x="180" y="234" width="18" height="18" stroke="#E4E4EF"/>
<rect x="54" y="126" width="18" height="18" stroke="#E4E4EF"/>
<rect x="54" y="198" width="18" height="18" stroke="#E4E4EF"/>
<rect x="54" y="144" width="18" height="18" stroke="#E4E4EF"/>
<rect x="54" y="216" width="18" height="18" stroke="#E4E4EF"/>
<rect x="54" y="162" width="18" height="18" stroke="#E4E4EF"/>
<rect x="54" y="234" width="18" height="18" stroke="#E4E4EF"/>
<rect y="108" width="18" height="18" stroke="#E4E4EF"/>
<rect y="180" width="18" height="18" stroke="#E4E4EF"/>
<rect y="270" width="18" height="18" stroke="#E4E4EF"/>
<rect x="18" y="108" width="18" height="18" stroke="#E4E4EF"/>
<rect x="18" y="180" width="18" height="18" stroke="#E4E4EF"/>
<rect x="18" y="270" width="18" height="18" stroke="#E4E4EF"/>
<rect y="126" width="18" height="18" stroke="#E4E4EF"/>
<rect y="198" width="18" height="18" stroke="#E4E4EF"/>
<rect y="144" width="18" height="18" stroke="#E4E4EF"/>
<rect y="216" width="18" height="18" stroke="#E4E4EF"/>
<rect y="162" width="18" height="18" stroke="#E4E4EF"/>
<rect y="234" width="18" height="18" stroke="#E4E4EF"/>
<rect x="18" y="126" width="18" height="18" stroke="#E4E4EF"/>
<rect x="18" y="198" width="18" height="18" stroke="#E4E4EF"/>
<rect x="18" y="144" width="18" height="18" stroke="#E4E4EF"/>
<rect x="18" y="216" width="18" height="18" stroke="#E4E4EF"/>
<rect x="18" y="162" width="18" height="18" stroke="#E4E4EF"/>
<rect x="18" y="234" width="18" height="18" stroke="#E4E4EF"/>
</g>
</svg>
