<svg width="375" height="667" viewBox="0 0 375 667" fill="none" xmlns="http://www.w3.org/2000/svg">
<g clip-path="url(#clip0_496_522)">
<rect width="375" height="667" fill="#531A56"/>
<g filter="url(#filter0_f_496_522)">
<circle cx="262.486" cy="358.625" r="274" fill="url(#paint0_radial_496_522)" fill-opacity="0.8"/>
</g>
<path d="M532.211 516.299L408.277 595.842L246.522 343.815L-477 -93.0113L-163.13 -294.458L246.522 343.815L532.211 516.299Z" fill="#E4E4EF" fill-opacity="0.1"/>
<path d="M242.239 352.482C244.772 349.295 243.416 346.235 239.174 345.861C235.765 345.557 230.945 347.482 228.669 350.052C227.376 351.508 226.902 352.961 227.158 354.165C227.281 354.734 226.242 355.409 225.437 355.289L209.654 352.936L219.758 340.221C220.411 339.401 219.557 338.761 218.344 339.193C216.39 339.885 214.319 340.14 212.555 339.789C209.255 339.129 208.298 336.467 210.367 333.728C212.636 330.724 217.603 328.717 221.33 329.271C223.008 329.523 224.142 330.24 224.665 331.229C225.012 331.889 226.593 331.617 227.246 330.797L237.35 318.082L277.904 324.12C279.672 324.383 280.202 325.745 279.085 327.154L253.422 359.455L237.616 357.103C236.827 356.985 236.956 356.183 237.85 355.776C239.609 354.965 241.184 353.828 242.249 352.486L242.239 352.482Z" fill="url(#paint1_linear_496_522)"/>
<path d="M212.555 339.788C214.319 340.139 216.39 339.885 218.344 339.192C219.55 338.763 220.411 339.4 219.758 340.221L213.613 347.958L209.7 338.039C210.21 338.877 211.172 339.513 212.561 339.786L212.555 339.788Z" fill="url(#paint2_linear_496_522)"/>
<path d="M225.437 355.288C226.235 355.411 227.274 354.736 227.158 354.164C226.911 352.964 227.378 351.514 228.669 350.052C230.945 347.482 235.764 345.557 239.174 345.86C243.416 346.234 244.772 349.294 242.239 352.481C241.174 353.823 239.592 354.963 237.841 355.771C237.29 356.02 237.033 356.418 237.098 356.721L237.1 356.727C237.103 356.734 237.108 356.748 237.111 356.754L237.586 357.958C235.767 358.715 234.092 359.797 232.998 361.026C231.705 362.482 231.231 363.935 231.487 365.138C231.61 365.707 230.571 366.383 229.766 366.263L214.649 364.014L214.063 364.112L209.654 352.935L225.437 355.288Z" fill="url(#paint3_linear_496_522)"/>
<path d="M279.078 327.157C279.633 326.462 279.78 325.786 279.587 325.237L283.826 335.982L283.812 335.987C284.154 336.555 284.046 337.332 283.415 338.128L257.751 370.429L253.419 359.448L279.083 327.147L279.078 327.157Z" fill="url(#paint4_linear_496_522)"/>
<path d="M237.606 357.099L253.412 359.451L257.744 370.432L241.938 368.08C241.69 368.045 241.546 367.938 241.474 367.794L241.45 367.733C241.45 367.733 241.442 367.713 241.439 367.706L237.12 356.759C237.171 356.927 237.332 357.058 237.616 357.103L237.606 357.099Z" fill="url(#paint5_linear_496_522)"/>
<path d="M237.606 357.099L253.412 359.451L257.744 370.432L241.938 368.08C241.69 368.045 241.546 367.938 241.474 367.794L241.45 367.733C241.45 367.733 241.442 367.713 241.439 367.706L237.12 356.759C237.171 356.927 237.332 357.058 237.616 357.103L237.606 357.099Z" fill="url(#paint6_linear_496_522)"/>
<g style="mix-blend-mode:color-dodge">
<path d="M237.507 356.629L253.223 358.97L278.886 326.669C279.283 326.169 279.466 325.683 279.472 325.243C280.031 325.827 280.001 326.722 279.27 327.643L253.607 359.944L237.801 357.592C237.211 357.504 237.135 357.034 237.507 356.629Z" fill="url(#paint7_radial_496_522)"/>
<path d="M212.36 339.295C214.124 339.646 216.195 339.391 218.149 338.698C219.288 338.296 220.111 338.839 219.657 339.588C219.364 339.501 218.971 339.515 218.533 339.672C216.58 340.365 214.508 340.62 212.744 340.268C210.877 339.895 209.759 338.883 209.516 337.572C210.03 338.401 210.984 339.017 212.357 339.288L212.36 339.295Z" fill="url(#paint8_radial_496_522)"/>
<path d="M225.245 354.802C226.043 354.924 227.082 354.249 226.966 353.677C226.719 352.478 227.186 351.027 228.477 349.565C230.752 346.995 235.572 345.07 238.982 345.374C241.459 345.592 242.941 346.734 243.252 348.276C242.609 347.24 241.286 346.52 239.369 346.354C235.959 346.05 231.139 347.975 228.863 350.545C227.57 352.001 227.096 353.454 227.352 354.658C227.475 355.227 226.437 355.902 225.631 355.782L209.848 353.429L210.501 352.608L225.247 354.808L225.245 354.802Z" fill="url(#paint9_radial_496_522)"/>
</g>
<path style="mix-blend-mode:color-dodge" d="M237.151 355.332C237.906 355.026 237.234 351.619 235.647 347.736C234.058 343.847 232.163 340.945 231.409 341.25C230.654 341.556 231.326 344.963 232.915 348.853C234.505 352.743 236.399 355.644 237.154 355.339L237.151 355.332Z" fill="url(#paint10_radial_496_522)"/>
<path d="M303.029 140.857C299.485 136.347 290.529 133.974 283.439 135.785C277.745 137.24 275.055 141.665 277.561 145.431C278.991 147.563 281.599 149.264 284.705 150.35C286.179 150.864 286.189 152.071 284.74 152.372L256.212 158.171L242.069 140.161C241.159 138.992 238.449 138.806 237.643 139.859C236.346 141.564 233.892 142.892 230.5 143.453C224.154 144.501 216.679 142.309 213.475 138.489C209.962 134.293 212.684 129.717 219.429 128.351C222.457 127.743 225.771 127.876 228.793 128.604C230.807 129.093 232.513 128.002 231.603 126.833L217.46 108.823L290.766 93.9455C293.967 93.2999 297.837 94.3893 299.403 96.3845L335.319 142.115L306.753 147.921C305.33 148.213 303.69 147.331 304.066 146.461C304.803 144.742 304.521 142.783 303.038 140.882L303.029 140.857Z" fill="url(#paint11_linear_496_522)"/>
<path d="M228.784 128.579C225.763 127.851 222.449 127.718 219.42 128.326C218.194 128.573 217.097 128.931 216.143 129.38L214.955 127.864L217.44 108.797L231.583 126.807C232.505 127.978 230.788 129.055 228.773 128.578L228.784 128.579Z" fill="url(#paint12_linear_496_522)"/>
<path d="M211.967 135.033C212.046 136.165 212.528 137.327 213.477 138.477C216.68 142.298 224.157 144.478 230.501 143.442C233.882 142.879 236.347 141.553 237.644 139.847C238.438 138.793 241.159 138.992 242.071 140.15L256.213 158.16L284.742 152.361C286.189 152.072 286.18 150.853 284.707 150.338C281.599 149.265 278.993 147.552 277.563 145.419C275.045 141.652 277.745 137.24 283.441 135.773C290.53 133.963 299.487 136.336 303.031 140.845C304.526 142.748 304.808 144.707 304.059 146.424C303.683 147.295 305.313 148.164 306.746 147.885L335.312 142.079L332.827 161.146L304.261 166.952C302.838 167.244 301.198 166.362 301.574 165.492C302.312 163.773 302.03 161.814 300.546 159.913C297.72 156.309 291.42 154.079 285.392 154.248L283.297 170.322C283.415 170.791 283.081 171.249 282.259 171.416L253.73 177.215L239.587 159.205C238.677 158.036 235.969 157.838 235.163 158.891C233.866 160.597 231.412 161.925 228.02 162.486C221.674 163.533 214.199 161.341 210.995 157.521C209.516 155.764 209.157 153.938 209.717 152.304L211.97 135.009L211.967 135.033Z" fill="url(#paint13_linear_496_522)"/>
<path d="M237.231 158.23L239.716 139.163C240.641 139.211 241.601 139.54 242.071 140.15L256.213 158.16L253.729 177.227L239.586 159.217C239.115 158.619 238.156 158.279 237.231 158.23Z" fill="url(#paint14_linear_496_522)"/>
<path d="M239.048 158.765C239.048 158.765 239.127 158.799 239.147 158.825C239.114 158.809 239.08 158.793 239.048 158.765Z" fill="url(#paint15_linear_496_522)"/>
<path d="M284.742 152.361C286.189 152.072 286.18 150.853 284.707 150.339C281.599 149.265 278.992 147.552 277.563 145.42C275.045 141.653 277.745 137.24 283.441 135.774C290.53 133.963 299.487 136.336 303.03 140.846C304.526 142.748 304.808 144.707 304.059 146.424C303.683 147.295 305.313 148.164 306.746 147.885L335.312 142.079L332.827 161.146L304.261 166.952C302.838 167.244 301.198 166.362 301.574 165.492C302.312 163.773 302.029 161.814 300.546 159.913C297.72 156.309 291.42 154.079 285.391 154.249L283.297 170.322C283.415 170.791 283.081 171.249 282.259 171.417L253.73 177.215L256.215 158.148L284.743 152.349L284.742 152.361Z" fill="url(#paint16_linear_496_522)"/>
<path d="M209.714 152.327L211.967 135.033C212.047 136.166 212.528 137.327 213.477 138.478C216.68 142.298 224.157 144.478 230.501 143.442C233.882 142.88 236.347 141.553 237.644 139.848C238.234 139.077 239.834 138.987 241.017 139.439C240.618 139.292 240.165 139.197 239.714 139.174L237.23 158.241C236.375 158.202 235.547 158.416 235.16 158.915C233.863 160.621 231.409 161.949 228.017 162.51C221.671 163.557 214.196 161.365 210.992 157.545C209.513 155.788 209.154 153.962 209.714 152.327Z" fill="url(#paint17_linear_496_522)"/>
<path d="M241.632 139.759C241.796 139.876 241.947 140.003 242.07 140.162C241.957 140.016 241.808 139.877 241.632 139.759Z" fill="url(#paint18_linear_496_522)"/>
<path d="M241.064 139.446C241.234 139.516 241.391 139.596 241.533 139.698C241.39 139.608 241.234 139.516 241.064 139.446Z" fill="url(#paint19_linear_496_522)"/>
<path d="M308.818 147.474L335.31 142.091L308.818 147.474Z" fill="url(#paint20_linear_496_522)"/>
<path d="M303.61 167.01C303.456 167.002 303.301 166.994 303.148 166.974C303.301 166.994 303.454 167.014 303.61 167.01Z" fill="url(#paint21_linear_496_522)"/>
<path d="M283.314 170.467C283.315 170.551 283.304 170.634 283.282 170.715L283.314 170.467Z" fill="url(#paint22_linear_496_522)"/>
<path d="M285.757 151.717C285.962 151.242 285.62 150.66 284.707 150.338C281.599 149.264 278.993 147.552 277.563 145.419C275.045 141.652 277.745 137.24 283.441 135.773C290.531 133.963 299.487 136.336 303.031 140.845C304.526 142.748 304.808 144.707 304.059 146.424C303.873 146.842 304.177 147.263 304.676 147.555L302.193 166.611C302.039 166.507 301.353 166 301.576 165.48C302.313 163.761 302.031 161.802 300.548 159.901C297.72 156.308 291.456 154.071 285.43 154.229L285.76 151.693L285.757 151.717Z" fill="url(#paint23_linear_496_522)"/>
<g style="mix-blend-mode:color-dodge">
<path d="M231.599 127.322C231.599 127.322 231.56 127.257 231.539 127.23L217.395 109.232L218.401 109.029L231.705 125.962C232.104 126.468 232.003 126.968 231.599 127.322Z" fill="url(#paint24_radial_496_522)"/>
<path d="M213.589 137.619C216.792 141.44 224.269 143.62 230.613 142.584C233.994 142.022 236.459 140.695 237.756 138.99C238.562 137.936 241.271 138.134 242.181 139.303L256.325 157.302L284.852 151.515C285.121 151.466 285.313 151.372 285.482 151.262C286.029 151.835 285.766 152.565 284.687 152.783L256.158 158.582L242.016 140.571C241.105 139.402 238.395 139.216 237.589 140.269C236.293 141.975 233.839 143.303 230.446 143.864C224.102 144.9 216.625 142.72 213.422 138.899C212.028 137.225 211.62 135.5 212.063 133.934C212.086 135.131 212.565 136.399 213.589 137.619Z" fill="url(#paint25_radial_496_522)"/>
<path d="M304.229 146.219C304.593 146.816 305.776 147.269 306.855 147.051L334.427 141.45L335.267 142.515L306.702 148.321C305.278 148.613 303.638 147.731 304.014 146.86C304.102 146.645 304.177 146.439 304.241 146.221L304.229 146.219Z" fill="url(#paint26_radial_496_522)"/>
<path d="M276.738 141.67C276.721 138.778 279.3 136.034 283.55 134.94C290.639 133.129 299.596 135.502 303.139 140.012C304.45 141.687 304.824 143.395 304.393 144.963C304.393 143.769 303.936 142.515 302.974 141.28C299.431 136.77 290.474 134.397 283.384 136.208C279.754 137.131 277.362 139.268 276.738 141.67Z" fill="url(#paint27_radial_496_522)"/>
</g>
<path style="mix-blend-mode:color-dodge" d="M223.614 158.27C225.249 158.46 227.224 153.2 228.012 146.509C228.801 139.818 228.119 134.237 226.485 134.036C224.85 133.846 222.876 139.105 222.075 145.795C221.275 152.485 221.969 158.068 223.602 158.269L223.614 158.27Z" fill="url(#paint28_radial_496_522)"/>
<path style="mix-blend-mode:color-dodge" d="M289.809 147.934C291.444 148.123 293.419 142.864 294.22 136.163C295.009 129.471 294.327 123.89 292.693 123.689C291.06 123.488 289.083 128.759 288.283 135.449C287.495 142.14 288.177 147.721 289.81 147.922L289.809 147.934Z" fill="url(#paint29_radial_496_522)"/>
<path d="M89.0734 195.615C85.3141 200.265 87.2676 204.776 93.4943 205.378C98.4989 205.866 105.603 203.097 108.977 199.35C110.895 197.228 111.609 195.099 111.248 193.328C111.084 192.487 112.618 191.508 113.789 191.697L136.945 195.349L121.946 213.901C120.976 215.098 122.233 216.045 124.01 215.429C126.888 214.436 129.935 214.087 132.521 214.625C137.361 215.634 138.733 219.557 135.66 223.554C132.291 227.94 124.979 230.822 119.498 229.957C117.04 229.576 115.379 228.499 114.632 227.036C114.132 226.062 111.806 226.441 110.837 227.638L95.8377 246.191L36.3417 236.823C33.7473 236.414 32.9864 234.407 34.6435 232.351L72.7391 185.219L95.928 188.869C97.0857 189.053 96.8858 190.228 95.5673 190.816C92.9741 191.985 90.6461 193.636 89.0658 195.595L89.0734 195.615Z" fill="url(#paint30_linear_496_522)"/>
<path d="M89.0734 195.615C85.3141 200.265 87.2676 204.776 93.4943 205.378C98.4989 205.866 105.603 203.097 108.977 199.35C110.895 197.228 111.609 195.099 111.248 193.328C111.084 192.487 112.618 191.508 113.789 191.697L136.945 195.349L121.946 213.901C120.976 215.098 122.233 216.045 124.01 215.429C126.888 214.436 129.935 214.087 132.521 214.625C137.361 215.634 138.733 219.557 135.66 223.554C132.291 227.94 124.979 230.822 119.498 229.957C117.04 229.576 115.379 228.499 114.632 227.036C114.132 226.062 111.806 226.441 110.837 227.638L95.8377 246.191L36.3417 236.823C33.7473 236.414 32.9864 234.407 34.6435 232.351L72.7391 185.219L95.928 188.869C97.0857 189.053 96.8858 190.228 95.5673 190.816C92.9741 191.985 90.6461 193.636 89.0658 195.595L89.0734 195.615Z" fill="url(#paint31_linear_496_522)"/>
<path d="M93.494 205.378C87.2674 204.776 85.3138 200.265 89.0732 195.615C90.6536 193.656 92.9915 192.002 95.5748 190.836C96.4126 190.456 96.7935 189.84 96.6585 189.4L96.6884 189.389L102.23 203.789C99.2935 204.988 96.1083 205.63 93.494 205.378Z" fill="url(#paint32_linear_496_522)"/>
<path d="M40.1033 251.325L40.0635 251.34L33.8352 235.156L33.875 235.141C34.1573 235.994 35.0077 236.627 36.3455 236.833L95.8415 246.201L102.07 262.385L42.5738 253.017C41.236 252.811 40.3856 252.177 40.1033 251.325Z" fill="url(#paint33_linear_496_522)"/>
<path d="M40.1033 251.325L40.0635 251.34L33.8352 235.156L33.875 235.141C34.1573 235.994 35.0077 236.627 36.3455 236.833L95.8415 246.201L102.07 262.385L42.5738 253.017C41.236 252.811 40.3856 252.177 40.1033 251.325Z" fill="url(#paint34_linear_496_522)"/>
<path d="M132.525 214.635C129.938 214.098 126.892 214.446 124.013 215.44C122.236 216.055 120.98 215.108 121.949 213.911L136.948 195.359L143.177 211.543L137.331 218.769L137.244 218.78C136.96 216.795 135.317 215.231 132.529 214.645L132.525 214.635Z" fill="url(#paint35_linear_496_522)"/>
<path d="M110.84 227.648C111.32 227.051 112.13 226.659 112.886 226.54L119.114 242.724C118.363 242.853 117.552 243.245 117.073 243.842L102.073 262.394L95.8451 246.21L110.844 227.658L110.84 227.648Z" fill="url(#paint36_linear_496_522)"/>
<path d="M114.636 227.045C115.392 228.505 117.044 229.586 119.501 229.967C124.983 230.832 132.295 227.95 135.664 223.564C136.959 221.875 137.451 220.21 137.24 218.77L137.327 218.759L143.091 233.737C143.898 235.417 143.557 237.562 141.878 239.741C138.509 244.127 131.198 247.01 125.72 246.154C123.258 245.763 121.6 244.696 120.854 243.233C120.595 242.738 119.875 242.592 119.104 242.728L112.876 226.544C113.651 226.418 114.38 226.56 114.626 227.049L114.636 227.045Z" fill="url(#paint37_linear_496_522)"/>
<path d="M114.636 227.045C115.392 228.505 117.044 229.586 119.501 229.967C124.983 230.832 132.295 227.95 135.664 223.564C136.959 221.875 137.451 220.21 137.24 218.77L137.327 218.759L143.091 233.737C143.898 235.417 143.557 237.562 141.878 239.741C138.509 244.127 131.198 247.01 125.72 246.154C123.258 245.763 121.6 244.696 120.854 243.233C120.595 242.738 119.875 242.592 119.104 242.728L112.876 226.544C113.651 226.418 114.38 226.56 114.626 227.049L114.636 227.045Z" fill="url(#paint38_linear_496_522)"/>
<g style="mix-blend-mode:color-dodge">
<path d="M122.086 214.831C121.349 214.611 121.059 213.945 121.683 213.19L135.713 195.834L137.235 196.073L122.236 214.625C122.181 214.692 122.131 214.768 122.086 214.831Z" fill="url(#paint39_radial_496_522)"/>
<path d="M95.8649 191.559C93.2716 192.729 90.9437 194.38 89.3633 196.338C87.8052 198.265 87.2367 200.177 87.5468 201.786C86.4148 199.944 86.757 197.444 88.8072 194.893C90.3876 192.935 92.7255 191.28 95.3088 190.114C95.64 189.964 95.9021 189.783 96.0891 189.585L96.2218 189.603C97.3794 189.787 97.1796 190.962 95.8611 191.549L95.8649 191.559Z" fill="url(#paint40_radial_496_522)"/>
</g>
<path style="mix-blend-mode:color-dodge" d="M138.717 238.098C140.175 237.514 139.295 231.869 136.755 225.478C134.216 219.087 130.976 214.385 129.519 214.969C128.061 215.552 128.941 221.197 131.481 227.588C134.02 233.979 137.26 238.682 138.717 238.098Z" fill="url(#paint41_radial_496_522)"/>
<path style="mix-blend-mode:color-dodge" d="M110.565 226.931C111.544 225.731 113.859 225.354 114.36 226.329C115.116 227.788 116.768 228.869 119.226 229.25C124.707 230.115 132.019 227.233 135.384 222.837C136.718 221.1 137.21 219.377 136.954 217.908C138.006 219.631 137.74 221.942 135.94 224.282C132.571 228.668 125.26 231.55 119.778 230.685C117.32 230.304 115.659 229.227 114.912 227.764C114.412 226.789 112.087 227.169 111.117 228.366L96.2206 246.799L95.6683 245.364L110.565 226.931Z" fill="url(#paint42_radial_496_522)"/>
<path style="mix-blend-mode:color-dodge" d="M36.6254 237.561C34.9433 237.293 34.0355 236.361 34.059 235.173C34.4892 235.637 35.1708 235.981 36.0731 236.126L95.5691 245.493L95.668 245.364L96.2203 246.799L96.1214 246.928L36.6254 237.561Z" fill="url(#paint43_radial_496_522)"/>
<path d="M178.694 487.299C180.935 493.655 189.605 499.783 197.69 500.565C204.186 501.197 208.496 497.382 207.103 492.255C206.302 489.346 204.113 486.448 201.191 484.046C199.808 482.912 200.192 481.565 201.825 481.802L233.877 486.626L242.824 511.996C243.407 513.633 246.205 514.925 247.393 514.069C249.321 512.706 252.371 512.203 256.118 512.921C263.164 514.272 270.335 519.603 272.451 525.066C274.772 531.065 270.386 535.039 262.804 533.893C259.401 533.388 255.944 531.92 252.998 529.939C251.04 528.616 248.876 529.145 249.452 530.794L258.411 556.17L176.067 543.773C172.468 543.232 168.738 540.507 167.745 537.689L145.01 473.24L177.104 478.073C178.707 478.308 180.142 479.921 179.463 480.727C178.112 482.327 177.755 484.604 178.708 487.276L178.694 487.299Z" fill="url(#paint44_linear_496_522)"/>
<path d="M167.743 537.719C168.736 540.537 172.466 543.262 176.066 543.803L258.409 556.2L247.544 575.175L165.201 562.778C161.601 562.237 157.871 559.511 156.878 556.693L134.144 492.245L145.008 473.27L167.743 537.719Z" fill="url(#paint45_linear_496_522)"/>
<path d="M252.996 529.969C255.942 531.951 259.406 533.407 262.802 533.924C267.102 534.571 270.372 533.573 271.974 531.48L261.751 549.333C261.028 551.029 259.434 552.242 257.191 552.773L249.438 530.818C248.862 529.169 251.02 528.651 252.984 529.962L252.996 529.969Z" fill="url(#paint46_linear_496_522)"/>
<path d="M201.184 484.058C204.106 486.46 206.306 489.365 207.095 492.268C208.5 497.401 204.185 501.198 197.683 500.577C195.464 500.362 193.201 499.734 191.04 498.821L200.352 482.558C200.304 482.995 200.544 483.551 201.166 484.063L201.184 484.058Z" fill="url(#paint47_linear_496_522)"/>
<g style="mix-blend-mode:color-dodge">
<path d="M179.129 481.202C179.117 481.304 179.082 481.393 179.035 481.475C179.07 481.386 179.093 481.291 179.129 481.202Z" fill="url(#paint48_radial_496_522)"/>
<path d="M207.577 491.427C208.183 493.62 207.729 495.578 206.507 497.035C206.94 495.872 207.003 494.542 206.614 493.109C205.825 490.206 203.625 487.302 200.703 484.9C199.383 483.818 199.696 482.539 201.149 482.657C201.277 482.839 201.447 483.03 201.666 483.217C204.588 485.619 206.788 488.524 207.577 491.427Z" fill="url(#paint49_radial_496_522)"/>
<path d="M262.32 534.766C258.917 534.26 255.46 532.792 252.514 530.811C251.62 530.205 250.673 529.989 249.98 530.089L249.938 529.972C249.362 528.323 251.52 527.806 253.484 529.117C256.43 531.098 259.894 532.554 263.29 533.071C267.446 533.698 270.647 532.769 272.3 530.83C271.259 533.895 267.553 535.543 262.327 534.754L262.32 534.766Z" fill="url(#paint50_radial_496_522)"/>
<path d="M168.231 536.866C169.224 539.684 172.954 542.41 176.554 542.95L257.259 555.092L257.934 557.03L175.591 544.633C171.991 544.092 168.261 541.367 167.268 538.549L144.533 474.1L146.178 474.343L168.238 536.854L168.231 536.866Z" fill="url(#paint51_radial_496_522)"/>
</g>
<path style="mix-blend-mode:color-dodge" d="M159.839 562.361C160.909 562.958 165.288 557.18 169.59 549.451C173.891 541.721 176.516 534.97 175.446 534.373C174.371 533.757 169.997 539.553 165.695 547.283C161.382 555.006 158.769 561.764 159.839 562.361Z" fill="url(#paint52_radial_496_522)"/>
<path style="mix-blend-mode:color-dodge" d="M257.378 545.618C258.459 546.222 261.815 542.232 264.887 536.731C267.96 531.229 269.572 526.272 268.502 525.675C267.439 525.066 264.072 529.05 260.993 534.563C257.92 540.064 256.308 545.021 257.378 545.618Z" fill="url(#paint53_radial_496_522)"/>
<path style="mix-blend-mode:color-dodge" d="M164.467 534.742C158.324 539.509 156.372 547.281 160.1 552.069C163.828 556.857 171.836 556.88 177.967 552.106C184.11 547.339 186.056 539.579 182.334 534.779C178.606 529.992 170.599 529.968 164.467 534.742Z" fill="url(#paint54_radial_496_522)"/>
</g>
<defs>
<filter id="filter0_f_496_522" x="-108.837" y="-12.6974" width="742.645" height="742.645" filterUnits="userSpaceOnUse" color-interpolation-filters="sRGB">
<feFlood flood-opacity="0" result="BackgroundImageFix"/>
<feBlend mode="normal" in="SourceGraphic" in2="BackgroundImageFix" result="shape"/>
<feGaussianBlur stdDeviation="48.6612" result="effect1_foregroundBlur_496_522"/>
</filter>
<radialGradient id="paint0_radial_496_522" cx="0" cy="0" r="1" gradientUnits="userSpaceOnUse" gradientTransform="translate(262.486 358.625) rotate(90) scale(257.53)">
<stop stop-color="#E4E4EF"/>
<stop offset="0.597726" stop-color="#E4E4EF" stop-opacity="0.37605"/>
<stop offset="1" stop-color="#E4E4EF" stop-opacity="0"/>
</radialGradient>
<linearGradient id="paint1_linear_496_522" x1="219.741" y1="318.885" x2="262.046" y2="349.861" gradientUnits="userSpaceOnUse">
<stop offset="0.189231" stop-color="#2ADBDB"/>
<stop offset="0.325142" stop-color="#48ECEC"/>
<stop offset="0.59" stop-color="#63FAFA"/>
<stop offset="1" stop-color="#89FFFF"/>
</linearGradient>
<linearGradient id="paint2_linear_496_522" x1="218.028" y1="342.45" x2="198.69" y2="344.101" gradientUnits="userSpaceOnUse">
<stop offset="0.04" stop-color="#138BBD"/>
<stop offset="0.23" stop-color="#169AC6"/>
<stop offset="0.59" stop-color="#1EC2DF"/>
<stop offset="1" stop-color="#2AF6FF"/>
</linearGradient>
<linearGradient id="paint3_linear_496_522" x1="243.417" y1="350.177" x2="213.112" y2="362.315" gradientUnits="userSpaceOnUse">
<stop stop-color="#2ADBDB"/>
<stop offset="0.11" stop-color="#48ECEC"/>
<stop offset="0.24" stop-color="#63FAFA"/>
<stop offset="0.382587" stop-color="#2ADBDB"/>
<stop offset="0.446603" stop-color="#48ECEC"/>
<stop offset="0.50469" stop-color="#89FFFF"/>
<stop offset="0.552011" stop-color="#48ECEC"/>
<stop offset="0.606491" stop-color="#2ADBDB"/>
<stop offset="0.680973" stop-color="#2ADBDB"/>
</linearGradient>
<linearGradient id="paint4_linear_496_522" x1="284.732" y1="347.944" x2="250.675" y2="356.691" gradientUnits="userSpaceOnUse">
<stop offset="0.04" stop-color="#2ADBDB"/>
<stop offset="0.879365" stop-color="#63FAFA"/>
</linearGradient>
<linearGradient id="paint5_linear_496_522" x1="248.997" y1="356.262" x2="242.37" y2="387.218" gradientUnits="userSpaceOnUse">
<stop offset="0.04" stop-color="#138BBD"/>
<stop offset="0.23" stop-color="#169AC6"/>
<stop offset="0.59" stop-color="#1EC2DF"/>
<stop offset="1" stop-color="#2AF6FF"/>
</linearGradient>
<linearGradient id="paint6_linear_496_522" x1="247.266" y1="363.897" x2="245.625" y2="382.516" gradientUnits="userSpaceOnUse">
<stop offset="0.04" stop-color="#2ADBDB"/>
<stop offset="1" stop-color="#48ECEC"/>
</linearGradient>
<radialGradient id="paint7_radial_496_522" cx="0" cy="0" r="1" gradientUnits="userSpaceOnUse" gradientTransform="translate(265.906 340.87) rotate(158.47) scale(27.1422 27.1422)">
<stop stop-color="white"/>
<stop offset="0.07" stop-color="#D8D8D8"/>
<stop offset="0.16" stop-color="#A5A5A5"/>
<stop offset="0.26" stop-color="#797979"/>
<stop offset="0.37" stop-color="#545454"/>
<stop offset="0.47" stop-color="#353535"/>
<stop offset="0.59" stop-color="#1D1D1D"/>
<stop offset="0.7" stop-color="#0D0D0D"/>
<stop offset="0.84" stop-color="#030303"/>
<stop offset="1"/>
</radialGradient>
<radialGradient id="paint8_radial_496_522" cx="0" cy="0" r="1" gradientUnits="userSpaceOnUse" gradientTransform="translate(214.711 338.539) rotate(158.47) scale(3.75804 3.75804)">
<stop stop-color="white"/>
<stop offset="0.07" stop-color="#D8D8D8"/>
<stop offset="0.16" stop-color="#A5A5A5"/>
<stop offset="0.26" stop-color="#797979"/>
<stop offset="0.37" stop-color="#545454"/>
<stop offset="0.47" stop-color="#353535"/>
<stop offset="0.59" stop-color="#1D1D1D"/>
<stop offset="0.7" stop-color="#0D0D0D"/>
<stop offset="0.84" stop-color="#030303"/>
<stop offset="1"/>
</radialGradient>
<radialGradient id="paint9_radial_496_522" cx="0" cy="0" r="1" gradientUnits="userSpaceOnUse" gradientTransform="translate(231.84 346.324) rotate(158.47) scale(12.0737 12.0737)">
<stop stop-color="white"/>
<stop offset="0.07" stop-color="#D8D8D8"/>
<stop offset="0.16" stop-color="#A5A5A5"/>
<stop offset="0.26" stop-color="#797979"/>
<stop offset="0.37" stop-color="#545454"/>
<stop offset="0.47" stop-color="#353535"/>
<stop offset="0.59" stop-color="#1D1D1D"/>
<stop offset="0.7" stop-color="#0D0D0D"/>
<stop offset="0.84" stop-color="#030303"/>
<stop offset="1"/>
</radialGradient>
<radialGradient id="paint10_radial_496_522" cx="0" cy="0" r="1" gradientUnits="userSpaceOnUse" gradientTransform="translate(243.445 347.021) rotate(67.8205) scale(7.56347 1.47981)">
<stop stop-color="#972A74"/>
<stop offset="0.04" stop-color="#8A266A"/>
<stop offset="0.19" stop-color="#601A49"/>
<stop offset="0.35" stop-color="#3D112F"/>
<stop offset="0.51" stop-color="#22091A"/>
<stop offset="0.67" stop-color="#0F040B"/>
<stop offset="0.83" stop-color="#030102"/>
<stop offset="1"/>
</radialGradient>
<linearGradient id="paint11_linear_496_522" x1="243.484" y1="63.9707" x2="276.853" y2="147.571" gradientUnits="userSpaceOnUse">
<stop offset="0.364271" stop-color="#7740FF"/>
<stop offset="0.715465" stop-color="#8F62FF"/>
<stop offset="1" stop-color="#9B73FF"/>
</linearGradient>
<linearGradient id="paint12_linear_496_522" x1="252.663" y1="144.993" x2="130.861" y2="57.025" gradientUnits="userSpaceOnUse">
<stop offset="0.04" stop-color="#6B24D6"/>
<stop offset="0.29" stop-color="#7733DC"/>
<stop offset="0.79" stop-color="#965BEC"/>
<stop offset="1" stop-color="#A56EF4"/>
</linearGradient>
<linearGradient id="paint13_linear_496_522" x1="259.174" y1="160.635" x2="195.686" y2="220.851" gradientUnits="userSpaceOnUse">
<stop offset="0.04" stop-color="#6B24D6"/>
<stop offset="0.29" stop-color="#7733DC"/>
<stop offset="0.79" stop-color="#965BEC"/>
<stop offset="1" stop-color="#A56EF4"/>
</linearGradient>
<linearGradient id="paint14_linear_496_522" x1="244.55" y1="156.222" x2="122.745" y2="68.2663" gradientUnits="userSpaceOnUse">
<stop offset="0.04" stop-color="#6B24D6"/>
<stop offset="0.29" stop-color="#7733DC"/>
<stop offset="0.79" stop-color="#965BEC"/>
<stop offset="1" stop-color="#A56EF4"/>
</linearGradient>
<linearGradient id="paint15_linear_496_522" x1="239.103" y1="158.796" x2="239.077" y2="158.816" gradientUnits="userSpaceOnUse">
<stop offset="0.04" stop-color="#6B24D6"/>
<stop offset="0.29" stop-color="#7733DC"/>
<stop offset="0.79" stop-color="#965BEC"/>
<stop offset="1" stop-color="#A56EF4"/>
</linearGradient>
<linearGradient id="paint16_linear_496_522" x1="404.379" y1="199.772" x2="179.793" y2="117.766" gradientUnits="userSpaceOnUse">
<stop offset="0.279294" stop-color="#7740FF"/>
<stop offset="0.424044" stop-color="#7733DC"/>
<stop offset="0.79" stop-color="#965BEC"/>
<stop offset="1" stop-color="#A56EF4"/>
</linearGradient>
<linearGradient id="paint17_linear_496_522" x1="238.311" y1="151.588" x2="210.074" y2="147.909" gradientUnits="userSpaceOnUse">
<stop stop-color="#6B24D6"/>
<stop offset="0.07" stop-color="#712CD9"/>
<stop offset="0.16" stop-color="#7734DC"/>
<stop offset="0.32" stop-color="#8C4EE7"/>
<stop offset="0.48" stop-color="#A56EF4"/>
<stop offset="0.87" stop-color="#6B24D6"/>
</linearGradient>
<linearGradient id="paint18_linear_496_522" x1="241.858" y1="139.955" x2="241.829" y2="139.988" gradientUnits="userSpaceOnUse">
<stop offset="0.04" stop-color="#6B24D6"/>
<stop offset="0.29" stop-color="#7733DC"/>
<stop offset="0.79" stop-color="#965BEC"/>
<stop offset="1" stop-color="#A56EF4"/>
</linearGradient>
<linearGradient id="paint19_linear_496_522" x1="241.284" y1="139.594" x2="241.174" y2="139.699" gradientUnits="userSpaceOnUse">
<stop offset="0.04" stop-color="#6B24D6"/>
<stop offset="0.29" stop-color="#7733DC"/>
<stop offset="0.79" stop-color="#965BEC"/>
<stop offset="1" stop-color="#A56EF4"/>
</linearGradient>
<linearGradient id="paint20_linear_496_522" x1="356.748" y1="157.445" x2="285.852" y2="131.562" gradientUnits="userSpaceOnUse">
<stop offset="0.04" stop-color="#6B24D6"/>
<stop offset="0.29" stop-color="#7733DC"/>
<stop offset="0.79" stop-color="#965BEC"/>
<stop offset="1" stop-color="#A56EF4"/>
</linearGradient>
<linearGradient id="paint21_linear_496_522" x1="304.059" y1="167.236" x2="302.689" y2="166.734" gradientUnits="userSpaceOnUse">
<stop offset="0.04" stop-color="#6B24D6"/>
<stop offset="0.29" stop-color="#7733DC"/>
<stop offset="0.79" stop-color="#965BEC"/>
<stop offset="1" stop-color="#A56EF4"/>
</linearGradient>
<linearGradient id="paint22_linear_496_522" x1="283.388" y1="170.633" x2="283.217" y2="170.562" gradientUnits="userSpaceOnUse">
<stop offset="0.04" stop-color="#6B24D6"/>
<stop offset="0.29" stop-color="#7733DC"/>
<stop offset="0.79" stop-color="#965BEC"/>
<stop offset="1" stop-color="#A56EF4"/>
</linearGradient>
<linearGradient id="paint23_linear_496_522" x1="302.413" y1="151.726" x2="276.759" y2="148.383" gradientUnits="userSpaceOnUse">
<stop stop-color="#7C3ADF"/>
<stop offset="0.04" stop-color="#7633DC"/>
<stop offset="0.14" stop-color="#6D27D7"/>
<stop offset="0.25" stop-color="#6B24D6"/>
<stop offset="0.56" stop-color="#9A60EE"/>
<stop offset="0.97" stop-color="#7734DC"/>
</linearGradient>
<radialGradient id="paint24_radial_496_522" cx="0" cy="0" r="1" gradientUnits="userSpaceOnUse" gradientTransform="translate(220.494 118.161) rotate(-172.576) scale(8.28813 8.28814)">
<stop stop-color="white"/>
<stop offset="0.07" stop-color="#D8D8D8"/>
<stop offset="0.16" stop-color="#A5A5A5"/>
<stop offset="0.26" stop-color="#797979"/>
<stop offset="0.37" stop-color="#545454"/>
<stop offset="0.47" stop-color="#353535"/>
<stop offset="0.59" stop-color="#1D1D1D"/>
<stop offset="0.7" stop-color="#0D0D0D"/>
<stop offset="0.84" stop-color="#030303"/>
<stop offset="1"/>
</radialGradient>
<radialGradient id="paint25_radial_496_522" cx="0" cy="0" r="1" gradientUnits="userSpaceOnUse" gradientTransform="translate(223.79 149.862) rotate(-172.576) scale(20.3414 20.3414)">
<stop stop-color="white"/>
<stop offset="0.07" stop-color="#D8D8D8"/>
<stop offset="0.16" stop-color="#A5A5A5"/>
<stop offset="0.26" stop-color="#797979"/>
<stop offset="0.37" stop-color="#545454"/>
<stop offset="0.47" stop-color="#353535"/>
<stop offset="0.59" stop-color="#1D1D1D"/>
<stop offset="0.7" stop-color="#0D0D0D"/>
<stop offset="0.84" stop-color="#030303"/>
<stop offset="1"/>
</radialGradient>
<radialGradient id="paint26_radial_496_522" cx="0" cy="0" r="1" gradientUnits="userSpaceOnUse" gradientTransform="translate(319.597 144.843) rotate(-172.576) scale(11.3903 11.3903)">
<stop stop-color="white"/>
<stop offset="0.07" stop-color="#D8D8D8"/>
<stop offset="0.16" stop-color="#A5A5A5"/>
<stop offset="0.26" stop-color="#797979"/>
<stop offset="0.37" stop-color="#545454"/>
<stop offset="0.47" stop-color="#353535"/>
<stop offset="0.59" stop-color="#1D1D1D"/>
<stop offset="0.7" stop-color="#0D0D0D"/>
<stop offset="0.84" stop-color="#030303"/>
<stop offset="1"/>
</radialGradient>
<radialGradient id="paint27_radial_496_522" cx="0" cy="0" r="1" gradientUnits="userSpaceOnUse" gradientTransform="translate(291.129 138.996) rotate(-172.576) scale(10.3839 10.3838)">
<stop stop-color="white"/>
<stop offset="0.07" stop-color="#D8D8D8"/>
<stop offset="0.16" stop-color="#A5A5A5"/>
<stop offset="0.26" stop-color="#797979"/>
<stop offset="0.37" stop-color="#545454"/>
<stop offset="0.47" stop-color="#353535"/>
<stop offset="0.59" stop-color="#1D1D1D"/>
<stop offset="0.7" stop-color="#0D0D0D"/>
<stop offset="0.84" stop-color="#030303"/>
<stop offset="1"/>
</radialGradient>
<radialGradient id="paint28_radial_496_522" cx="0" cy="0" r="1" gradientUnits="userSpaceOnUse" gradientTransform="translate(129.769 135.112) rotate(96.7744) scale(12.186 2.94607)">
<stop stop-color="#4916A1"/>
<stop offset="0.07" stop-color="#3E128A"/>
<stop offset="0.22" stop-color="#2B0D60"/>
<stop offset="0.37" stop-color="#1B083D"/>
<stop offset="0.52" stop-color="#0F0422"/>
<stop offset="0.68" stop-color="#06020F"/>
<stop offset="0.83" stop-color="#010003"/>
<stop offset="1"/>
</radialGradient>
<radialGradient id="paint29_radial_496_522" cx="0" cy="0" r="1" gradientUnits="userSpaceOnUse" gradientTransform="translate(195.114 124.688) rotate(96.7744) scale(12.1968 2.94869)">
<stop stop-color="#4916A1"/>
<stop offset="0.07" stop-color="#3E128A"/>
<stop offset="0.22" stop-color="#2B0D60"/>
<stop offset="0.37" stop-color="#1B083D"/>
<stop offset="0.52" stop-color="#0F0422"/>
<stop offset="0.68" stop-color="#06020F"/>
<stop offset="0.83" stop-color="#010003"/>
<stop offset="1"/>
</radialGradient>
<linearGradient id="paint30_linear_496_522" x1="136.993" y1="195.445" x2="33.8713" y2="235.131" gradientUnits="userSpaceOnUse">
<stop offset="0.04" stop-color="#9F19AB"/>
<stop offset="0.24" stop-color="#AE24B0"/>
<stop offset="0.65" stop-color="#D643BF"/>
<stop offset="1" stop-color="#FF63CE"/>
</linearGradient>
<linearGradient id="paint31_linear_496_522" x1="55.7127" y1="193.896" x2="114.062" y2="235.512" gradientUnits="userSpaceOnUse">
<stop offset="0.04" stop-color="#A39CFF"/>
<stop offset="0.285295" stop-color="#BEB9FF"/>
<stop offset="0.65" stop-color="#D7D3FF"/>
<stop offset="1" stop-color="#EAE9FF"/>
</linearGradient>
<linearGradient id="paint32_linear_496_522" x1="79.361" y1="204.329" x2="103.657" y2="194.979" gradientUnits="userSpaceOnUse">
<stop stop-color="#A39CFF"/>
<stop offset="0.4" stop-color="#BEB9FF"/>
<stop offset="0.63" stop-color="#D7D3FF"/>
<stop offset="0.87" stop-color="#EAE9FF"/>
</linearGradient>
<linearGradient id="paint33_linear_496_522" x1="69.23" y1="233.182" x2="65.4217" y2="279.772" gradientUnits="userSpaceOnUse">
<stop offset="0.04" stop-color="#9F19AB"/>
<stop offset="0.24" stop-color="#AE24B0"/>
<stop offset="0.65" stop-color="#D643BF"/>
<stop offset="1" stop-color="#FF63CE"/>
</linearGradient>
<linearGradient id="paint34_linear_496_522" x1="86.6154" y1="247.349" x2="-39.5711" y2="257.011" gradientUnits="userSpaceOnUse">
<stop offset="0.04" stop-color="#A39CFF"/>
<stop offset="0.24" stop-color="#BEB9FF"/>
<stop offset="0.65" stop-color="#D7D3FF"/>
<stop offset="1" stop-color="#EAE9FF"/>
</linearGradient>
<linearGradient id="paint35_linear_496_522" x1="166.18" y1="202.759" x2="95.535" y2="213.208" gradientUnits="userSpaceOnUse">
<stop offset="0.04" stop-color="#A39CFF"/>
<stop offset="0.24" stop-color="#BEB9FF"/>
<stop offset="0.65" stop-color="#D7D3FF"/>
<stop offset="1" stop-color="#EAE9FF"/>
</linearGradient>
<linearGradient id="paint36_linear_496_522" x1="126.602" y1="241.639" x2="83.9719" y2="247.942" gradientUnits="userSpaceOnUse">
<stop offset="0.04" stop-color="#A39CFF"/>
<stop offset="0.24" stop-color="#BEB9FF"/>
<stop offset="0.65" stop-color="#D7D3FF"/>
<stop offset="1" stop-color="#EAE9FF"/>
</linearGradient>
<linearGradient id="paint37_linear_496_522" x1="127.654" y1="237.95" x2="123.849" y2="284.551" gradientUnits="userSpaceOnUse">
<stop offset="0.04" stop-color="#9F19AB"/>
<stop offset="0.24" stop-color="#AE24B0"/>
<stop offset="0.65" stop-color="#D643BF"/>
<stop offset="1" stop-color="#FF63CE"/>
</linearGradient>
<linearGradient id="paint38_linear_496_522" x1="114.395" y1="239.323" x2="141.999" y2="228.7" gradientUnits="userSpaceOnUse">
<stop stop-color="#A39CFF"/>
<stop offset="0.17" stop-color="#A39CFF"/>
<stop offset="0.49" stop-color="#BEB9FF"/>
<stop offset="0.77" stop-color="#D7D3FF"/>
<stop offset="0.92" stop-color="#A39CFF"/>
</linearGradient>
<radialGradient id="paint39_radial_496_522" cx="0" cy="0" r="1" gradientUnits="userSpaceOnUse" gradientTransform="translate(125.389 206.409) rotate(158.951) scale(11.9592 11.9592)">
<stop stop-color="white"/>
<stop offset="0.07" stop-color="#D8D8D8"/>
<stop offset="0.16" stop-color="#A5A5A5"/>
<stop offset="0.26" stop-color="#797979"/>
<stop offset="0.37" stop-color="#545454"/>
<stop offset="0.47" stop-color="#353535"/>
<stop offset="0.59" stop-color="#1D1D1D"/>
<stop offset="0.7" stop-color="#0D0D0D"/>
<stop offset="0.84" stop-color="#030303"/>
<stop offset="1"/>
</radialGradient>
<radialGradient id="paint40_radial_496_522" cx="0" cy="0" r="1" gradientUnits="userSpaceOnUse" gradientTransform="translate(87.6258 194.41) rotate(158.951) scale(8.6064 8.60638)">
<stop stop-color="white"/>
<stop offset="0.07" stop-color="#D8D8D8"/>
<stop offset="0.16" stop-color="#A5A5A5"/>
<stop offset="0.26" stop-color="#797979"/>
<stop offset="0.37" stop-color="#545454"/>
<stop offset="0.47" stop-color="#353535"/>
<stop offset="0.59" stop-color="#1D1D1D"/>
<stop offset="0.7" stop-color="#0D0D0D"/>
<stop offset="0.84" stop-color="#030303"/>
<stop offset="1"/>
</radialGradient>
<radialGradient id="paint41_radial_496_522" cx="0" cy="0" r="1" gradientUnits="userSpaceOnUse" gradientTransform="translate(262.983 176.338) rotate(68.3008) scale(12.439 2.89841)">
<stop stop-color="#AD3185"/>
<stop offset="0.1" stop-color="#8A276A"/>
<stop offset="0.24" stop-color="#601B4A"/>
<stop offset="0.39" stop-color="#3D112F"/>
<stop offset="0.54" stop-color="#22091A"/>
<stop offset="0.69" stop-color="#0F040B"/>
<stop offset="0.84" stop-color="#030102"/>
<stop offset="1"/>
</radialGradient>
<radialGradient id="paint42_radial_496_522" cx="0" cy="0" r="1" gradientUnits="userSpaceOnUse" gradientTransform="translate(133.236 231.615) rotate(158.951) scale(27.7945 27.7945)">
<stop stop-color="white"/>
<stop offset="0.07" stop-color="#D8D8D8"/>
<stop offset="0.16" stop-color="#A5A5A5"/>
<stop offset="0.26" stop-color="#797979"/>
<stop offset="0.37" stop-color="#545454"/>
<stop offset="0.47" stop-color="#353535"/>
<stop offset="0.59" stop-color="#1D1D1D"/>
<stop offset="0.7" stop-color="#0D0D0D"/>
<stop offset="0.84" stop-color="#030303"/>
<stop offset="1"/>
</radialGradient>
<radialGradient id="paint43_radial_496_522" cx="0" cy="0" r="1" gradientUnits="userSpaceOnUse" gradientTransform="translate(57.8442 245.813) rotate(158.951) scale(29.6632 29.6632)">
<stop stop-color="white"/>
<stop offset="0.07" stop-color="#D8D8D8"/>
<stop offset="0.16" stop-color="#A5A5A5"/>
<stop offset="0.26" stop-color="#797979"/>
<stop offset="0.37" stop-color="#545454"/>
<stop offset="0.47" stop-color="#353535"/>
<stop offset="0.59" stop-color="#1D1D1D"/>
<stop offset="0.7" stop-color="#0D0D0D"/>
<stop offset="0.84" stop-color="#030303"/>
<stop offset="1"/>
</radialGradient>
<linearGradient id="paint44_linear_496_522" x1="220.28" y1="469.324" x2="195.478" y2="566.828" gradientUnits="userSpaceOnUse">
<stop stop-color="#FF605C"/>
<stop offset="0.32" stop-color="#FF7F7C"/>
<stop offset="0.641754" stop-color="#FFA8A6"/>
<stop offset="1" stop-color="#FFCFCE"/>
</linearGradient>
<linearGradient id="paint45_linear_496_522" x1="249.031" y1="572.225" x2="127.87" y2="502.848" gradientUnits="userSpaceOnUse">
<stop offset="0.07" stop-color="#FF7F7C"/>
<stop offset="0.334028" stop-color="#FFA8A6"/>
<stop offset="0.416077" stop-color="#FFCFCE"/>
<stop offset="0.529171" stop-color="#FFA8A6"/>
<stop offset="0.584609" stop-color="#FFA8A6"/>
<stop offset="0.67" stop-color="#FF7F7C"/>
<stop offset="0.919455" stop-color="#FF605C"/>
</linearGradient>
<linearGradient id="paint46_linear_496_522" x1="285.194" y1="560.957" x2="230.702" y2="511.137" gradientUnits="userSpaceOnUse">
<stop offset="0.04" stop-color="#FF605C"/>
<stop offset="0.32" stop-color="#FF7F7C"/>
<stop offset="0.86" stop-color="#FFA8A6"/>
<stop offset="1" stop-color="#FFCFCE"/>
</linearGradient>
<linearGradient id="paint47_linear_496_522" x1="193.792" y1="489.842" x2="218.912" y2="504.226" gradientUnits="userSpaceOnUse">
<stop offset="0.04" stop-color="#FFCFCE"/>
<stop offset="0.196798" stop-color="#FFA8A6"/>
<stop offset="0.589333" stop-color="#FF7F7C"/>
<stop offset="0.87" stop-color="#FF605C"/>
</linearGradient>
<radialGradient id="paint48_radial_496_522" cx="0" cy="0" r="1" gradientUnits="userSpaceOnUse" gradientTransform="translate(179.078 481.345) rotate(-150.204) scale(0.107925 0.107906)">
<stop stop-color="white"/>
<stop offset="0.07" stop-color="#D8D8D8"/>
<stop offset="0.16" stop-color="#A5A5A5"/>
<stop offset="0.26" stop-color="#797979"/>
<stop offset="0.37" stop-color="#545454"/>
<stop offset="0.47" stop-color="#353535"/>
<stop offset="0.59" stop-color="#1D1D1D"/>
<stop offset="0.7" stop-color="#0D0D0D"/>
<stop offset="0.84" stop-color="#030303"/>
<stop offset="1"/>
</radialGradient>
<radialGradient id="paint49_radial_496_522" cx="0" cy="0" r="1" gradientUnits="userSpaceOnUse" gradientTransform="translate(203.527 489.666) rotate(-150.204) scale(5.6682 5.66819)">
<stop stop-color="white"/>
<stop offset="0.07" stop-color="#D8D8D8"/>
<stop offset="0.16" stop-color="#A5A5A5"/>
<stop offset="0.26" stop-color="#797979"/>
<stop offset="0.37" stop-color="#545454"/>
<stop offset="0.47" stop-color="#353535"/>
<stop offset="0.59" stop-color="#1D1D1D"/>
<stop offset="0.7" stop-color="#0D0D0D"/>
<stop offset="0.84" stop-color="#030303"/>
<stop offset="1"/>
</radialGradient>
<radialGradient id="paint50_radial_496_522" cx="0" cy="0" r="1" gradientUnits="userSpaceOnUse" gradientTransform="translate(261.722 531.909) rotate(-150.204) scale(8.10511 8.10511)">
<stop stop-color="white"/>
<stop offset="0.07" stop-color="#D8D8D8"/>
<stop offset="0.16" stop-color="#A5A5A5"/>
<stop offset="0.26" stop-color="#797979"/>
<stop offset="0.37" stop-color="#545454"/>
<stop offset="0.47" stop-color="#353535"/>
<stop offset="0.59" stop-color="#1D1D1D"/>
<stop offset="0.7" stop-color="#0D0D0D"/>
<stop offset="0.84" stop-color="#030303"/>
<stop offset="1"/>
</radialGradient>
<radialGradient id="paint51_radial_496_522" cx="0" cy="0" r="1" gradientUnits="userSpaceOnUse" gradientTransform="translate(211.419 541.101) rotate(-150.204) scale(52.0909 52.0909)">
<stop stop-color="white"/>
<stop offset="0.07" stop-color="#D8D8D8"/>
<stop offset="0.16" stop-color="#A5A5A5"/>
<stop offset="0.26" stop-color="#797979"/>
<stop offset="0.37" stop-color="#545454"/>
<stop offset="0.47" stop-color="#353535"/>
<stop offset="0.59" stop-color="#1D1D1D"/>
<stop offset="0.7" stop-color="#0D0D0D"/>
<stop offset="0.84" stop-color="#030303"/>
<stop offset="1"/>
</radialGradient>
<radialGradient id="paint52_radial_496_522" cx="0" cy="0" r="1" gradientUnits="userSpaceOnUse" gradientTransform="translate(182.768 554.996) rotate(119.146) scale(16.0308 2.23685)">
<stop stop-color="#972A74"/>
<stop offset="0.04" stop-color="#8A266A"/>
<stop offset="0.19" stop-color="#601A49"/>
<stop offset="0.35" stop-color="#3D112F"/>
<stop offset="0.51" stop-color="#22091A"/>
<stop offset="0.67" stop-color="#0F040B"/>
<stop offset="0.83" stop-color="#030102"/>
<stop offset="1"/>
</radialGradient>
<radialGradient id="paint53_radial_496_522" cx="0" cy="0" r="1" gradientUnits="userSpaceOnUse" gradientTransform="translate(278.837 541.1) rotate(119.146) scale(11.4328 2.23687)">
<stop stop-color="#972A74"/>
<stop offset="0.04" stop-color="#8A266A"/>
<stop offset="0.19" stop-color="#601A49"/>
<stop offset="0.35" stop-color="#3D112F"/>
<stop offset="0.51" stop-color="#22091A"/>
<stop offset="0.67" stop-color="#0F040B"/>
<stop offset="0.83" stop-color="#030102"/>
<stop offset="1"/>
</radialGradient>
<radialGradient id="paint54_radial_496_522" cx="0" cy="0" r="1" gradientUnits="userSpaceOnUse" gradientTransform="translate(165.851 543.296) rotate(-127.854) scale(11.0337 14.0044)">
<stop stop-color="#972A74"/>
<stop offset="0.04" stop-color="#8A266A"/>
<stop offset="0.19" stop-color="#601A49"/>
<stop offset="0.35" stop-color="#3D112F"/>
<stop offset="0.51" stop-color="#22091A"/>
<stop offset="0.67" stop-color="#0F040B"/>
<stop offset="0.83" stop-color="#030102"/>
<stop offset="1"/>
</radialGradient>
<clipPath id="clip0_496_522">
<rect width="375" height="667" fill="white"/>
</clipPath>
</defs>
</svg>
