<svg width="375" height="470" viewBox="0 0 375 470" fill="none" xmlns="http://www.w3.org/2000/svg">
<g filter="url(#filter0_f_87_2)">
<circle cx="225" cy="222" r="183" fill="url(#paint0_radial_87_2)" fill-opacity="0.8"/>
</g>
<path d="M285.062 235.998C287.179 233.334 286.046 230.777 282.5 230.465C279.651 230.211 275.622 231.82 273.72 233.968C272.639 235.185 272.243 236.399 272.457 237.405C272.56 237.881 271.692 238.445 271.019 238.345L257.827 236.378L266.272 225.751C266.818 225.065 266.104 224.53 265.091 224.891C263.458 225.47 261.726 225.683 260.252 225.389C257.494 224.838 256.694 222.613 258.423 220.324C260.319 217.813 264.471 216.136 267.586 216.598C268.989 216.809 269.937 217.408 270.374 218.235C270.664 218.787 271.985 218.56 272.531 217.874L280.976 207.247L314.871 212.293C316.349 212.513 316.792 213.652 315.859 214.829L294.409 241.827L281.198 239.861C280.538 239.762 280.646 239.092 281.394 238.752C282.864 238.074 284.18 237.123 285.07 236.002L285.062 235.998Z" fill="url(#paint1_linear_87_2)"/>
<path d="M260.252 225.389C261.726 225.683 263.458 225.47 265.091 224.891C266.099 224.532 266.818 225.065 266.272 225.75L261.136 232.218L257.866 223.927C258.292 224.627 259.096 225.159 260.257 225.387L260.252 225.389Z" fill="url(#paint2_linear_87_2)"/>
<path d="M271.018 238.345C271.686 238.447 272.554 237.883 272.457 237.405C272.251 236.402 272.641 235.19 273.72 233.968C275.622 231.819 279.65 230.211 282.5 230.464C286.046 230.777 287.179 233.334 285.062 235.998C284.172 237.12 282.85 238.072 281.386 238.748C280.925 238.956 280.711 239.289 280.765 239.542L280.767 239.547C280.769 239.553 280.774 239.564 280.776 239.57L281.173 240.576C279.652 241.208 278.252 242.113 277.338 243.14C276.257 244.357 275.861 245.571 276.075 246.577C276.178 247.053 275.31 247.617 274.637 247.517L262.002 245.637L261.512 245.72L257.827 236.378L271.018 238.345Z" fill="url(#paint3_linear_87_2)"/>
<path d="M315.853 214.832C316.316 214.251 316.439 213.686 316.278 213.227L319.821 222.208L319.809 222.212C320.095 222.687 320.005 223.337 319.477 224.002L298.027 250.999L294.406 241.821L315.856 214.824L315.853 214.832Z" fill="url(#paint4_linear_87_2)"/>
<path d="M281.19 239.857L294.401 241.823L298.021 251.001L284.811 249.036C284.603 249.006 284.483 248.917 284.422 248.797L284.402 248.746C284.402 248.746 284.396 248.729 284.393 248.723L280.784 239.573C280.826 239.714 280.961 239.824 281.198 239.861L281.19 239.857Z" fill="url(#paint5_linear_87_2)"/>
<path d="M281.19 239.857L294.401 241.823L298.021 251.001L284.811 249.036C284.603 249.006 284.483 248.917 284.422 248.797L284.402 248.746C284.402 248.746 284.396 248.729 284.393 248.723L280.784 239.573C280.826 239.714 280.961 239.824 281.198 239.861L281.19 239.857Z" fill="url(#paint6_linear_87_2)"/>
<g style="mix-blend-mode:color-dodge">
<path d="M281.107 239.465L294.242 241.422L315.692 214.424C316.024 214.006 316.177 213.6 316.182 213.232C316.649 213.72 316.624 214.468 316.013 215.238L294.563 242.236L281.353 240.27C280.86 240.196 280.796 239.803 281.107 239.465Z" fill="url(#paint7_radial_87_2)"/>
<path d="M260.089 224.977C261.563 225.27 263.295 225.057 264.928 224.478C265.879 224.142 266.568 224.596 266.188 225.222C265.943 225.149 265.615 225.161 265.249 225.292C263.616 225.871 261.884 226.084 260.41 225.79C258.85 225.478 257.915 224.632 257.712 223.537C258.142 224.229 258.939 224.744 260.087 224.971L260.089 224.977Z" fill="url(#paint8_radial_87_2)"/>
<path d="M270.858 237.938C271.525 238.04 272.393 237.476 272.296 236.998C272.09 235.995 272.481 234.783 273.559 233.561C275.462 231.413 279.49 229.804 282.34 230.058C284.41 230.24 285.649 231.195 285.909 232.483C285.372 231.618 284.266 231.016 282.663 230.877C279.813 230.623 275.785 232.232 273.883 234.38C272.802 235.597 272.406 236.811 272.62 237.817C272.722 238.293 271.854 238.857 271.181 238.757L257.99 236.79L258.536 236.105L270.86 237.943L270.858 237.938Z" fill="url(#paint9_radial_87_2)"/>
</g>
<path style="mix-blend-mode:color-dodge" d="M280.81 238.381C281.441 238.125 280.879 235.277 279.553 232.032C278.224 228.781 276.641 226.356 276.01 226.611C275.379 226.867 275.941 229.715 277.269 232.966C278.598 236.217 280.181 238.642 280.812 238.386L280.81 238.381Z" fill="url(#paint10_radial_87_2)"/>
<path d="M276.134 154.523C273.172 150.753 265.686 148.77 259.761 150.283C255.001 151.499 252.753 155.198 254.848 158.345C256.043 160.128 258.223 161.55 260.819 162.457C262.05 162.887 262.059 163.896 260.848 164.147L237.004 168.994L225.183 153.941C224.422 152.963 222.157 152.808 221.483 153.688C220.4 155.114 218.349 156.224 215.513 156.693C210.21 157.568 203.962 155.736 201.284 152.543C198.348 149.037 200.623 145.212 206.26 144.07C208.791 143.562 211.561 143.673 214.087 144.281C215.77 144.69 217.196 143.779 216.435 142.801L204.615 127.748L265.884 115.314C268.559 114.774 271.794 115.684 273.104 117.352L303.122 155.574L279.247 160.427C278.057 160.671 276.686 159.934 277.001 159.206C277.617 157.77 277.381 156.132 276.141 154.543L276.134 154.523Z" fill="url(#paint11_linear_87_2)"/>
<path d="M214.08 144.261C211.554 143.652 208.784 143.541 206.253 144.049C205.228 144.255 204.311 144.555 203.514 144.93L202.521 143.663L204.598 127.726L216.418 142.779C217.189 143.758 215.754 144.659 214.07 144.259L214.08 144.261Z" fill="url(#paint12_linear_87_2)"/>
<path d="M200.024 149.655C200.09 150.601 200.492 151.572 201.285 152.534C203.963 155.727 210.212 157.549 215.515 156.683C218.34 156.213 220.401 155.104 221.485 153.679C222.149 152.797 224.422 152.964 225.184 153.931L237.005 168.984L260.849 164.138C262.059 163.896 262.052 162.877 260.82 162.447C258.223 161.55 256.044 160.118 254.849 158.336C252.745 155.187 255.002 151.5 259.762 150.274C265.688 148.761 273.173 150.744 276.135 154.513C277.385 156.103 277.621 157.741 276.995 159.176C276.68 159.903 278.043 160.63 279.241 160.397L303.116 155.544L301.039 171.481L277.164 176.333C275.975 176.577 274.604 175.84 274.918 175.112C275.534 173.676 275.299 172.038 274.059 170.45C271.697 167.437 266.431 165.574 261.392 165.715L259.642 179.15C259.74 179.542 259.461 179.924 258.774 180.064L234.929 184.911L223.109 169.858C222.348 168.881 220.084 168.716 219.411 169.596C218.327 171.021 216.276 172.131 213.44 172.6C208.137 173.476 201.889 171.644 199.211 168.451C197.975 166.982 197.675 165.456 198.143 164.09L200.026 149.635L200.024 149.655Z" fill="url(#paint13_linear_87_2)"/>
<path d="M221.14 169.043L223.216 153.106C223.989 153.147 224.792 153.421 225.185 153.931L237.005 168.984L234.928 184.921L223.108 169.868C222.714 169.368 221.913 169.083 221.14 169.043Z" fill="url(#paint14_linear_87_2)"/>
<path d="M222.658 169.49C222.658 169.49 222.724 169.519 222.741 169.541C222.713 169.527 222.685 169.513 222.658 169.49Z" fill="url(#paint15_linear_87_2)"/>
<path d="M260.849 164.138C262.058 163.896 262.052 162.877 260.82 162.448C258.223 161.55 256.044 160.119 254.849 158.336C252.744 155.188 255.001 151.5 259.762 150.274C265.687 148.761 273.173 150.744 276.135 154.513C277.385 156.103 277.621 157.741 276.995 159.176C276.68 159.904 278.043 160.63 279.241 160.397L303.116 155.544L301.039 171.481L277.164 176.333C275.974 176.578 274.604 175.84 274.918 175.113C275.534 173.676 275.299 172.039 274.058 170.45C271.697 167.438 266.431 165.574 261.392 165.716L259.642 179.15C259.74 179.542 259.461 179.925 258.774 180.065L234.929 184.911L237.006 168.975L260.851 164.128L260.849 164.138Z" fill="url(#paint16_linear_87_2)"/>
<path d="M198.14 164.11L200.024 149.655C200.09 150.601 200.492 151.572 201.285 152.534C203.963 155.727 210.212 157.549 215.514 156.683C218.34 156.213 220.401 155.104 221.485 153.679C221.978 153.035 223.315 152.959 224.304 153.338C223.97 153.214 223.591 153.135 223.215 153.116L221.138 169.053C220.424 169.019 219.732 169.199 219.408 169.615C218.324 171.041 216.273 172.151 213.438 172.62C208.134 173.496 201.886 171.663 199.208 168.47C197.973 167.002 197.673 165.476 198.14 164.11Z" fill="url(#paint17_linear_87_2)"/>
<path d="M224.818 153.604C224.955 153.702 225.081 153.808 225.183 153.941C225.089 153.819 224.965 153.703 224.818 153.604Z" fill="url(#paint18_linear_87_2)"/>
<path d="M224.343 153.343C224.485 153.401 224.616 153.468 224.734 153.554C224.615 153.478 224.485 153.401 224.343 153.343Z" fill="url(#paint19_linear_87_2)"/>
<path d="M280.972 160.053L303.115 155.554L280.972 160.053Z" fill="url(#paint20_linear_87_2)"/>
<path d="M276.619 176.382C276.49 176.375 276.361 176.368 276.234 176.351C276.361 176.368 276.489 176.385 276.619 176.382Z" fill="url(#paint21_linear_87_2)"/>
<path d="M259.656 179.271C259.657 179.341 259.648 179.41 259.629 179.477L259.656 179.271Z" fill="url(#paint22_linear_87_2)"/>
<path d="M261.698 163.6C261.87 163.203 261.584 162.716 260.82 162.447C258.223 161.55 256.044 160.118 254.849 158.336C252.745 155.187 255.002 151.5 259.762 150.274C265.688 148.761 273.174 150.744 276.135 154.513C277.385 156.103 277.621 157.741 276.995 159.176C276.84 159.525 277.093 159.877 277.51 160.121L275.435 176.048C275.307 175.961 274.733 175.537 274.919 175.103C275.536 173.666 275.3 172.029 274.06 170.44C271.697 167.437 266.462 165.568 261.425 165.7L261.701 163.58L261.698 163.6Z" fill="url(#paint23_linear_87_2)"/>
<g style="mix-blend-mode:color-dodge">
<path d="M216.432 143.21C216.432 143.21 216.399 143.156 216.382 143.134L204.56 128.09L205.401 127.921L216.52 142.074C216.854 142.497 216.77 142.915 216.432 143.21Z" fill="url(#paint24_radial_87_2)"/>
<path d="M201.379 151.817C204.056 155.01 210.306 156.832 215.608 155.966C218.434 155.496 220.494 154.387 221.578 152.962C222.252 152.082 224.516 152.247 225.277 153.224L237.099 168.267L260.942 163.43C261.167 163.39 261.327 163.311 261.468 163.22C261.925 163.698 261.706 164.308 260.804 164.49L236.959 169.337L225.139 154.284C224.378 153.307 222.113 153.151 221.439 154.031C220.355 155.457 218.304 156.567 215.469 157.036C210.166 157.902 203.917 156.079 201.239 152.886C200.074 151.487 199.733 150.045 200.104 148.736C200.123 149.737 200.524 150.797 201.379 151.817Z" fill="url(#paint25_radial_87_2)"/>
<path d="M277.137 159.005C277.441 159.503 278.43 159.882 279.332 159.7L302.376 155.018L303.079 155.908L279.203 160.761C278.014 161.005 276.643 160.268 276.957 159.54C277.031 159.36 277.093 159.188 277.147 159.006L277.137 159.005Z" fill="url(#paint26_radial_87_2)"/>
<path d="M254.16 155.202C254.146 152.785 256.301 150.491 259.853 149.576C265.779 148.063 273.264 150.047 276.226 153.816C277.321 155.216 277.634 156.644 277.274 157.954C277.274 156.956 276.892 155.908 276.088 154.876C273.126 151.107 265.64 149.123 259.715 150.636C256.68 151.409 254.681 153.194 254.16 155.202Z" fill="url(#paint27_radial_87_2)"/>
</g>
<path style="mix-blend-mode:color-dodge" d="M209.758 169.077C211.125 169.235 212.775 164.839 213.434 159.246C214.093 153.654 213.523 148.989 212.158 148.821C210.791 148.663 209.141 153.058 208.472 158.65C207.803 164.241 208.383 168.907 209.748 169.075L209.758 169.077Z" fill="url(#paint28_radial_87_2)"/>
<path style="mix-blend-mode:color-dodge" d="M265.084 160.438C266.451 160.596 268.101 156.2 268.771 150.599C269.43 145.006 268.861 140.341 267.495 140.173C266.13 140.006 264.478 144.411 263.809 150.002C263.15 155.595 263.72 160.26 265.085 160.428L265.084 160.438Z" fill="url(#paint29_radial_87_2)"/>
<path d="M93.9645 172.588C90.8224 176.475 92.4552 180.245 97.6595 180.748C101.842 181.156 107.78 178.842 110.6 175.71C112.203 173.936 112.8 172.157 112.498 170.677C112.361 169.974 113.643 169.155 114.622 169.314L133.976 172.366L121.439 187.872C120.629 188.872 121.679 189.664 123.165 189.149C125.57 188.319 128.117 188.028 130.279 188.477C134.323 189.321 135.47 192.599 132.902 195.94C130.086 199.606 123.975 202.015 119.394 201.292C117.339 200.973 115.951 200.073 115.327 198.85C114.908 198.036 112.965 198.353 112.155 199.354L99.6182 214.86L49.8908 207.03C47.7224 206.689 47.0864 205.011 48.4714 203.293L80.3121 163.9L99.6936 166.95C100.661 167.104 100.494 168.086 99.3922 168.577C97.2247 169.555 95.279 170.935 93.9581 172.571L93.9645 172.588Z" fill="url(#paint30_linear_87_2)"/>
<path d="M93.9645 172.588C90.8224 176.475 92.4552 180.245 97.6595 180.748C101.842 181.156 107.78 178.842 110.6 175.71C112.203 173.936 112.8 172.157 112.498 170.677C112.361 169.974 113.643 169.155 114.622 169.314L133.976 172.366L121.439 187.872C120.629 188.872 121.679 189.664 123.165 189.149C125.57 188.319 128.117 188.028 130.279 188.477C134.323 189.321 135.47 192.599 132.902 195.94C130.086 199.606 123.975 202.015 119.394 201.292C117.339 200.973 115.951 200.073 115.327 198.85C114.908 198.036 112.965 198.353 112.155 199.354L99.6182 214.86L49.8908 207.03C47.7224 206.689 47.0864 205.011 48.4714 203.293L80.3121 163.9L99.6936 166.95C100.661 167.104 100.494 168.086 99.3922 168.577C97.2247 169.555 95.279 170.935 93.9581 172.571L93.9645 172.588Z" fill="url(#paint31_linear_87_2)"/>
<path d="M97.6595 180.748C92.4551 180.245 90.8224 176.475 93.9645 172.588C95.2854 170.951 97.2394 169.568 99.3985 168.594C100.099 168.277 100.417 167.762 100.304 167.394L100.329 167.385L104.961 179.42C102.507 180.422 99.8445 180.959 97.6595 180.748Z" fill="url(#paint32_linear_87_2)"/>
<path d="M53.0349 219.151L53.0016 219.164L47.7959 205.637L47.8292 205.625C48.0651 206.337 48.7759 206.867 49.894 207.039L99.6214 214.868L104.827 228.395L55.0997 220.566C53.9816 220.393 53.2708 219.864 53.0349 219.151Z" fill="url(#paint33_linear_87_2)"/>
<path d="M53.0349 219.151L53.0016 219.164L47.7959 205.637L47.8292 205.625C48.0651 206.337 48.7759 206.867 49.894 207.039L99.6214 214.868L104.827 228.395L55.0997 220.566C53.9816 220.393 53.2708 219.864 53.0349 219.151Z" fill="url(#paint34_linear_87_2)"/>
<path d="M130.282 188.486C128.12 188.036 125.574 188.328 123.168 189.158C121.683 189.672 120.632 188.881 121.443 187.881L133.979 172.374L139.185 185.901L134.299 191.941L134.226 191.95C133.989 190.291 132.616 188.984 130.285 188.494L130.282 188.486Z" fill="url(#paint35_linear_87_2)"/>
<path d="M112.158 199.362C112.559 198.863 113.236 198.536 113.867 198.436L119.073 211.963C118.445 212.071 117.768 212.398 117.367 212.897L104.83 228.403L99.6245 214.876L112.161 199.37L112.158 199.362Z" fill="url(#paint36_linear_87_2)"/>
<path d="M115.33 198.858C115.962 200.078 117.342 200.981 119.397 201.3C123.978 202.023 130.089 199.614 132.905 195.948C133.988 194.537 134.399 193.145 134.222 191.941L134.295 191.932L139.113 204.451C139.788 205.855 139.502 207.648 138.099 209.47C135.283 213.135 129.172 215.544 124.594 214.83C122.536 214.503 121.151 213.611 120.527 212.388C120.311 211.974 119.709 211.852 119.064 211.966L113.859 198.439C114.506 198.334 115.116 198.453 115.322 198.861L115.33 198.858Z" fill="url(#paint37_linear_87_2)"/>
<path d="M115.33 198.858C115.962 200.078 117.342 200.981 119.397 201.3C123.978 202.023 130.089 199.614 132.905 195.948C133.988 194.537 134.399 193.145 134.222 191.941L134.295 191.932L139.113 204.451C139.788 205.855 139.502 207.648 138.099 209.47C135.283 213.135 129.172 215.544 124.594 214.83C122.536 214.503 121.151 213.611 120.527 212.388C120.311 211.974 119.709 211.852 119.064 211.966L113.859 198.439C114.506 198.334 115.116 198.453 115.322 198.861L115.33 198.858Z" fill="url(#paint38_linear_87_2)"/>
<g style="mix-blend-mode:color-dodge">
<path d="M121.557 188.649C120.941 188.466 120.698 187.909 121.22 187.278L132.946 172.772L134.218 172.971L121.682 188.477C121.636 188.533 121.594 188.597 121.557 188.649Z" fill="url(#paint39_radial_87_2)"/>
<path d="M99.6411 169.199C97.4736 170.176 95.5279 171.556 94.207 173.193C92.9047 174.804 92.4296 176.402 92.6887 177.746C91.7426 176.207 92.0286 174.117 93.7422 171.985C95.0631 170.349 97.0172 168.965 99.1763 167.991C99.4531 167.865 99.6722 167.714 99.8285 167.549L99.9394 167.563C100.907 167.717 100.74 168.699 99.6379 169.19L99.6411 169.199Z" fill="url(#paint40_radial_87_2)"/>
</g>
<path style="mix-blend-mode:color-dodge" d="M135.458 208.096C136.676 207.608 135.94 202.89 133.818 197.548C131.695 192.207 128.987 188.276 127.769 188.764C126.551 189.252 127.286 193.97 129.409 199.312C131.532 204.654 134.24 208.584 135.458 208.096Z" fill="url(#paint41_radial_87_2)"/>
<path style="mix-blend-mode:color-dodge" d="M111.927 198.763C112.746 197.759 114.681 197.445 115.1 198.259C115.732 199.479 117.112 200.382 119.166 200.701C123.748 201.424 129.859 199.015 132.672 195.341C133.786 193.888 134.198 192.449 133.984 191.221C134.863 192.661 134.64 194.592 133.136 196.548C130.32 200.214 124.209 202.623 119.628 201.9C117.573 201.581 116.185 200.681 115.561 199.458C115.143 198.644 113.199 198.962 112.389 199.962L99.9382 215.368L99.4767 214.169L111.927 198.763Z" fill="url(#paint42_radial_87_2)"/>
<path style="mix-blend-mode:color-dodge" d="M50.1281 207.647C48.7222 207.423 47.9634 206.644 47.983 205.651C48.3426 206.039 48.9123 206.327 49.6665 206.447L99.3938 214.277L99.4765 214.169L99.938 215.368L99.8554 215.476L50.1281 207.647Z" fill="url(#paint43_radial_87_2)"/>
<path d="M172.214 266.354C174.086 271.667 181.333 276.789 188.091 277.442C193.52 277.97 197.122 274.782 195.958 270.497C195.288 268.065 193.459 265.643 191.017 263.635C189.861 262.688 190.182 261.562 191.546 261.76L218.336 265.792L225.814 286.996C226.301 288.364 228.64 289.444 229.633 288.729C231.244 287.59 233.793 287.169 236.925 287.769C242.814 288.898 248.808 293.355 250.576 297.92C252.516 302.934 248.851 306.256 242.514 305.298C239.669 304.876 236.78 303.649 234.318 301.993C232.681 300.887 230.872 301.33 231.354 302.708L238.842 323.917L170.018 313.556C167.009 313.104 163.892 310.826 163.062 308.47L144.06 254.603L170.885 258.643C172.225 258.839 173.424 260.187 172.856 260.861C171.727 262.199 171.428 264.102 172.225 266.335L172.214 266.354Z" fill="url(#paint44_linear_87_2)"/>
<path d="M163.061 308.496C163.89 310.851 167.008 313.129 170.017 313.581L238.84 323.943L229.759 339.802L160.936 329.44C157.927 328.988 154.81 326.71 153.98 324.355L134.978 270.488L144.059 254.629L163.061 308.496Z" fill="url(#paint45_linear_87_2)"/>
<path d="M234.316 302.018C236.778 303.675 239.673 304.892 242.512 305.324C246.106 305.864 248.839 305.031 250.178 303.282L241.634 318.203C241.03 319.621 239.697 320.634 237.822 321.078L231.343 302.728C230.861 301.35 232.665 300.917 234.306 302.013L234.316 302.018Z" fill="url(#paint46_linear_87_2)"/>
<path d="M191.011 263.646C193.454 265.653 195.292 268.081 195.952 270.507C197.126 274.798 193.519 277.971 188.085 277.453C186.23 277.272 184.339 276.747 182.532 275.985L190.316 262.391C190.275 262.757 190.476 263.222 190.996 263.65L191.011 263.646Z" fill="url(#paint47_linear_87_2)"/>
<g style="mix-blend-mode:color-dodge">
<path d="M172.577 261.259C172.567 261.344 172.537 261.418 172.498 261.486C172.528 261.412 172.547 261.333 172.577 261.259Z" fill="url(#paint48_radial_87_2)"/>
<path d="M196.354 269.804C196.861 271.637 196.481 273.274 195.46 274.492C195.822 273.519 195.875 272.408 195.549 271.211C194.89 268.784 193.051 266.357 190.609 264.349C189.505 263.445 189.767 262.376 190.982 262.475C191.089 262.627 191.231 262.786 191.414 262.943C193.856 264.95 195.695 267.378 196.354 269.804Z" fill="url(#paint49_radial_87_2)"/>
<path d="M242.109 306.027C239.265 305.605 236.375 304.378 233.913 302.722C233.166 302.216 232.374 302.035 231.795 302.118L231.76 302.021C231.279 300.643 233.082 300.21 234.724 301.306C237.186 302.962 240.081 304.179 242.92 304.611C246.394 305.135 249.069 304.359 250.45 302.738C249.58 305.3 246.483 306.678 242.115 306.018L242.109 306.027Z" fill="url(#paint50_radial_87_2)"/>
<path d="M163.469 307.783C164.299 310.139 167.416 312.416 170.425 312.868L237.879 323.017L238.443 324.636L169.62 314.275C166.611 313.823 163.493 311.545 162.664 309.189L143.662 255.322L145.036 255.526L163.474 307.773L163.469 307.783Z" fill="url(#paint51_radial_87_2)"/>
</g>
<path style="mix-blend-mode:color-dodge" d="M156.454 329.092C157.349 329.591 161.008 324.762 164.604 318.301C168.2 311.841 170.393 306.198 169.499 305.699C168.6 305.185 164.945 310.029 161.349 316.49C157.744 322.945 155.56 328.593 156.454 329.092Z" fill="url(#paint52_radial_87_2)"/>
<path style="mix-blend-mode:color-dodge" d="M237.978 315.098C238.882 315.603 241.687 312.268 244.255 307.67C246.823 303.072 248.171 298.929 247.276 298.43C246.388 297.921 243.574 301.25 241 305.858C238.432 310.456 237.084 314.599 237.978 315.098Z" fill="url(#paint53_radial_87_2)"/>
<path style="mix-blend-mode:color-dodge" d="M160.323 306.008C155.188 309.992 153.557 316.488 156.673 320.49C159.789 324.491 166.481 324.511 171.606 320.521C176.74 316.536 178.367 310.05 175.256 306.039C172.14 302.037 165.447 302.017 160.323 306.008Z" fill="url(#paint54_radial_87_2)"/>
<defs>
<filter id="filter0_f_87_2" x="-23" y="-26" width="496" height="496" filterUnits="userSpaceOnUse" color-interpolation-filters="sRGB">
<feFlood flood-opacity="0" result="BackgroundImageFix"/>
<feBlend mode="normal" in="SourceGraphic" in2="BackgroundImageFix" result="shape"/>
<feGaussianBlur stdDeviation="32.5" result="effect1_foregroundBlur_87_2"/>
</filter>
<radialGradient id="paint0_radial_87_2" cx="0" cy="0" r="1" gradientUnits="userSpaceOnUse" gradientTransform="translate(225 222) rotate(90) scale(172)">
<stop stop-color="#E4E4EF"/>
<stop offset="0.597726" stop-color="#E4E4EF" stop-opacity="0.37605"/>
<stop offset="1" stop-color="#E4E4EF" stop-opacity="0"/>
</radialGradient>
<linearGradient id="paint1_linear_87_2" x1="266.258" y1="207.917" x2="301.617" y2="233.808" gradientUnits="userSpaceOnUse">
<stop offset="0.189231" stop-color="#2ADBDB"/>
<stop offset="0.325142" stop-color="#48ECEC"/>
<stop offset="0.59" stop-color="#63FAFA"/>
<stop offset="1" stop-color="#89FFFF"/>
</linearGradient>
<linearGradient id="paint2_linear_87_2" x1="264.826" y1="227.614" x2="248.664" y2="228.994" gradientUnits="userSpaceOnUse">
<stop offset="0.04" stop-color="#138BBD"/>
<stop offset="0.23" stop-color="#169AC6"/>
<stop offset="0.59" stop-color="#1EC2DF"/>
<stop offset="1" stop-color="#2AF6FF"/>
</linearGradient>
<linearGradient id="paint3_linear_87_2" x1="286.046" y1="234.072" x2="260.717" y2="244.218" gradientUnits="userSpaceOnUse">
<stop stop-color="#2ADBDB"/>
<stop offset="0.11" stop-color="#48ECEC"/>
<stop offset="0.24" stop-color="#63FAFA"/>
<stop offset="0.382587" stop-color="#2ADBDB"/>
<stop offset="0.446603" stop-color="#48ECEC"/>
<stop offset="0.50469" stop-color="#89FFFF"/>
<stop offset="0.552011" stop-color="#48ECEC"/>
<stop offset="0.606491" stop-color="#2ADBDB"/>
<stop offset="0.680973" stop-color="#2ADBDB"/>
</linearGradient>
<linearGradient id="paint4_linear_87_2" x1="320.578" y1="232.206" x2="292.113" y2="239.517" gradientUnits="userSpaceOnUse">
<stop offset="0.04" stop-color="#2ADBDB"/>
<stop offset="0.879365" stop-color="#63FAFA"/>
</linearGradient>
<linearGradient id="paint5_linear_87_2" x1="290.71" y1="239.158" x2="285.171" y2="265.032" gradientUnits="userSpaceOnUse">
<stop offset="0.04" stop-color="#138BBD"/>
<stop offset="0.23" stop-color="#169AC6"/>
<stop offset="0.59" stop-color="#1EC2DF"/>
<stop offset="1" stop-color="#2AF6FF"/>
</linearGradient>
<linearGradient id="paint6_linear_87_2" x1="289.263" y1="245.539" x2="287.892" y2="261.102" gradientUnits="userSpaceOnUse">
<stop offset="0.04" stop-color="#2ADBDB"/>
<stop offset="1" stop-color="#48ECEC"/>
</linearGradient>
<radialGradient id="paint7_radial_87_2" cx="0" cy="0" r="1" gradientUnits="userSpaceOnUse" gradientTransform="translate(304.844 226.293) rotate(158.47) scale(22.6857 22.6857)">
<stop stop-color="white"/>
<stop offset="0.07" stop-color="#D8D8D8"/>
<stop offset="0.16" stop-color="#A5A5A5"/>
<stop offset="0.26" stop-color="#797979"/>
<stop offset="0.37" stop-color="#545454"/>
<stop offset="0.47" stop-color="#353535"/>
<stop offset="0.59" stop-color="#1D1D1D"/>
<stop offset="0.7" stop-color="#0D0D0D"/>
<stop offset="0.84" stop-color="#030303"/>
<stop offset="1"/>
</radialGradient>
<radialGradient id="paint8_radial_87_2" cx="0" cy="0" r="1" gradientUnits="userSpaceOnUse" gradientTransform="translate(262.054 224.345) rotate(158.47) scale(3.14101 3.14101)">
<stop stop-color="white"/>
<stop offset="0.07" stop-color="#D8D8D8"/>
<stop offset="0.16" stop-color="#A5A5A5"/>
<stop offset="0.26" stop-color="#797979"/>
<stop offset="0.37" stop-color="#545454"/>
<stop offset="0.47" stop-color="#353535"/>
<stop offset="0.59" stop-color="#1D1D1D"/>
<stop offset="0.7" stop-color="#0D0D0D"/>
<stop offset="0.84" stop-color="#030303"/>
<stop offset="1"/>
</radialGradient>
<radialGradient id="paint9_radial_87_2" cx="0" cy="0" r="1" gradientUnits="userSpaceOnUse" gradientTransform="translate(276.37 230.852) rotate(158.47) scale(10.0913 10.0913)">
<stop stop-color="white"/>
<stop offset="0.07" stop-color="#D8D8D8"/>
<stop offset="0.16" stop-color="#A5A5A5"/>
<stop offset="0.26" stop-color="#797979"/>
<stop offset="0.37" stop-color="#545454"/>
<stop offset="0.47" stop-color="#353535"/>
<stop offset="0.59" stop-color="#1D1D1D"/>
<stop offset="0.7" stop-color="#0D0D0D"/>
<stop offset="0.84" stop-color="#030303"/>
<stop offset="1"/>
</radialGradient>
<radialGradient id="paint10_radial_87_2" cx="0" cy="0" r="1" gradientUnits="userSpaceOnUse" gradientTransform="translate(286.07 231.434) rotate(67.8205) scale(6.32162 1.23684)">
<stop stop-color="#972A74"/>
<stop offset="0.04" stop-color="#8A266A"/>
<stop offset="0.19" stop-color="#601A49"/>
<stop offset="0.35" stop-color="#3D112F"/>
<stop offset="0.51" stop-color="#22091A"/>
<stop offset="0.67" stop-color="#0F040B"/>
<stop offset="0.83" stop-color="#030102"/>
<stop offset="1"/>
</radialGradient>
<linearGradient id="paint11_linear_87_2" x1="226.366" y1="90.2603" x2="254.255" y2="160.134" gradientUnits="userSpaceOnUse">
<stop offset="0.364271" stop-color="#7740FF"/>
<stop offset="0.715465" stop-color="#8F62FF"/>
<stop offset="1" stop-color="#9B73FF"/>
</linearGradient>
<linearGradient id="paint12_linear_87_2" x1="234.038" y1="157.979" x2="132.234" y2="84.4548" gradientUnits="userSpaceOnUse">
<stop offset="0.04" stop-color="#6B24D6"/>
<stop offset="0.29" stop-color="#7733DC"/>
<stop offset="0.79" stop-color="#965BEC"/>
<stop offset="1" stop-color="#A56EF4"/>
</linearGradient>
<linearGradient id="paint13_linear_87_2" x1="239.48" y1="171.053" x2="186.415" y2="221.383" gradientUnits="userSpaceOnUse">
<stop offset="0.04" stop-color="#6B24D6"/>
<stop offset="0.29" stop-color="#7733DC"/>
<stop offset="0.79" stop-color="#965BEC"/>
<stop offset="1" stop-color="#A56EF4"/>
</linearGradient>
<linearGradient id="paint14_linear_87_2" x1="227.256" y1="167.365" x2="125.451" y2="93.8502" gradientUnits="userSpaceOnUse">
<stop offset="0.04" stop-color="#6B24D6"/>
<stop offset="0.29" stop-color="#7733DC"/>
<stop offset="0.79" stop-color="#965BEC"/>
<stop offset="1" stop-color="#A56EF4"/>
</linearGradient>
<linearGradient id="paint15_linear_87_2" x1="222.704" y1="169.516" x2="222.682" y2="169.533" gradientUnits="userSpaceOnUse">
<stop offset="0.04" stop-color="#6B24D6"/>
<stop offset="0.29" stop-color="#7733DC"/>
<stop offset="0.79" stop-color="#965BEC"/>
<stop offset="1" stop-color="#A56EF4"/>
</linearGradient>
<linearGradient id="paint16_linear_87_2" x1="360.843" y1="203.764" x2="173.132" y2="135.223" gradientUnits="userSpaceOnUse">
<stop offset="0.279294" stop-color="#7740FF"/>
<stop offset="0.424044" stop-color="#7733DC"/>
<stop offset="0.79" stop-color="#965BEC"/>
<stop offset="1" stop-color="#A56EF4"/>
</linearGradient>
<linearGradient id="paint17_linear_87_2" x1="222.042" y1="163.492" x2="198.442" y2="160.416" gradientUnits="userSpaceOnUse">
<stop stop-color="#6B24D6"/>
<stop offset="0.07" stop-color="#712CD9"/>
<stop offset="0.16" stop-color="#7734DC"/>
<stop offset="0.32" stop-color="#8C4EE7"/>
<stop offset="0.48" stop-color="#A56EF4"/>
<stop offset="0.87" stop-color="#6B24D6"/>
</linearGradient>
<linearGradient id="paint18_linear_87_2" x1="225.006" y1="153.768" x2="224.983" y2="153.795" gradientUnits="userSpaceOnUse">
<stop offset="0.04" stop-color="#6B24D6"/>
<stop offset="0.29" stop-color="#7733DC"/>
<stop offset="0.79" stop-color="#965BEC"/>
<stop offset="1" stop-color="#A56EF4"/>
</linearGradient>
<linearGradient id="paint19_linear_87_2" x1="224.526" y1="153.467" x2="224.435" y2="153.555" gradientUnits="userSpaceOnUse">
<stop offset="0.04" stop-color="#6B24D6"/>
<stop offset="0.29" stop-color="#7733DC"/>
<stop offset="0.79" stop-color="#965BEC"/>
<stop offset="1" stop-color="#A56EF4"/>
</linearGradient>
<linearGradient id="paint20_linear_87_2" x1="321.033" y1="168.387" x2="261.778" y2="146.754" gradientUnits="userSpaceOnUse">
<stop offset="0.04" stop-color="#6B24D6"/>
<stop offset="0.29" stop-color="#7733DC"/>
<stop offset="0.79" stop-color="#965BEC"/>
<stop offset="1" stop-color="#A56EF4"/>
</linearGradient>
<linearGradient id="paint21_linear_87_2" x1="276.993" y1="176.57" x2="275.85" y2="176.152" gradientUnits="userSpaceOnUse">
<stop offset="0.04" stop-color="#6B24D6"/>
<stop offset="0.29" stop-color="#7733DC"/>
<stop offset="0.79" stop-color="#965BEC"/>
<stop offset="1" stop-color="#A56EF4"/>
</linearGradient>
<linearGradient id="paint22_linear_87_2" x1="259.718" y1="179.409" x2="259.576" y2="179.35" gradientUnits="userSpaceOnUse">
<stop offset="0.04" stop-color="#6B24D6"/>
<stop offset="0.29" stop-color="#7733DC"/>
<stop offset="0.79" stop-color="#965BEC"/>
<stop offset="1" stop-color="#A56EF4"/>
</linearGradient>
<linearGradient id="paint23_linear_87_2" x1="275.619" y1="163.607" x2="254.177" y2="160.813" gradientUnits="userSpaceOnUse">
<stop stop-color="#7C3ADF"/>
<stop offset="0.04" stop-color="#7633DC"/>
<stop offset="0.14" stop-color="#6D27D7"/>
<stop offset="0.25" stop-color="#6B24D6"/>
<stop offset="0.56" stop-color="#9A60EE"/>
<stop offset="0.97" stop-color="#7734DC"/>
</linearGradient>
<radialGradient id="paint24_radial_87_2" cx="0" cy="0" r="1" gradientUnits="userSpaceOnUse" gradientTransform="translate(207.151 135.554) rotate(-172.576) scale(6.9273 6.9273)">
<stop stop-color="white"/>
<stop offset="0.07" stop-color="#D8D8D8"/>
<stop offset="0.16" stop-color="#A5A5A5"/>
<stop offset="0.26" stop-color="#797979"/>
<stop offset="0.37" stop-color="#545454"/>
<stop offset="0.47" stop-color="#353535"/>
<stop offset="0.59" stop-color="#1D1D1D"/>
<stop offset="0.7" stop-color="#0D0D0D"/>
<stop offset="0.84" stop-color="#030303"/>
<stop offset="1"/>
</radialGradient>
<radialGradient id="paint25_radial_87_2" cx="0" cy="0" r="1" gradientUnits="userSpaceOnUse" gradientTransform="translate(209.905 162.049) rotate(-172.576) scale(17.0016 17.0016)">
<stop stop-color="white"/>
<stop offset="0.07" stop-color="#D8D8D8"/>
<stop offset="0.16" stop-color="#A5A5A5"/>
<stop offset="0.26" stop-color="#797979"/>
<stop offset="0.37" stop-color="#545454"/>
<stop offset="0.47" stop-color="#353535"/>
<stop offset="0.59" stop-color="#1D1D1D"/>
<stop offset="0.7" stop-color="#0D0D0D"/>
<stop offset="0.84" stop-color="#030303"/>
<stop offset="1"/>
</radialGradient>
<radialGradient id="paint26_radial_87_2" cx="0" cy="0" r="1" gradientUnits="userSpaceOnUse" gradientTransform="translate(289.981 157.854) rotate(-172.576) scale(9.52009 9.52009)">
<stop stop-color="white"/>
<stop offset="0.07" stop-color="#D8D8D8"/>
<stop offset="0.16" stop-color="#A5A5A5"/>
<stop offset="0.26" stop-color="#797979"/>
<stop offset="0.37" stop-color="#545454"/>
<stop offset="0.47" stop-color="#353535"/>
<stop offset="0.59" stop-color="#1D1D1D"/>
<stop offset="0.7" stop-color="#0D0D0D"/>
<stop offset="0.84" stop-color="#030303"/>
<stop offset="1"/>
</radialGradient>
<radialGradient id="paint27_radial_87_2" cx="0" cy="0" r="1" gradientUnits="userSpaceOnUse" gradientTransform="translate(266.187 152.967) rotate(-172.576) scale(8.67892 8.67892)">
<stop stop-color="white"/>
<stop offset="0.07" stop-color="#D8D8D8"/>
<stop offset="0.16" stop-color="#A5A5A5"/>
<stop offset="0.26" stop-color="#797979"/>
<stop offset="0.37" stop-color="#545454"/>
<stop offset="0.47" stop-color="#353535"/>
<stop offset="0.59" stop-color="#1D1D1D"/>
<stop offset="0.7" stop-color="#0D0D0D"/>
<stop offset="0.84" stop-color="#030303"/>
<stop offset="1"/>
</radialGradient>
<radialGradient id="paint28_radial_87_2" cx="0" cy="0" r="1" gradientUnits="userSpaceOnUse" gradientTransform="translate(131.321 149.72) rotate(96.7744) scale(10.1852 2.46235)">
<stop stop-color="#4916A1"/>
<stop offset="0.07" stop-color="#3E128A"/>
<stop offset="0.22" stop-color="#2B0D60"/>
<stop offset="0.37" stop-color="#1B083D"/>
<stop offset="0.52" stop-color="#0F0422"/>
<stop offset="0.68" stop-color="#06020F"/>
<stop offset="0.83" stop-color="#010003"/>
<stop offset="1"/>
</radialGradient>
<radialGradient id="paint29_radial_87_2" cx="0" cy="0" r="1" gradientUnits="userSpaceOnUse" gradientTransform="translate(185.937 141.008) rotate(96.7744) scale(10.1942 2.46454)">
<stop stop-color="#4916A1"/>
<stop offset="0.07" stop-color="#3E128A"/>
<stop offset="0.22" stop-color="#2B0D60"/>
<stop offset="0.37" stop-color="#1B083D"/>
<stop offset="0.52" stop-color="#0F0422"/>
<stop offset="0.68" stop-color="#06020F"/>
<stop offset="0.83" stop-color="#010003"/>
<stop offset="1"/>
</radialGradient>
<linearGradient id="paint30_linear_87_2" x1="134.016" y1="172.446" x2="47.826" y2="205.616" gradientUnits="userSpaceOnUse">
<stop offset="0.04" stop-color="#9F19AB"/>
<stop offset="0.24" stop-color="#AE24B0"/>
<stop offset="0.65" stop-color="#D643BF"/>
<stop offset="1" stop-color="#FF63CE"/>
</linearGradient>
<linearGradient id="paint31_linear_87_2" x1="66.0813" y1="171.152" x2="114.85" y2="205.935" gradientUnits="userSpaceOnUse">
<stop offset="0.04" stop-color="#A39CFF"/>
<stop offset="0.285295" stop-color="#BEB9FF"/>
<stop offset="0.65" stop-color="#D7D3FF"/>
<stop offset="1" stop-color="#EAE9FF"/>
</linearGradient>
<linearGradient id="paint32_linear_87_2" x1="85.847" y1="179.872" x2="106.153" y2="172.057" gradientUnits="userSpaceOnUse">
<stop stop-color="#A39CFF"/>
<stop offset="0.4" stop-color="#BEB9FF"/>
<stop offset="0.63" stop-color="#D7D3FF"/>
<stop offset="0.87" stop-color="#EAE9FF"/>
</linearGradient>
<linearGradient id="paint33_linear_87_2" x1="77.3792" y1="203.987" x2="74.1962" y2="242.928" gradientUnits="userSpaceOnUse">
<stop offset="0.04" stop-color="#9F19AB"/>
<stop offset="0.24" stop-color="#AE24B0"/>
<stop offset="0.65" stop-color="#D643BF"/>
<stop offset="1" stop-color="#FF63CE"/>
</linearGradient>
<linearGradient id="paint34_linear_87_2" x1="91.9101" y1="215.828" x2="-13.5578" y2="223.904" gradientUnits="userSpaceOnUse">
<stop offset="0.04" stop-color="#A39CFF"/>
<stop offset="0.24" stop-color="#BEB9FF"/>
<stop offset="0.65" stop-color="#D7D3FF"/>
<stop offset="1" stop-color="#EAE9FF"/>
</linearGradient>
<linearGradient id="paint35_linear_87_2" x1="158.411" y1="178.559" x2="99.3653" y2="187.292" gradientUnits="userSpaceOnUse">
<stop offset="0.04" stop-color="#A39CFF"/>
<stop offset="0.24" stop-color="#BEB9FF"/>
<stop offset="0.65" stop-color="#D7D3FF"/>
<stop offset="1" stop-color="#EAE9FF"/>
</linearGradient>
<linearGradient id="paint36_linear_87_2" x1="125.331" y1="211.056" x2="89.7008" y2="216.324" gradientUnits="userSpaceOnUse">
<stop offset="0.04" stop-color="#A39CFF"/>
<stop offset="0.24" stop-color="#BEB9FF"/>
<stop offset="0.65" stop-color="#D7D3FF"/>
<stop offset="1" stop-color="#EAE9FF"/>
</linearGradient>
<linearGradient id="paint37_linear_87_2" x1="126.211" y1="207.973" x2="123.031" y2="246.922" gradientUnits="userSpaceOnUse">
<stop offset="0.04" stop-color="#9F19AB"/>
<stop offset="0.24" stop-color="#AE24B0"/>
<stop offset="0.65" stop-color="#D643BF"/>
<stop offset="1" stop-color="#FF63CE"/>
</linearGradient>
<linearGradient id="paint38_linear_87_2" x1="115.129" y1="209.12" x2="138.201" y2="200.241" gradientUnits="userSpaceOnUse">
<stop stop-color="#A39CFF"/>
<stop offset="0.17" stop-color="#A39CFF"/>
<stop offset="0.49" stop-color="#BEB9FF"/>
<stop offset="0.77" stop-color="#D7D3FF"/>
<stop offset="0.92" stop-color="#A39CFF"/>
</linearGradient>
<radialGradient id="paint39_radial_87_2" cx="0" cy="0" r="1" gradientUnits="userSpaceOnUse" gradientTransform="translate(124.318 181.61) rotate(158.951) scale(9.99564 9.99565)">
<stop stop-color="white"/>
<stop offset="0.07" stop-color="#D8D8D8"/>
<stop offset="0.16" stop-color="#A5A5A5"/>
<stop offset="0.26" stop-color="#797979"/>
<stop offset="0.37" stop-color="#545454"/>
<stop offset="0.47" stop-color="#353535"/>
<stop offset="0.59" stop-color="#1D1D1D"/>
<stop offset="0.7" stop-color="#0D0D0D"/>
<stop offset="0.84" stop-color="#030303"/>
<stop offset="1"/>
</radialGradient>
<radialGradient id="paint40_radial_87_2" cx="0" cy="0" r="1" gradientUnits="userSpaceOnUse" gradientTransform="translate(92.7547 171.581) rotate(158.951) scale(7.19331 7.19329)">
<stop stop-color="white"/>
<stop offset="0.07" stop-color="#D8D8D8"/>
<stop offset="0.16" stop-color="#A5A5A5"/>
<stop offset="0.26" stop-color="#797979"/>
<stop offset="0.37" stop-color="#545454"/>
<stop offset="0.47" stop-color="#353535"/>
<stop offset="0.59" stop-color="#1D1D1D"/>
<stop offset="0.7" stop-color="#0D0D0D"/>
<stop offset="0.84" stop-color="#030303"/>
<stop offset="1"/>
</radialGradient>
<radialGradient id="paint41_radial_87_2" cx="0" cy="0" r="1" gradientUnits="userSpaceOnUse" gradientTransform="translate(239.32 156.477) rotate(68.3008) scale(10.3966 2.42252)">
<stop stop-color="#AD3185"/>
<stop offset="0.1" stop-color="#8A276A"/>
<stop offset="0.24" stop-color="#601B4A"/>
<stop offset="0.39" stop-color="#3D112F"/>
<stop offset="0.54" stop-color="#22091A"/>
<stop offset="0.69" stop-color="#0F040B"/>
<stop offset="0.84" stop-color="#030102"/>
<stop offset="1"/>
</radialGradient>
<radialGradient id="paint42_radial_87_2" cx="0" cy="0" r="1" gradientUnits="userSpaceOnUse" gradientTransform="translate(130.876 202.678) rotate(158.951) scale(23.2309 23.2309)">
<stop stop-color="white"/>
<stop offset="0.07" stop-color="#D8D8D8"/>
<stop offset="0.16" stop-color="#A5A5A5"/>
<stop offset="0.26" stop-color="#797979"/>
<stop offset="0.37" stop-color="#545454"/>
<stop offset="0.47" stop-color="#353535"/>
<stop offset="0.59" stop-color="#1D1D1D"/>
<stop offset="0.7" stop-color="#0D0D0D"/>
<stop offset="0.84" stop-color="#030303"/>
<stop offset="1"/>
</radialGradient>
<radialGradient id="paint43_radial_87_2" cx="0" cy="0" r="1" gradientUnits="userSpaceOnUse" gradientTransform="translate(67.863 214.544) rotate(158.951) scale(24.7928 24.7928)">
<stop stop-color="white"/>
<stop offset="0.07" stop-color="#D8D8D8"/>
<stop offset="0.16" stop-color="#A5A5A5"/>
<stop offset="0.26" stop-color="#797979"/>
<stop offset="0.37" stop-color="#545454"/>
<stop offset="0.47" stop-color="#353535"/>
<stop offset="0.59" stop-color="#1D1D1D"/>
<stop offset="0.7" stop-color="#0D0D0D"/>
<stop offset="0.84" stop-color="#030303"/>
<stop offset="1"/>
</radialGradient>
<linearGradient id="paint44_linear_87_2" x1="206.971" y1="251.331" x2="186.242" y2="332.825" gradientUnits="userSpaceOnUse">
<stop stop-color="#FF605C"/>
<stop offset="0.32" stop-color="#FF7F7C"/>
<stop offset="0.641754" stop-color="#FFA8A6"/>
<stop offset="1" stop-color="#FFCFCE"/>
</linearGradient>
<linearGradient id="paint45_linear_87_2" x1="231.002" y1="337.337" x2="129.735" y2="279.351" gradientUnits="userSpaceOnUse">
<stop offset="0.07" stop-color="#FF7F7C"/>
<stop offset="0.334028" stop-color="#FFA8A6"/>
<stop offset="0.416077" stop-color="#FFCFCE"/>
<stop offset="0.529171" stop-color="#FFA8A6"/>
<stop offset="0.584609" stop-color="#FFA8A6"/>
<stop offset="0.67" stop-color="#FF7F7C"/>
<stop offset="0.919455" stop-color="#FF605C"/>
</linearGradient>
<linearGradient id="paint46_linear_87_2" x1="261.227" y1="327.918" x2="215.683" y2="286.279" gradientUnits="userSpaceOnUse">
<stop offset="0.04" stop-color="#FF605C"/>
<stop offset="0.32" stop-color="#FF7F7C"/>
<stop offset="0.86" stop-color="#FFA8A6"/>
<stop offset="1" stop-color="#FFCFCE"/>
</linearGradient>
<linearGradient id="paint47_linear_87_2" x1="184.833" y1="268.48" x2="205.829" y2="280.502" gradientUnits="userSpaceOnUse">
<stop offset="0.04" stop-color="#FFCFCE"/>
<stop offset="0.196798" stop-color="#FFA8A6"/>
<stop offset="0.589333" stop-color="#FF7F7C"/>
<stop offset="0.87" stop-color="#FF605C"/>
</linearGradient>
<radialGradient id="paint48_radial_87_2" cx="0" cy="0" r="1" gradientUnits="userSpaceOnUse" gradientTransform="translate(172.535 261.378) rotate(-150.204) scale(0.0900436 0.0900273)">
<stop stop-color="white"/>
<stop offset="0.07" stop-color="#D8D8D8"/>
<stop offset="0.16" stop-color="#A5A5A5"/>
<stop offset="0.26" stop-color="#797979"/>
<stop offset="0.37" stop-color="#545454"/>
<stop offset="0.47" stop-color="#353535"/>
<stop offset="0.59" stop-color="#1D1D1D"/>
<stop offset="0.7" stop-color="#0D0D0D"/>
<stop offset="0.84" stop-color="#030303"/>
<stop offset="1"/>
</radialGradient>
<radialGradient id="paint49_radial_87_2" cx="0" cy="0" r="1" gradientUnits="userSpaceOnUse" gradientTransform="translate(192.97 268.333) rotate(-150.204) scale(4.73754 4.73753)">
<stop stop-color="white"/>
<stop offset="0.07" stop-color="#D8D8D8"/>
<stop offset="0.16" stop-color="#A5A5A5"/>
<stop offset="0.26" stop-color="#797979"/>
<stop offset="0.37" stop-color="#545454"/>
<stop offset="0.47" stop-color="#353535"/>
<stop offset="0.59" stop-color="#1D1D1D"/>
<stop offset="0.7" stop-color="#0D0D0D"/>
<stop offset="0.84" stop-color="#030303"/>
<stop offset="1"/>
</radialGradient>
<radialGradient id="paint50_radial_87_2" cx="0" cy="0" r="1" gradientUnits="userSpaceOnUse" gradientTransform="translate(241.609 303.64) rotate(-150.204) scale(6.77433 6.77433)">
<stop stop-color="white"/>
<stop offset="0.07" stop-color="#D8D8D8"/>
<stop offset="0.16" stop-color="#A5A5A5"/>
<stop offset="0.26" stop-color="#797979"/>
<stop offset="0.37" stop-color="#545454"/>
<stop offset="0.47" stop-color="#353535"/>
<stop offset="0.59" stop-color="#1D1D1D"/>
<stop offset="0.7" stop-color="#0D0D0D"/>
<stop offset="0.84" stop-color="#030303"/>
<stop offset="1"/>
</radialGradient>
<radialGradient id="paint51_radial_87_2" cx="0" cy="0" r="1" gradientUnits="userSpaceOnUse" gradientTransform="translate(199.566 311.323) rotate(-150.204) scale(43.538 43.538)">
<stop stop-color="white"/>
<stop offset="0.07" stop-color="#D8D8D8"/>
<stop offset="0.16" stop-color="#A5A5A5"/>
<stop offset="0.26" stop-color="#797979"/>
<stop offset="0.37" stop-color="#545454"/>
<stop offset="0.47" stop-color="#353535"/>
<stop offset="0.59" stop-color="#1D1D1D"/>
<stop offset="0.7" stop-color="#0D0D0D"/>
<stop offset="0.84" stop-color="#030303"/>
<stop offset="1"/>
</radialGradient>
<radialGradient id="paint52_radial_87_2" cx="0" cy="0" r="1" gradientUnits="userSpaceOnUse" gradientTransform="translate(175.619 322.936) rotate(119.146) scale(13.3987 1.86958)">
<stop stop-color="#972A74"/>
<stop offset="0.04" stop-color="#8A266A"/>
<stop offset="0.19" stop-color="#601A49"/>
<stop offset="0.35" stop-color="#3D112F"/>
<stop offset="0.51" stop-color="#22091A"/>
<stop offset="0.67" stop-color="#0F040B"/>
<stop offset="0.83" stop-color="#030102"/>
<stop offset="1"/>
</radialGradient>
<radialGradient id="paint53_radial_87_2" cx="0" cy="0" r="1" gradientUnits="userSpaceOnUse" gradientTransform="translate(255.914 311.322) rotate(119.146) scale(9.55563 1.8696)">
<stop stop-color="#972A74"/>
<stop offset="0.04" stop-color="#8A266A"/>
<stop offset="0.19" stop-color="#601A49"/>
<stop offset="0.35" stop-color="#3D112F"/>
<stop offset="0.51" stop-color="#22091A"/>
<stop offset="0.67" stop-color="#0F040B"/>
<stop offset="0.83" stop-color="#030102"/>
<stop offset="1"/>
</radialGradient>
<radialGradient id="paint54_radial_87_2" cx="0" cy="0" r="1" gradientUnits="userSpaceOnUse" gradientTransform="translate(161.479 313.157) rotate(-127.854) scale(9.2221 11.705)">
<stop stop-color="#972A74"/>
<stop offset="0.04" stop-color="#8A266A"/>
<stop offset="0.19" stop-color="#601A49"/>
<stop offset="0.35" stop-color="#3D112F"/>
<stop offset="0.51" stop-color="#22091A"/>
<stop offset="0.67" stop-color="#0F040B"/>
<stop offset="0.83" stop-color="#030102"/>
<stop offset="1"/>
</radialGradient>
</defs>
</svg>
