<svg width="71" height="31" viewBox="0 0 71 31" fill="none" xmlns="http://www.w3.org/2000/svg">
<path d="M18.6678 6.78555H12.6303L6.59273 15.3818L9.16043 0H4.02503L0 24.1111H5.13539L6.57886 15.4639L12.0751 24.1111H18.2514L12.4235 15.3271L18.6678 6.78555Z" fill="white"/>
<path d="M48.6481 6.44116C46.3833 6.44116 44.6775 7.23889 43.233 8.63699L43.1571 8.62356L42.9575 6.75116H38.3079V31H43.3739V22.8549L43.5074 22.8277C44.8007 23.868 46.5051 24.4556 48.4398 24.4556C53.1936 24.4556 56.8023 20.9422 56.8023 15.3623C56.8023 9.88562 53.3671 6.44116 48.6481 6.44116ZM47.5377 19.9434C45.0047 19.9434 43.3739 18.1867 43.3739 15.4311C43.3739 12.71 45.0047 10.9534 47.5377 10.9534C50.0707 10.9534 51.7015 12.71 51.7015 15.4311C51.7015 18.1867 50.0707 19.9434 47.5377 19.9434Z" fill="white"/>
<path d="M26.9953 6.44116C21.6864 6.44116 18.0083 10.23 18.0083 15.4311C18.0083 20.7011 21.7558 24.4556 27.0647 24.4556C31.5408 24.4556 34.5942 21.7689 35.4964 18.7379H30.4652C29.7712 19.7367 28.6609 20.1845 27.3076 20.1845C25.0893 20.1845 23.5074 18.989 22.9845 16.9811H35.8434C36.5027 11.16 32.9287 6.44116 26.9953 6.44116ZM26.9259 10.7123C28.7691 10.7123 30.1338 11.7325 30.7035 13.5367H23.0795C23.6535 11.7784 25.0608 10.7123 26.9259 10.7123Z" fill="white"/>
<path d="M66.0449 11.608H70.0907L70.8541 6.78571H66.8561L67.7659 1.37793H62.6306L61.7263 6.78571H58.8831L58.085 11.608H60.9195L59.6811 19.0135C59.1259 22.4235 60.3751 24.1112 64.4001 24.1112H68.1129L68.8762 19.2891H65.9616C65.0594 19.2891 64.8166 18.9791 64.9553 18.0835L66.0449 11.608Z" fill="white"/>
</svg>
