<svg width="234" height="163" viewBox="0 0 234 163" fill="none" xmlns="http://www.w3.org/2000/svg">
<g filter="url(#filter0_d_2001_4)">
<g filter="url(#filter1_i_2001_4)">
<path d="M187 111.562C187 108.49 184.51 106 181.438 106H173.562C170.49 106 168 108.49 168 111.562V145.7C168 148.225 169.701 150.433 172.142 151.078L180.018 153.157C183.546 154.088 187 151.428 187 147.779V111.562Z" fill="url(#paint0_radial_2001_4)"/>
</g>
<g filter="url(#filter2_i_2001_4)">
<path d="M210 118.562C210 115.49 207.51 113 204.438 113H196.562C193.49 113 191 115.49 191 118.562V152.7C191 155.225 192.701 157.433 195.142 158.078L203.018 160.157C206.546 161.088 210 158.428 210 154.779V118.562Z" fill="url(#paint1_radial_2001_4)"/>
</g>
<g filter="url(#filter3_i_2001_4)">
<path d="M157.353 67.6799C161.222 69.6126 165.862 68.7159 168.833 65.5726L169.398 64.9752C173.846 60.2697 172.756 52.6492 167.168 49.3785L148.394 38.3898C145.791 36.8662 144.009 34.2553 143.538 31.276L143.403 30.4251C142.131 22.3715 132.31 19.0959 126.458 24.7731L126.017 25.2005C124.39 26.7792 123.327 28.8582 123.3 31.1254C123.242 36.1287 124.039 45.3651 130.046 51.0431C135.837 56.5165 149.269 63.6426 157.353 67.6799Z" fill="url(#paint2_radial_2001_4)"/>
</g>
<g filter="url(#filter4_ii_2001_4)">
<path d="M219 72.5C219 55.6553 205.345 42 188.5 42C171.655 42 158 55.6553 158 72.5V105.417C158 110.593 161.882 114.945 167.024 115.535L206.947 120.117C213.369 120.854 219 115.832 219 109.368V72.5Z" fill="url(#paint3_radial_2001_4)"/>
<path d="M219 72.5C219 55.6553 205.345 42 188.5 42C171.655 42 158 55.6553 158 72.5V105.417C158 110.593 161.882 114.945 167.024 115.535L206.947 120.117C213.369 120.854 219 115.832 219 109.368V72.5Z" fill="url(#paint4_radial_2001_4)"/>
</g>
<path d="M198 122V155" stroke="url(#paint5_linear_2001_4)" stroke-width="14"/>
<path d="M175 119V150" stroke="url(#paint6_linear_2001_4)" stroke-width="13"/>
<g filter="url(#filter5_ii_2001_4)">
<circle cx="22.5" cy="22.5" r="22.5" transform="matrix(-1 0 0 1 211 0)" fill="url(#paint7_radial_2001_4)"/>
</g>
<path opacity="0.4" d="M205 122L205 155" stroke="url(#paint8_linear_2001_4)"/>
<path opacity="0.5" d="M181 118L181 151" stroke="url(#paint9_linear_2001_4)"/>
<path d="M138.333 41C138.333 41 143.964 44.9616 148 47.5C152.036 50.0384 159 54 159 54" stroke="url(#paint10_linear_2001_4)"/>
<path d="M128.018 34.5C131.088 44.0331 133.119 45.4152 137.211 48.6788C144.796 54.7276 155.754 59.3352 164.734 64.7102" stroke="url(#paint11_linear_2001_4)" stroke-width="13" stroke-linecap="round" stroke-linejoin="round"/>
<path d="M205 71.5C205 58.5213 194.479 48 181.5 48C168.521 48 158 58.5213 158 71.5V105.741C158 110.581 161.723 114.608 166.549 114.986L194.673 117.19C200.241 117.627 205 113.226 205 107.641V71.5Z" fill="url(#paint12_linear_2001_4)"/>
<path opacity="0.5" d="M205 82L205 118" stroke="url(#paint13_linear_2001_4)"/>
<g filter="url(#filter6_i_2001_4)">
<rect width="21" height="60" rx="10.0626" transform="matrix(0.951018 -0.309136 -0.309136 -0.951018 212.212 113.484)" fill="url(#paint14_radial_2001_4)"/>
</g>
<path d="M202.025 59.244L217.413 106.465" stroke="url(#paint15_linear_2001_4)" stroke-width="14.5"/>
<path d="M209.056 58.9293L223.957 103.617" stroke="url(#paint16_linear_2001_4)"/>
<ellipse cx="18" cy="20.5" rx="18" ry="20.5" transform="matrix(-1 0 0 1 202 2)" fill="url(#paint17_radial_2001_4)"/>
<path opacity="0.8" d="M184 43C193.941 43 202 33.8218 202 22.5C202 11.1782 193.941 2 184 2" stroke="url(#paint18_linear_2001_4)" stroke-width="0.5"/>
<path d="M165.269 99.7393L165.269 90L165.269 82.8156L165.269 71.2582L173.5 71.2582L177 71.2582L185 71.3469L185 83.5009L194.25 83.7452L202.042 83.9521L201.5 102L185.052 101.001L165.269 99.7393Z" stroke="url(#paint19_linear_2001_4)"/>
</g>
<g filter="url(#filter7_d_2001_4)">
<g filter="url(#filter8_i_2001_4)">
<path d="M89.8034 68.3811C85.9339 70.3137 81.2939 69.4171 78.3228 66.2737L77.7581 65.6763C73.3104 60.9709 74.3998 53.3504 79.9878 50.0797L98.7619 39.091C101.365 37.5674 103.147 34.9564 103.618 31.9772L103.753 31.1263C105.025 23.0727 114.846 19.7971 120.698 25.4743L121.139 25.9017C122.766 27.4804 123.829 29.5594 123.856 31.8265C123.914 36.8298 123.117 46.0663 117.11 51.7443C111.319 57.2177 97.887 64.3438 89.8034 68.3811Z" fill="url(#paint20_radial_2001_4)"/>
</g>
<path d="M106.449 44L88.4487 54.553" stroke="url(#paint21_linear_2001_4)"/>
<g filter="url(#filter9_i_2001_4)">
<path d="M66.4487 119.562C66.4487 116.49 68.939 114 72.0109 114H79.8865C82.9584 114 85.4487 116.49 85.4487 119.562V153.7C85.4487 156.225 83.7477 158.433 81.3062 159.078L73.4306 161.157C69.9027 162.088 66.4487 159.428 66.4487 155.779V119.562Z" fill="#D9D9D9"/>
<path d="M66.4487 119.562C66.4487 116.49 68.939 114 72.0109 114H79.8865C82.9584 114 85.4487 116.49 85.4487 119.562V153.7C85.4487 156.225 83.7477 158.433 81.3062 159.078L73.4306 161.157C69.9027 162.088 66.4487 159.428 66.4487 155.779V119.562Z" fill="url(#paint22_radial_2001_4)"/>
</g>
<path opacity="0.5" d="M73.4487 126L73.4487 155" stroke="url(#paint23_linear_2001_4)"/>
<g filter="url(#filter10_i_2001_4)">
<path d="M41.6214 112.187C43.0676 109.402 46.5303 108.364 49.2701 109.895L57.3042 114.382C59.8381 115.797 60.856 118.917 59.5821 121.525C57.1016 126.603 52.9771 134.67 49.5595 139.522C46.1195 144.406 40.317 150.297 36.6968 153.803C34.8245 155.617 31.9402 155.797 29.8092 154.296L22.4567 149.118C19.7024 147.178 19.2912 143.255 21.5834 140.786L32.8414 128.661C33.1818 128.294 33.4712 127.884 33.7017 127.44L41.6214 112.187Z" fill="#D9D9D9"/>
<path d="M41.6214 112.187C43.0676 109.402 46.5303 108.364 49.2701 109.895L57.3042 114.382C59.8381 115.797 60.856 118.917 59.5821 121.525C57.1016 126.603 52.9771 134.67 49.5595 139.522C46.1195 144.406 40.317 150.297 36.6968 153.803C34.8245 155.617 31.9402 155.797 29.8092 154.296L22.4567 149.118C19.7024 147.178 19.2912 143.255 21.5834 140.786L32.8414 128.661C33.1818 128.294 33.4712 127.884 33.7017 127.44L41.6214 112.187Z" fill="url(#paint24_radial_2001_4)"/>
</g>
<g filter="url(#filter11_i_2001_4)">
<path d="M32.4487 74.5C32.4487 57.6553 46.104 44 62.9487 44C79.7934 44 93.4487 57.6553 93.4487 74.5V110.345C93.4487 116.23 88.6783 121 82.7938 121H43.1037C37.2191 121 32.4487 116.23 32.4487 110.345V74.5Z" fill="url(#paint25_radial_2001_4)"/>
<path d="M32.4487 74.5C32.4487 57.6553 46.104 44 62.9487 44C79.7934 44 93.4487 57.6553 93.4487 74.5V110.345C93.4487 116.23 88.6783 121 82.7938 121H43.1037C37.2191 121 32.4487 116.23 32.4487 110.345V74.5Z" fill="url(#paint26_radial_2001_4)"/>
</g>
<g filter="url(#filter12_i_2001_4)">
<path d="M32.4487 74.5C32.4487 57.6553 46.104 44 62.9487 44C79.7934 44 93.4487 57.6553 93.4487 74.5V110.345C93.4487 116.23 88.6783 121 82.7938 121H43.1037C37.2191 121 32.4487 116.23 32.4487 110.345V74.5Z" fill="url(#paint27_radial_2001_4)"/>
<path d="M32.4487 74.5C32.4487 57.6553 46.104 44 62.9487 44C79.7934 44 93.4487 57.6553 93.4487 74.5V110.345C93.4487 116.23 88.6783 121 82.7938 121H43.1037C37.2191 121 32.4487 116.23 32.4487 110.345V74.5Z" fill="url(#paint28_radial_2001_4)"/>
</g>
<path d="M47.4487 74C47.4487 61.2975 57.7462 51 70.4487 51C83.1513 51 93.4487 61.2975 93.4487 74V111.314C93.4487 116.663 89.112 121 83.7624 121H57.1351C51.7855 121 47.4487 116.663 47.4487 111.314V74Z" fill="url(#paint29_linear_2001_4)"/>
<g filter="url(#filter13_i_2001_4)">
<rect x="12.4517" y="103.363" width="20" height="60" rx="10" transform="rotate(-128.505 12.4517 103.363)" fill="url(#paint30_radial_2001_4)"/>
</g>
<g filter="url(#filter14_ii_2001_4)">
<circle cx="62.9487" cy="24.5" r="22.5" fill="url(#paint31_radial_2001_4)"/>
</g>
<ellipse cx="67.4487" cy="24.5" rx="18" ry="20.5" fill="url(#paint32_radial_2001_4)"/>
<path d="M79.4486 126V151" stroke="url(#paint33_linear_2001_4)" stroke-width="12"/>
<path opacity="0.4" d="M117.449 31.5C116.949 39.5 117.449 47 102.262 53.9694C87.0759 60.9387 89.6068 60.9601 89.6068 60.9601" stroke="url(#paint34_linear_2001_4)" stroke-width="13" stroke-linecap="round"/>
<path opacity="0.7" d="M47.4486 67L16.4486 92" stroke="url(#paint35_linear_2001_4)" stroke-width="13" stroke-linecap="round"/>
<path d="M42.4663 63L15.4486 84.4545" stroke="url(#paint36_linear_2001_4)"/>
<path d="M51.4487 125C51.4487 125 47.1354 133.168 43.4487 138C39.5235 143.144 31.938 150.364 31.938 150.364" stroke="url(#paint37_linear_2001_4)" stroke-width="12"/>
<path opacity="0.5" d="M42.4487 122.5C42.4487 122.5 39.3386 127.031 35.5386 131.688C31.9268 136.115 25.6369 142.343 25.6369 142.343" stroke="url(#paint38_linear_2001_4)"/>
<path opacity="0.8" d="M67.4487 45C57.5076 45 49.4487 35.8218 49.4487 24.5C49.4487 13.1782 57.5076 4 67.4487 4" stroke="url(#paint39_linear_2001_4)"/>
<path opacity="0.5" d="M47.4487 83L47.4487 118" stroke="url(#paint40_linear_2001_4)"/>
<path d="M81.4486 74.601V67H71.0004H63.7776V77.9323V85.5H54.9102H48.4486V103.539C48.4486 103.695 48.4539 103.85 48.4593 104H63.1815H81.4486V92.7623V74.5" stroke="url(#paint41_linear_2001_4)"/>
</g>
<defs>
<filter id="filter0_d_2001_4" x="121.517" y="0" width="112.051" height="161.344" filterUnits="userSpaceOnUse" color-interpolation-filters="sRGB">
<feFlood flood-opacity="0" result="BackgroundImageFix"/>
<feColorMatrix in="SourceAlpha" type="matrix" values="0 0 0 0 0 0 0 0 0 0 0 0 0 0 0 0 0 0 127 0" result="hardAlpha"/>
<feOffset dx="4" dy="1"/>
<feComposite in2="hardAlpha" operator="out"/>
<feColorMatrix type="matrix" values="0 0 0 0 0.0726042 0 0 0 0 0.170833 0 0 0 0 0.170833 0 0 0 0.25 0"/>
<feBlend mode="normal" in2="BackgroundImageFix" result="effect1_dropShadow_2001_4"/>
<feBlend mode="normal" in="SourceGraphic" in2="effect1_dropShadow_2001_4" result="shape"/>
</filter>
<filter id="filter1_i_2001_4" x="162" y="106" width="25" height="54.6441" filterUnits="userSpaceOnUse" color-interpolation-filters="sRGB">
<feFlood flood-opacity="0" result="BackgroundImageFix"/>
<feBlend mode="normal" in="SourceGraphic" in2="BackgroundImageFix" result="shape"/>
<feColorMatrix in="SourceAlpha" type="matrix" values="0 0 0 0 0 0 0 0 0 0 0 0 0 0 0 0 0 0 127 0" result="hardAlpha"/>
<feOffset dx="-6" dy="15"/>
<feGaussianBlur stdDeviation="3.65"/>
<feComposite in2="hardAlpha" operator="arithmetic" k2="-1" k3="1"/>
<feColorMatrix type="matrix" values="0 0 0 0 0 0 0 0 0 0.4 0 0 0 0 0.4 0 0 0 1 0"/>
<feBlend mode="normal" in2="shape" result="effect1_innerShadow_2001_4"/>
</filter>
<filter id="filter2_i_2001_4" x="187" y="113" width="23" height="52.4441" filterUnits="userSpaceOnUse" color-interpolation-filters="sRGB">
<feFlood flood-opacity="0" result="BackgroundImageFix"/>
<feBlend mode="normal" in="SourceGraphic" in2="BackgroundImageFix" result="shape"/>
<feColorMatrix in="SourceAlpha" type="matrix" values="0 0 0 0 0 0 0 0 0 0 0 0 0 0 0 0 0 0 127 0" result="hardAlpha"/>
<feOffset dx="-4" dy="11"/>
<feGaussianBlur stdDeviation="2.55"/>
<feComposite in2="hardAlpha" operator="arithmetic" k2="-1" k3="1"/>
<feColorMatrix type="matrix" values="0 0 0 0 0 0 0 0 0 0.4 0 0 0 0 0.4 0 0 0 1 0"/>
<feBlend mode="normal" in2="shape" result="effect1_innerShadow_2001_4"/>
</filter>
<filter id="filter3_i_2001_4" x="123.297" y="21.9226" width="50.8515" height="46.772" filterUnits="userSpaceOnUse" color-interpolation-filters="sRGB">
<feFlood flood-opacity="0" result="BackgroundImageFix"/>
<feBlend mode="normal" in="SourceGraphic" in2="BackgroundImageFix" result="shape"/>
<feColorMatrix in="SourceAlpha" type="matrix" values="0 0 0 0 0 0 0 0 0 0 0 0 0 0 0 0 0 0 127 0" result="hardAlpha"/>
<feOffset dx="2"/>
<feGaussianBlur stdDeviation="2.65"/>
<feComposite in2="hardAlpha" operator="arithmetic" k2="-1" k3="1"/>
<feColorMatrix type="matrix" values="0 0 0 0 0 0 0 0 0 0.4 0 0 0 0 0.4 0 0 0 1 0"/>
<feBlend mode="normal" in2="shape" result="effect1_innerShadow_2001_4"/>
</filter>
<filter id="filter4_ii_2001_4" x="143.5" y="42" width="81.5" height="80.1888" filterUnits="userSpaceOnUse" color-interpolation-filters="sRGB">
<feFlood flood-opacity="0" result="BackgroundImageFix"/>
<feBlend mode="normal" in="SourceGraphic" in2="BackgroundImageFix" result="shape"/>
<feColorMatrix in="SourceAlpha" type="matrix" values="0 0 0 0 0 0 0 0 0 0 0 0 0 0 0 0 0 0 127 0" result="hardAlpha"/>
<feOffset dx="-21" dy="2"/>
<feGaussianBlur stdDeviation="7.25"/>
<feComposite in2="hardAlpha" operator="arithmetic" k2="-1" k3="1"/>
<feColorMatrix type="matrix" values="0 0 0 0 0.0705882 0 0 0 0 0.466667 0 0 0 0 0.466667 0 0 0 1 0"/>
<feBlend mode="normal" in2="shape" result="effect1_innerShadow_2001_4"/>
<feColorMatrix in="SourceAlpha" type="matrix" values="0 0 0 0 0 0 0 0 0 0 0 0 0 0 0 0 0 0 127 0" result="hardAlpha"/>
<feOffset dx="6"/>
<feGaussianBlur stdDeviation="5.15"/>
<feComposite in2="hardAlpha" operator="arithmetic" k2="-1" k3="1"/>
<feColorMatrix type="matrix" values="0 0 0 0 1 0 0 0 0 1 0 0 0 0 1 0 0 0 0.25 0"/>
<feBlend mode="normal" in2="effect1_innerShadow_2001_4" result="effect2_innerShadow_2001_4"/>
</filter>
<filter id="filter5_ii_2001_4" x="162" y="-1" width="49" height="46" filterUnits="userSpaceOnUse" color-interpolation-filters="sRGB">
<feFlood flood-opacity="0" result="BackgroundImageFix"/>
<feBlend mode="normal" in="SourceGraphic" in2="BackgroundImageFix" result="shape"/>
<feColorMatrix in="SourceAlpha" type="matrix" values="0 0 0 0 0 0 0 0 0 0 0 0 0 0 0 0 0 0 127 0" result="hardAlpha"/>
<feOffset dx="-2" dy="-1"/>
<feGaussianBlur stdDeviation="3.3"/>
<feComposite in2="hardAlpha" operator="arithmetic" k2="-1" k3="1"/>
<feColorMatrix type="matrix" values="0 0 0 0 1 0 0 0 0 1 0 0 0 0 1 0 0 0 0.62 0"/>
<feBlend mode="normal" in2="shape" result="effect1_innerShadow_2001_4"/>
<feColorMatrix in="SourceAlpha" type="matrix" values="0 0 0 0 0 0 0 0 0 0 0 0 0 0 0 0 0 0 127 0" result="hardAlpha"/>
<feOffset dx="-4" dy="-1"/>
<feGaussianBlur stdDeviation="3.5"/>
<feComposite in2="hardAlpha" operator="arithmetic" k2="-1" k3="1"/>
<feColorMatrix type="matrix" values="0 0 0 0 0 0 0 0 0 0.4 0 0 0 0 0.4 0 0 0 1 0"/>
<feBlend mode="normal" in2="effect1_innerShadow_2001_4" result="effect2_innerShadow_2001_4"/>
</filter>
<filter id="filter6_i_2001_4" x="192.279" y="52.5461" width="37.2893" height="58.3228" filterUnits="userSpaceOnUse" color-interpolation-filters="sRGB">
<feFlood flood-opacity="0" result="BackgroundImageFix"/>
<feBlend mode="normal" in="SourceGraphic" in2="BackgroundImageFix" result="shape"/>
<feColorMatrix in="SourceAlpha" type="matrix" values="0 0 0 0 0 0 0 0 0 0 0 0 0 0 0 0 0 0 127 0" result="hardAlpha"/>
<feOffset dx="-4"/>
<feGaussianBlur stdDeviation="4.15"/>
<feComposite in2="hardAlpha" operator="arithmetic" k2="-1" k3="1"/>
<feColorMatrix type="matrix" values="0 0 0 0 0 0 0 0 0 0.4 0 0 0 0 0.4 0 0 0 1 0"/>
<feBlend mode="normal" in2="shape" result="effect1_innerShadow_2001_4"/>
</filter>
<filter id="filter7_d_2001_4" x="0.0510254" y="2" width="123.898" height="160.344" filterUnits="userSpaceOnUse" color-interpolation-filters="sRGB">
<feFlood flood-opacity="0" result="BackgroundImageFix"/>
<feColorMatrix in="SourceAlpha" type="matrix" values="0 0 0 0 0 0 0 0 0 0 0 0 0 0 0 0 0 0 127 0" result="hardAlpha"/>
<feOffset dx="-4" dy="1"/>
<feComposite in2="hardAlpha" operator="out"/>
<feColorMatrix type="matrix" values="0 0 0 0 0.173941 0 0 0 0 0.0746528 0 0 0 0 0.179167 0 0 0 0.25 0"/>
<feBlend mode="normal" in2="BackgroundImageFix" result="effect1_dropShadow_2001_4"/>
<feBlend mode="normal" in="SourceGraphic" in2="effect1_dropShadow_2001_4" result="shape"/>
</filter>
<filter id="filter8_i_2001_4" x="71.0073" y="22.6238" width="52.8515" height="46.772" filterUnits="userSpaceOnUse" color-interpolation-filters="sRGB">
<feFlood flood-opacity="0" result="BackgroundImageFix"/>
<feBlend mode="normal" in="SourceGraphic" in2="BackgroundImageFix" result="shape"/>
<feColorMatrix in="SourceAlpha" type="matrix" values="0 0 0 0 0 0 0 0 0 0 0 0 0 0 0 0 0 0 127 0" result="hardAlpha"/>
<feOffset dx="-4"/>
<feGaussianBlur stdDeviation="2.65"/>
<feComposite in2="hardAlpha" operator="arithmetic" k2="-1" k3="1"/>
<feColorMatrix type="matrix" values="0 0 0 0 0.439216 0 0 0 0 0.411765 0 0 0 0 0.803922 0 0 0 1 0"/>
<feBlend mode="normal" in2="shape" result="effect1_innerShadow_2001_4"/>
</filter>
<filter id="filter9_i_2001_4" x="66.4487" y="114" width="22" height="54.6441" filterUnits="userSpaceOnUse" color-interpolation-filters="sRGB">
<feFlood flood-opacity="0" result="BackgroundImageFix"/>
<feBlend mode="normal" in="SourceGraphic" in2="BackgroundImageFix" result="shape"/>
<feColorMatrix in="SourceAlpha" type="matrix" values="0 0 0 0 0 0 0 0 0 0 0 0 0 0 0 0 0 0 127 0" result="hardAlpha"/>
<feOffset dx="3" dy="9"/>
<feGaussianBlur stdDeviation="3.65"/>
<feComposite in2="hardAlpha" operator="arithmetic" k2="-1" k3="1"/>
<feColorMatrix type="matrix" values="0 0 0 0 0.458824 0 0 0 0 0.431373 0 0 0 0 0.819608 0 0 0 1 0"/>
<feBlend mode="normal" in2="shape" result="effect1_innerShadow_2001_4"/>
</filter>
<filter id="filter10_i_2001_4" x="18.097" y="109.187" width="42.0341" height="56.0184" filterUnits="userSpaceOnUse" color-interpolation-filters="sRGB">
<feFlood flood-opacity="0" result="BackgroundImageFix"/>
<feBlend mode="normal" in="SourceGraphic" in2="BackgroundImageFix" result="shape"/>
<feColorMatrix in="SourceAlpha" type="matrix" values="0 0 0 0 0 0 0 0 0 0 0 0 0 0 0 0 0 0 127 0" result="hardAlpha"/>
<feOffset dx="-2" dy="13"/>
<feGaussianBlur stdDeviation="4.95"/>
<feComposite in2="hardAlpha" operator="arithmetic" k2="-1" k3="1"/>
<feColorMatrix type="matrix" values="0 0 0 0 0.47451 0 0 0 0 0.435294 0 0 0 0 0.803922 0 0 0 1 0"/>
<feBlend mode="normal" in2="shape" result="effect1_innerShadow_2001_4"/>
</filter>
<filter id="filter11_i_2001_4" x="32.4487" y="44" width="75.5" height="79" filterUnits="userSpaceOnUse" color-interpolation-filters="sRGB">
<feFlood flood-opacity="0" result="BackgroundImageFix"/>
<feBlend mode="normal" in="SourceGraphic" in2="BackgroundImageFix" result="shape"/>
<feColorMatrix in="SourceAlpha" type="matrix" values="0 0 0 0 0 0 0 0 0 0 0 0 0 0 0 0 0 0 127 0" result="hardAlpha"/>
<feOffset dx="18" dy="2"/>
<feGaussianBlur stdDeviation="7.25"/>
<feComposite in2="hardAlpha" operator="arithmetic" k2="-1" k3="1"/>
<feColorMatrix type="matrix" values="0 0 0 0 0.454902 0 0 0 0 0.415686 0 0 0 0 0.788235 0 0 0 1 0"/>
<feBlend mode="normal" in2="shape" result="effect1_innerShadow_2001_4"/>
</filter>
<filter id="filter12_i_2001_4" x="32.4487" y="44" width="75.5" height="79" filterUnits="userSpaceOnUse" color-interpolation-filters="sRGB">
<feFlood flood-opacity="0" result="BackgroundImageFix"/>
<feBlend mode="normal" in="SourceGraphic" in2="BackgroundImageFix" result="shape"/>
<feColorMatrix in="SourceAlpha" type="matrix" values="0 0 0 0 0 0 0 0 0 0 0 0 0 0 0 0 0 0 127 0" result="hardAlpha"/>
<feOffset dx="18" dy="2"/>
<feGaussianBlur stdDeviation="7.25"/>
<feComposite in2="hardAlpha" operator="arithmetic" k2="-1" k3="1"/>
<feColorMatrix type="matrix" values="0 0 0 0 0.454902 0 0 0 0 0.415686 0 0 0 0 0.788235 0 0 0 1 0"/>
<feBlend mode="normal" in2="shape" result="effect1_innerShadow_2001_4"/>
</filter>
<filter id="filter13_i_2001_4" x="4.05103" y="54.4082" width="51.3029" height="51.9041" filterUnits="userSpaceOnUse" color-interpolation-filters="sRGB">
<feFlood flood-opacity="0" result="BackgroundImageFix"/>
<feBlend mode="normal" in="SourceGraphic" in2="BackgroundImageFix" result="shape"/>
<feColorMatrix in="SourceAlpha" type="matrix" values="0 0 0 0 0 0 0 0 0 0 0 0 0 0 0 0 0 0 127 0" result="hardAlpha"/>
<feOffset dy="7"/>
<feGaussianBlur stdDeviation="4.15"/>
<feComposite in2="hardAlpha" operator="arithmetic" k2="-1" k3="1"/>
<feColorMatrix type="matrix" values="0 0 0 0 0.47451 0 0 0 0 0.435294 0 0 0 0 0.807843 0 0 0 1 0"/>
<feBlend mode="normal" in2="shape" result="effect1_innerShadow_2001_4"/>
</filter>
<filter id="filter14_ii_2001_4" x="38.4487" y="1" width="49" height="46" filterUnits="userSpaceOnUse" color-interpolation-filters="sRGB">
<feFlood flood-opacity="0" result="BackgroundImageFix"/>
<feBlend mode="normal" in="SourceGraphic" in2="BackgroundImageFix" result="shape"/>
<feColorMatrix in="SourceAlpha" type="matrix" values="0 0 0 0 0 0 0 0 0 0 0 0 0 0 0 0 0 0 127 0" result="hardAlpha"/>
<feOffset dx="-2" dy="-1"/>
<feGaussianBlur stdDeviation="3.3"/>
<feComposite in2="hardAlpha" operator="arithmetic" k2="-1" k3="1"/>
<feColorMatrix type="matrix" values="0 0 0 0 1 0 0 0 0 1 0 0 0 0 1 0 0 0 0.62 0"/>
<feBlend mode="normal" in2="shape" result="effect1_innerShadow_2001_4"/>
<feColorMatrix in="SourceAlpha" type="matrix" values="0 0 0 0 0 0 0 0 0 0 0 0 0 0 0 0 0 0 127 0" result="hardAlpha"/>
<feOffset dx="2" dy="-1"/>
<feGaussianBlur stdDeviation="5.35"/>
<feComposite in2="hardAlpha" operator="arithmetic" k2="-1" k3="1"/>
<feColorMatrix type="matrix" values="0 0 0 0 0.35646 0 0 0 0 0.327569 0 0 0 0 0.741667 0 0 0 1 0"/>
<feBlend mode="normal" in2="effect1_innerShadow_2001_4" result="effect2_innerShadow_2001_4"/>
</filter>
<radialGradient id="paint0_radial_2001_4" cx="0" cy="0" r="1" gradientUnits="userSpaceOnUse" gradientTransform="translate(188.5 138) rotate(-176.634) scale(17.0294 43.4828)">
<stop stop-color="#12A9A9"/>
<stop offset="1" stop-color="#2ADBDB"/>
</radialGradient>
<radialGradient id="paint1_radial_2001_4" cx="0" cy="0" r="1" gradientUnits="userSpaceOnUse" gradientTransform="translate(195.5 140) rotate(-17.7447) scale(26.2488 67.0236)">
<stop stop-color="#2ADBDB"/>
<stop offset="1" stop-color="#12A9A9"/>
</radialGradient>
<radialGradient id="paint2_radial_2001_4" cx="0" cy="0" r="1" gradientUnits="userSpaceOnUse" gradientTransform="translate(147.398 28.7065) rotate(99.9161) scale(33.7487 54.5228)">
<stop stop-color="#CFFFF0"/>
<stop offset="1" stop-color="#2ADBDB"/>
</radialGradient>
<radialGradient id="paint3_radial_2001_4" cx="0" cy="0" r="1" gradientUnits="userSpaceOnUse" gradientTransform="translate(134 131.5) rotate(-50.1944) scale(113.249 137.69)">
<stop stop-color="#00DD99" stop-opacity="0"/>
<stop offset="1" stop-color="#00DD99"/>
</radialGradient>
<radialGradient id="paint4_radial_2001_4" cx="0" cy="0" r="1" gradientUnits="userSpaceOnUse" gradientTransform="translate(236.5 128.5) rotate(-147.94) scale(112.095 136.287)">
<stop stop-color="#2ADBDB"/>
<stop offset="0.343736" stop-color="#2ADBDB"/>
</radialGradient>
<linearGradient id="paint5_linear_2001_4" x1="36919.1" y1="154.214" x2="36919.1" y2="122" gradientUnits="userSpaceOnUse">
<stop stop-color="white" stop-opacity="0"/>
<stop offset="0.516961" stop-color="white" stop-opacity="0.55"/>
<stop offset="1" stop-color="white" stop-opacity="0"/>
</linearGradient>
<linearGradient id="paint6_linear_2001_4" x1="36896.1" y1="149.262" x2="36896.1" y2="119" gradientUnits="userSpaceOnUse">
<stop stop-color="white" stop-opacity="0"/>
<stop offset="0.516961" stop-color="white" stop-opacity="0.55"/>
<stop offset="1" stop-color="white" stop-opacity="0"/>
</linearGradient>
<radialGradient id="paint7_radial_2001_4" cx="0" cy="0" r="1" gradientUnits="userSpaceOnUse" gradientTransform="translate(31 19.5) rotate(-175.389) scale(31.1006)">
<stop stop-color="#CFFFF0"/>
<stop offset="1" stop-color="#2ADBDB"/>
</radialGradient>
<linearGradient id="paint8_linear_2001_4" x1="205.5" y1="122" x2="205.5" y2="155" gradientUnits="userSpaceOnUse">
<stop offset="0.0400284" stop-color="white" stop-opacity="0"/>
<stop offset="0.482315" stop-color="white"/>
<stop offset="0.989264" stop-color="white" stop-opacity="0"/>
</linearGradient>
<linearGradient id="paint9_linear_2001_4" x1="181.5" y1="118" x2="181.5" y2="151" gradientUnits="userSpaceOnUse">
<stop offset="0.0400284" stop-color="white" stop-opacity="0"/>
<stop offset="0.482315" stop-color="white"/>
<stop offset="0.989264" stop-color="white" stop-opacity="0"/>
</linearGradient>
<linearGradient id="paint10_linear_2001_4" x1="157.765" y1="52.9842" x2="138.079" y2="41.4312" gradientUnits="userSpaceOnUse">
<stop stop-color="white" stop-opacity="0"/>
<stop offset="0.590304" stop-color="white"/>
<stop offset="1" stop-color="white" stop-opacity="0"/>
</linearGradient>
<linearGradient id="paint11_linear_2001_4" x1="168.948" y1="69.0931" x2="120.288" y2="39.1854" gradientUnits="userSpaceOnUse">
<stop offset="0.023114" stop-color="white" stop-opacity="0"/>
<stop offset="0.217156" stop-color="white" stop-opacity="0.0916736"/>
<stop offset="0.516961" stop-color="white" stop-opacity="0.42"/>
<stop offset="0.788823" stop-color="white" stop-opacity="0.0650636"/>
<stop offset="1" stop-color="white" stop-opacity="0"/>
</linearGradient>
<linearGradient id="paint12_linear_2001_4" x1="181.5" y1="53.3472" x2="202.5" y2="113.5" gradientUnits="userSpaceOnUse">
<stop stop-color="white" stop-opacity="0"/>
<stop offset="0.523014" stop-color="white" stop-opacity="0.6"/>
<stop offset="1" stop-color="white" stop-opacity="0"/>
</linearGradient>
<linearGradient id="paint13_linear_2001_4" x1="204.5" y1="82" x2="204.5" y2="118" gradientUnits="userSpaceOnUse">
<stop offset="0.0400284" stop-color="white" stop-opacity="0"/>
<stop offset="0.482315" stop-color="white"/>
<stop offset="0.953724" stop-color="white" stop-opacity="0"/>
</linearGradient>
<radialGradient id="paint14_radial_2001_4" cx="0" cy="0" r="1" gradientUnits="userSpaceOnUse" gradientTransform="translate(11.0602 31.697) rotate(11.5701) scale(25.3493 69.2049)">
<stop stop-color="#CFFFF0"/>
<stop offset="1" stop-color="#2ADBDB"/>
</radialGradient>
<linearGradient id="paint15_linear_2001_4" x1="220.427" y1="104.069" x2="206.935" y2="59.7086" gradientUnits="userSpaceOnUse">
<stop stop-color="white" stop-opacity="0"/>
<stop offset="0.516961" stop-color="white" stop-opacity="0.8"/>
<stop offset="1" stop-color="white" stop-opacity="0"/>
</linearGradient>
<linearGradient id="paint16_linear_2001_4" x1="225.216" y1="104.232" x2="209.402" y2="58.2968" gradientUnits="userSpaceOnUse">
<stop stop-color="white" stop-opacity="0"/>
<stop offset="0.590304" stop-color="white"/>
<stop offset="1" stop-color="white" stop-opacity="0"/>
</linearGradient>
<radialGradient id="paint17_radial_2001_4" cx="0" cy="0" r="1" gradientUnits="userSpaceOnUse" gradientTransform="translate(24.8 17.7667) rotate(-180) scale(22 25.0556)">
<stop stop-color="white"/>
<stop offset="1" stop-color="white" stop-opacity="0"/>
</radialGradient>
<linearGradient id="paint18_linear_2001_4" x1="193" y1="2" x2="193" y2="43" gradientUnits="userSpaceOnUse">
<stop stop-color="white" stop-opacity="0"/>
<stop offset="0.444817" stop-color="white"/>
<stop offset="1" stop-color="white" stop-opacity="0"/>
</linearGradient>
<linearGradient id="paint19_linear_2001_4" x1="168" y1="64.0004" x2="199.79" y2="96.2146" gradientUnits="userSpaceOnUse">
<stop stop-color="white"/>
<stop offset="1" stop-color="white" stop-opacity="0"/>
</linearGradient>
<radialGradient id="paint20_radial_2001_4" cx="0" cy="0" r="1" gradientUnits="userSpaceOnUse" gradientTransform="translate(88.7865 36.407) rotate(52.6875) scale(23.7168 65.8831)">
<stop stop-color="#E4E4EF"/>
<stop offset="1" stop-color="#A39CFF"/>
</radialGradient>
<linearGradient id="paint21_linear_2001_4" x1="88.7016" y1="54.9843" x2="106.701" y2="44.4313" gradientUnits="userSpaceOnUse">
<stop stop-color="white" stop-opacity="0"/>
<stop offset="0.590304" stop-color="white"/>
<stop offset="1" stop-color="white" stop-opacity="0"/>
</linearGradient>
<radialGradient id="paint22_radial_2001_4" cx="0" cy="0" r="1" gradientUnits="userSpaceOnUse" gradientTransform="translate(88.8829 140.791) rotate(-157.682) scale(24.3725 62.2327)">
<stop stop-color="#E4E4EF"/>
<stop offset="1" stop-color="#A39CFF"/>
</radialGradient>
<linearGradient id="paint23_linear_2001_4" x1="73.9487" y1="126" x2="73.9487" y2="155" gradientUnits="userSpaceOnUse">
<stop offset="0.0400284" stop-color="white" stop-opacity="0"/>
<stop offset="0.482315" stop-color="white"/>
<stop offset="0.953724" stop-color="white" stop-opacity="0"/>
</linearGradient>
<radialGradient id="paint24_radial_2001_4" cx="0" cy="0" r="1" gradientUnits="userSpaceOnUse" gradientTransform="translate(54.9547 139.039) rotate(-138.211) scale(27.4532 58.5317)">
<stop stop-color="#E4E4EF"/>
<stop offset="1" stop-color="#A39CFF"/>
</radialGradient>
<radialGradient id="paint25_radial_2001_4" cx="0" cy="0" r="1" gradientUnits="userSpaceOnUse" gradientTransform="translate(85.4487 52) rotate(163.171) scale(84.6242 102.888)">
<stop stop-color="#E4E4EF"/>
<stop offset="1" stop-color="#A39CFF"/>
</radialGradient>
<radialGradient id="paint26_radial_2001_4" cx="0" cy="0" r="1" gradientUnits="userSpaceOnUse" gradientTransform="translate(89.9487 120.5) rotate(-101.113) scale(85.6052 104.08)">
<stop stop-color="#E4E4EF" stop-opacity="0"/>
<stop offset="1" stop-color="#A39CFF"/>
</radialGradient>
<radialGradient id="paint27_radial_2001_4" cx="0" cy="0" r="1" gradientUnits="userSpaceOnUse" gradientTransform="translate(85.4487 52) rotate(163.171) scale(84.6242 102.888)">
<stop stop-color="#E4E4EF"/>
<stop offset="1" stop-color="#A39CFF"/>
</radialGradient>
<radialGradient id="paint28_radial_2001_4" cx="0" cy="0" r="1" gradientUnits="userSpaceOnUse" gradientTransform="translate(89.9487 120.5) rotate(-101.113) scale(85.6052 104.08)">
<stop stop-color="#E4E4EF" stop-opacity="0"/>
<stop offset="1" stop-color="#A39CFF"/>
</radialGradient>
<linearGradient id="paint29_linear_2001_4" x1="70.4487" y1="55.6324" x2="70.4487" y2="115.853" gradientUnits="userSpaceOnUse">
<stop stop-color="white" stop-opacity="0"/>
<stop offset="0.523014" stop-color="white" stop-opacity="0.6"/>
<stop offset="1" stop-color="white" stop-opacity="0"/>
</linearGradient>
<radialGradient id="paint30_radial_2001_4" cx="0" cy="0" r="1" gradientUnits="userSpaceOnUse" gradientTransform="translate(36.0666 136.168) rotate(-154.475) scale(26.3005 74.3339)">
<stop stop-color="#E4E4EF"/>
<stop offset="1" stop-color="#A39CFF"/>
</radialGradient>
<radialGradient id="paint31_radial_2001_4" cx="0" cy="0" r="1" gradientUnits="userSpaceOnUse" gradientTransform="translate(71.4487 21.5) rotate(-175.389) scale(31.1006)">
<stop stop-color="#E4E4EF"/>
<stop offset="1" stop-color="#A39CFF"/>
</radialGradient>
<radialGradient id="paint32_radial_2001_4" cx="0" cy="0" r="1" gradientUnits="userSpaceOnUse" gradientTransform="translate(74.2487 21.7667) rotate(-180) scale(22 25.0556)">
<stop stop-color="white"/>
<stop offset="1" stop-color="white" stop-opacity="0"/>
</radialGradient>
<linearGradient id="paint33_linear_2001_4" x1="36800.6" y1="150.405" x2="36800.6" y2="126" gradientUnits="userSpaceOnUse">
<stop stop-color="white" stop-opacity="0"/>
<stop offset="0.516961" stop-color="white" stop-opacity="0.42"/>
<stop offset="1" stop-color="white" stop-opacity="0"/>
</linearGradient>
<linearGradient id="paint34_linear_2001_4" x1="93.1503" y1="61.4594" x2="106.054" y2="21.1582" gradientUnits="userSpaceOnUse">
<stop stop-color="white" stop-opacity="0"/>
<stop offset="0.536836" stop-color="white"/>
<stop offset="1" stop-color="white" stop-opacity="0"/>
</linearGradient>
<linearGradient id="paint35_linear_2001_4" x1="13.0042" y1="97.5" x2="44.924" y2="60.0003" gradientUnits="userSpaceOnUse">
<stop stop-color="white" stop-opacity="0"/>
<stop offset="0.536836" stop-color="white"/>
<stop offset="1" stop-color="white" stop-opacity="0"/>
</linearGradient>
<linearGradient id="paint36_linear_2001_4" x1="15.7595" y1="84.846" x2="42.7772" y2="63.3916" gradientUnits="userSpaceOnUse">
<stop stop-color="white" stop-opacity="0"/>
<stop offset="0.590304" stop-color="white"/>
<stop offset="1" stop-color="white" stop-opacity="0"/>
</linearGradient>
<linearGradient id="paint37_linear_2001_4" x1="19508.1" y1="15131" x2="19527.1" y2="15106.3" gradientUnits="userSpaceOnUse">
<stop stop-color="white" stop-opacity="0"/>
<stop offset="0.516961" stop-color="white" stop-opacity="0.42"/>
<stop offset="1" stop-color="white" stop-opacity="0"/>
</linearGradient>
<linearGradient id="paint38_linear_2001_4" x1="42.2475" y1="124.83" x2="26.192" y2="142.892" gradientUnits="userSpaceOnUse">
<stop offset="0.0400284" stop-color="white" stop-opacity="0"/>
<stop offset="0.482315" stop-color="white"/>
<stop offset="0.953724" stop-color="white" stop-opacity="0"/>
</linearGradient>
<linearGradient id="paint39_linear_2001_4" x1="58.4487" y1="4" x2="58.4487" y2="45" gradientUnits="userSpaceOnUse">
<stop stop-color="white" stop-opacity="0"/>
<stop offset="0.444817" stop-color="white"/>
<stop offset="1" stop-color="white" stop-opacity="0"/>
</linearGradient>
<linearGradient id="paint40_linear_2001_4" x1="47.9487" y1="83" x2="47.9487" y2="118" gradientUnits="userSpaceOnUse">
<stop offset="0.0400284" stop-color="white" stop-opacity="0"/>
<stop offset="0.482315" stop-color="white"/>
<stop offset="0.953724" stop-color="white" stop-opacity="0"/>
</linearGradient>
<linearGradient id="paint41_linear_2001_4" x1="74.3962" y1="55.5" x2="44.5585" y2="94.8727" gradientUnits="userSpaceOnUse">
<stop stop-color="white"/>
<stop offset="1" stop-color="white" stop-opacity="0"/>
</linearGradient>
</defs>
</svg>
