<svg width="180" height="286" viewBox="0 0 180 286" fill="none" xmlns="http://www.w3.org/2000/svg">
<mask id="mask0_119_1743" style="mask-type:alpha" maskUnits="userSpaceOnUse" x="0" y="0" width="180" height="286">
<path d="M180 160.065V213.991C180 218.954 177.98 223.448 174.73 226.703C171.47 229.959 166.97 231.966 162 231.966V244.948C162 247.704 159.76 249.941 157 249.941L114.5 250C120.64 250 126 255.483 126 261.614C126 265.829 123.77 270.079 120 271.957L97 284.124C92 286.625 88 286.625 83 284.124L61 272.619C56.5 270.618 54 266.329 54 262.115C54 255.112 59.5 249.978 65 250L23 249.941C20.24 249.941 18 247.704 18 244.948V231.953C13.03 231.953 8.38876 229.827 5.27 226.703C2.20997 223.638 0 218.954 0 213.991V160.065C0 150.138 8.06 142 18 142V129.617C18 87.0353 37 45.8716 67.91 18.0402L86.66 1.27325C88.56 -0.424416 91.44 -0.424416 93.34 1.27325L112.09 18.0402C143 46.3718 162 87.0353 162 129.617V142C171.94 142 180 150.138 180 160.065Z" fill="#CAC5F9"/>
</mask>
<g mask="url(#mask0_119_1743)">
<path d="M180 160.065V213.991C180 218.954 177.98 223.448 174.73 226.703C171.47 229.959 166.97 231.966 162 231.966V244.948C162 247.704 159.76 249.941 157 249.941L114.5 250C120.64 250 126 255.483 126 261.614C126 265.829 123.77 270.079 120 271.957L97 284.124C92 286.625 88 286.625 83 284.124L61 272.619C56.5 270.618 54 266.329 54 262.115C54 255.112 59.5 249.978 65 250L23 249.941C20.24 249.941 18 247.704 18 244.948V231.953C13.03 231.953 8.38876 229.827 5.27 226.703C2.20997 223.638 0 218.954 0 213.991V160.065C0 150.138 8.06 142 18 142V129.617C18 87.0353 37 45.8716 67.91 18.0402L86.66 1.27325C88.56 -0.424416 91.44 -0.424416 93.34 1.27325L112.09 18.0402C143 46.3718 162 87.0353 162 129.617V142C171.94 142 180 150.138 180 160.065Z" fill="#CAC5F9"/>
<rect x="36" y="34" width="18" height="18" fill="#CAC5F9" stroke="#E4E4EF"/>
<rect x="72" y="34" width="18" height="18" fill="#CAC5F9" stroke="#E4E4EF"/>
<rect x="90" y="34" width="18" height="18" fill="#CAC5F9" stroke="#E4E4EF"/>
<rect x="108" y="34" width="18" height="18" fill="#CAC5F9" stroke="#E4E4EF"/>
<rect x="126" y="34" width="18" height="18" fill="#CAC5F9" stroke="#E4E4EF"/>
<rect x="162" y="34" width="18" height="18" fill="#CAC5F9" stroke="#E4E4EF"/>
<rect x="144" y="34" width="18" height="18" fill="#CAC5F9" stroke="#E4E4EF"/>
<rect x="180" y="34" width="18" height="18" fill="#CAC5F9" stroke="#E4E4EF"/>
<rect x="72" y="52" width="18" height="18" fill="#CAC5F9" stroke="#E4E4EF"/>
<rect x="36" y="-2" width="18" height="18" fill="#CAC5F9" stroke="#E4E4EF"/>
<rect x="-18" y="34" width="18" height="18" fill="#CAC5F9" stroke="#E4E4EF"/>
<rect x="90" y="52" width="18" height="18" fill="#CAC5F9" stroke="#E4E4EF"/>
<rect x="72" y="-2" width="18" height="18" fill="#CAC5F9" stroke="#E4E4EF"/>
<rect x="54" y="34" width="18" height="18" fill="#CAC5F9" stroke="#E4E4EF"/>
<rect x="90" y="-2" width="18" height="18" fill="#CAC5F9" stroke="#E4E4EF"/>
<rect x="126" y="52" width="18" height="18" fill="#CAC5F9" stroke="#E4E4EF"/>
<rect x="162" y="52" width="18" height="18" fill="#CAC5F9" stroke="#E4E4EF"/>
<rect x="108" y="-2" width="18" height="18" fill="#CAC5F9" stroke="#E4E4EF"/>
<rect x="126" y="-2" width="18" height="18" fill="#CAC5F9" stroke="#E4E4EF"/>
<rect x="108" y="52" width="18" height="18" fill="#CAC5F9" stroke="#E4E4EF"/>
<rect x="162" y="-2" width="18" height="18" fill="#CAC5F9" stroke="#E4E4EF"/>
<rect x="144" y="-2" width="18" height="18" fill="#CAC5F9" stroke="#E4E4EF"/>
<rect x="180" y="-2" width="18" height="18" fill="#CAC5F9" stroke="#E4E4EF"/>
<rect x="36" y="52" width="18" height="18" fill="#CAC5F9" stroke="#E4E4EF"/>
<rect x="72" y="16" width="18" height="18" fill="#CAC5F9" stroke="#E4E4EF"/>
<rect x="-18" y="52" width="18" height="18" fill="#CAC5F9" stroke="#E4E4EF"/>
<rect x="144" y="52" width="18" height="18" fill="#CAC5F9" stroke="#E4E4EF"/>
<rect x="180" y="52" width="18" height="18" fill="#CAC5F9" stroke="#E4E4EF"/>
<rect x="72" y="70" width="18" height="18" fill="#CAC5F9" stroke="#E4E4EF"/>
<rect x="-18" y="-2" width="18" height="18" fill="#CAC5F9" stroke="#E4E4EF"/>
<rect x="90" y="16" width="18" height="18" fill="#CAC5F9" stroke="#E4E4EF"/>
<rect x="72" y="88" width="18" height="18" fill="#CAC5F9" stroke="#E4E4EF"/>
<rect x="90" y="70" width="18" height="18" fill="#CAC5F9" stroke="#E4E4EF"/>
<rect x="54" y="-2" width="18" height="18" fill="#CAC5F9" stroke="#E4E4EF"/>
<rect x="90" y="88" width="18" height="18" fill="#CAC5F9" stroke="#E4E4EF"/>
<rect x="126" y="16" width="18" height="18" fill="#CAC5F9" stroke="#E4E4EF"/>
<rect x="162" y="16" width="18" height="18" fill="#CAC5F9" stroke="#E4E4EF"/>
<rect x="126" y="70" width="18" height="18" fill="#CAC5F9" stroke="#E4E4EF"/>
<rect x="162" y="70" width="18" height="18" fill="#CAC5F9" stroke="#E4E4EF"/>
<rect x="108" y="16" width="18" height="18" fill="#CAC5F9" stroke="#E4E4EF"/>
<rect x="126" y="88" width="18" height="18" fill="#CAC5F9" stroke="#E4E4EF"/>
<rect x="162" y="88" width="18" height="18" fill="#CAC5F9" stroke="#E4E4EF"/>
<rect x="36" y="16" width="18" height="18" fill="#CAC5F9" stroke="#E4E4EF"/>
<rect x="-18" y="16" width="18" height="18" fill="#CAC5F9" stroke="#E4E4EF"/>
<rect x="144" y="16" width="18" height="18" fill="#CAC5F9" stroke="#E4E4EF"/>
<rect x="180" y="16" width="18" height="18" fill="#CAC5F9" stroke="#E4E4EF"/>
<rect x="54" y="52" width="18" height="18" fill="#CAC5F9" stroke="#E4E4EF"/>
<rect x="108" y="70" width="18" height="18" fill="#CAC5F9" stroke="#E4E4EF"/>
<rect x="-18" y="70" width="18" height="18" fill="#CAC5F9" stroke="#E4E4EF"/>
<rect x="36" y="70" width="18" height="18" fill="#CAC5F9" stroke="#E4E4EF"/>
<rect x="90" y="106" width="18" height="18" fill="#CAC5F9" stroke="#E4E4EF"/>
<rect x="108" y="88" width="18" height="18" fill="#CAC5F9" stroke="#E4E4EF"/>
<rect x="90" y="178" width="18" height="18" fill="#CAC5F9" stroke="#E4E4EF"/>
<rect y="34" width="18" height="18" fill="#CAC5F9" stroke="#E4E4EF"/>
<rect x="-18" y="88" width="18" height="18" fill="#CAC5F9" stroke="#E4E4EF"/>
<rect x="90" y="250" width="18" height="18" fill="#CAC5F9" stroke="#E4E4EF"/>
<rect x="90" y="268" width="18" height="18" fill="#CAC5F9" stroke="#E4E4EF"/>
<rect x="72" y="106" width="18" height="18" fill="#CAC5F9" stroke="#E4E4EF"/>
<rect x="144" y="70" width="18" height="18" fill="#CAC5F9" stroke="#E4E4EF"/>
<rect x="180" y="70" width="18" height="18" fill="#CAC5F9" stroke="#E4E4EF"/>
<rect x="72" y="178" width="18" height="18" fill="#CAC5F9" stroke="#E4E4EF"/>
<rect x="72" y="250" width="18" height="18" fill="#CAC5F9" stroke="#E4E4EF"/>
<rect x="18" y="34" width="18" height="18" fill="#CAC5F9" stroke="#E4E4EF"/>
<rect x="72" y="268" width="18" height="18" fill="#CAC5F9" stroke="#E4E4EF"/>
<rect x="36" y="88" width="18" height="18" fill="#CAC5F9" stroke="#E4E4EF"/>
<rect x="126" y="106" width="18" height="18" fill="#CAC5F9" stroke="#E4E4EF"/>
<rect y="52" width="18" height="18" fill="#CAC5F9" stroke="#E4E4EF"/>
<rect x="162" y="106" width="18" height="18" fill="#CAC5F9" stroke="#E4E4EF"/>
<rect x="144" y="88" width="18" height="18" fill="#CAC5F9" stroke="#E4E4EF"/>
<rect x="180" y="88" width="18" height="18" fill="#CAC5F9" stroke="#E4E4EF"/>
<rect x="126" y="178" width="18" height="18" fill="#CAC5F9" stroke="#E4E4EF"/>
<rect x="162" y="178" width="18" height="18" fill="#CAC5F9" stroke="#E4E4EF"/>
<rect x="126" y="250" width="18" height="18" fill="#CAC5F9" stroke="#E4E4EF"/>
<rect x="162" y="250" width="18" height="18" fill="#CAC5F9" stroke="#E4E4EF"/>
<rect x="54" y="16" width="18" height="18" fill="#CAC5F9" stroke="#E4E4EF"/>
<rect x="126" y="268" width="18" height="18" fill="#CAC5F9" stroke="#E4E4EF"/>
<rect x="162" y="268" width="18" height="18" fill="#CAC5F9" stroke="#E4E4EF"/>
<rect x="54" y="70" width="18" height="18" fill="#CAC5F9" stroke="#E4E4EF"/>
<rect x="72" y="124" width="18" height="18" fill="#CAC5F9" stroke="#E4E4EF"/>
<rect x="90" y="124" width="18" height="18" fill="#CAC5F9" stroke="#E4E4EF"/>
<rect x="54" y="88" width="18" height="18" fill="#CAC5F9" stroke="#E4E4EF"/>
<rect x="72" y="196" width="18" height="18" fill="#CAC5F9" stroke="#E4E4EF"/>
<rect x="90" y="196" width="18" height="18" fill="#CAC5F9" stroke="#E4E4EF"/>
<rect y="-2" width="18" height="18" fill="#CAC5F9" stroke="#E4E4EF"/>
<rect x="90" y="142" width="18" height="18" fill="#CAC5F9" stroke="#E4E4EF"/>
<rect x="72" y="142" width="18" height="18" fill="#CAC5F9" stroke="#E4E4EF"/>
<rect x="90" y="214" width="18" height="18" fill="#CAC5F9" stroke="#E4E4EF"/>
<rect x="72" y="214" width="18" height="18" fill="#CAC5F9" stroke="#E4E4EF"/>
<rect x="90" y="160" width="18" height="18" fill="#CAC5F9" stroke="#E4E4EF"/>
<rect x="90" y="232" width="18" height="18" fill="#CAC5F9" stroke="#E4E4EF"/>
<rect x="18" y="52" width="18" height="18" fill="#CAC5F9" stroke="#E4E4EF"/>
<rect x="18" y="-2" width="18" height="18" fill="#CAC5F9" stroke="#E4E4EF"/>
<rect x="72" y="160" width="18" height="18" fill="#CAC5F9" stroke="#E4E4EF"/>
<rect x="72" y="232" width="18" height="18" fill="#CAC5F9" stroke="#E4E4EF"/>
<rect y="16" width="18" height="18" fill="#CAC5F9" stroke="#E4E4EF"/>
<rect x="126" y="124" width="18" height="18" fill="#CAC5F9" stroke="#E4E4EF"/>
<rect x="162" y="124" width="18" height="18" fill="#CAC5F9" stroke="#E4E4EF"/>
<rect x="-18" y="106" width="18" height="18" fill="#CAC5F9" stroke="#E4E4EF"/>
<rect x="126" y="196" width="18" height="18" fill="#CAC5F9" stroke="#E4E4EF"/>
<rect x="162" y="196" width="18" height="18" fill="#CAC5F9" stroke="#E4E4EF"/>
<rect y="70" width="18" height="18" fill="#CAC5F9" stroke="#E4E4EF"/>
<rect x="126" y="142" width="18" height="18" fill="#CAC5F9" stroke="#E4E4EF"/>
<rect x="162" y="142" width="18" height="18" fill="#CAC5F9" stroke="#E4E4EF"/>
<rect x="-18" y="250" width="18" height="18" fill="#CAC5F9" stroke="#E4E4EF"/>
<rect x="108" y="106" width="18" height="18" fill="#CAC5F9" stroke="#E4E4EF"/>
<rect x="-18" y="178" width="18" height="18" fill="#CAC5F9" stroke="#E4E4EF"/>
<rect x="126" y="214" width="18" height="18" fill="#CAC5F9" stroke="#E4E4EF"/>
<rect x="162" y="214" width="18" height="18" fill="#CAC5F9" stroke="#E4E4EF"/>
<rect x="-18" y="268" width="18" height="18" fill="#CAC5F9" stroke="#E4E4EF"/>
<rect x="126" y="160" width="18" height="18" fill="#CAC5F9" stroke="#E4E4EF"/>
<rect x="162" y="160" width="18" height="18" fill="#CAC5F9" stroke="#E4E4EF"/>
<rect x="126" y="232" width="18" height="18" fill="#CAC5F9" stroke="#E4E4EF"/>
<rect x="108" y="250" width="18" height="18" fill="#CAC5F9" stroke="#E4E4EF"/>
<rect x="162" y="232" width="18" height="18" fill="#CAC5F9" stroke="#E4E4EF"/>
<rect y="88" width="18" height="18" fill="#CAC5F9" stroke="#E4E4EF"/>
<rect x="108" y="178" width="18" height="18" fill="#CAC5F9" stroke="#E4E4EF"/>
<rect x="18" y="16" width="18" height="18" fill="#CAC5F9" stroke="#E4E4EF"/>
<rect x="18" y="70" width="18" height="18" fill="#CAC5F9" stroke="#E4E4EF"/>
<rect x="108" y="268" width="18" height="18" fill="#CAC5F9" stroke="#E4E4EF"/>
<rect x="18" y="88" width="18" height="18" fill="#CAC5F9" stroke="#E4E4EF"/>
<rect x="36" y="106" width="18" height="18" fill="#CAC5F9" stroke="#E4E4EF"/>
<rect x="-18" y="124" width="18" height="18" fill="#CAC5F9" stroke="#E4E4EF"/>
<rect x="144" y="106" width="18" height="18" fill="#CAC5F9" stroke="#E4E4EF"/>
<rect x="180" y="106" width="18" height="18" fill="#CAC5F9" stroke="#E4E4EF"/>
<rect x="-18" y="196" width="18" height="18" fill="#CAC5F9" stroke="#E4E4EF"/>
<rect x="108" y="124" width="18" height="18" fill="#CAC5F9" stroke="#E4E4EF"/>
<rect x="-18" y="142" width="18" height="18" fill="#CAC5F9" stroke="#E4E4EF"/>
<rect x="108" y="196" width="18" height="18" fill="#CAC5F9" stroke="#E4E4EF"/>
<rect x="-18" y="214" width="18" height="18" fill="#CAC5F9" stroke="#E4E4EF"/>
<rect x="108" y="142" width="18" height="18" fill="#CAC5F9" stroke="#E4E4EF"/>
<rect x="36" y="178" width="18" height="18" fill="#CAC5F9" stroke="#E4E4EF"/>
<rect x="108" y="214" width="18" height="18" fill="#CAC5F9" stroke="#E4E4EF"/>
<rect x="36" y="250" width="18" height="18" fill="#CAC5F9" stroke="#E4E4EF"/>
<rect x="-18" y="160" width="18" height="18" fill="#CAC5F9" stroke="#E4E4EF"/>
<rect x="144" y="250" width="18" height="18" fill="#CAC5F9" stroke="#E4E4EF"/>
<rect x="180" y="250" width="18" height="18" fill="#CAC5F9" stroke="#E4E4EF"/>
<rect x="108" y="160" width="18" height="18" fill="#CAC5F9" stroke="#E4E4EF"/>
<rect x="-18" y="232" width="18" height="18" fill="#CAC5F9" stroke="#E4E4EF"/>
<rect x="108" y="232" width="18" height="18" fill="#CAC5F9" stroke="#E4E4EF"/>
<rect x="144" y="178" width="18" height="18" fill="#CAC5F9" stroke="#E4E4EF"/>
<rect x="180" y="178" width="18" height="18" fill="#CAC5F9" stroke="#E4E4EF"/>
<rect x="54" y="250" width="18" height="18" fill="#CAC5F9" stroke="#E4E4EF"/>
<rect x="36" y="268" width="18" height="18" fill="#CAC5F9" stroke="#E4E4EF"/>
<rect x="144" y="268" width="18" height="18" fill="#CAC5F9" stroke="#E4E4EF"/>
<rect x="180" y="268" width="18" height="18" fill="#CAC5F9" stroke="#E4E4EF"/>
<rect x="54" y="106" width="18" height="18" fill="#CAC5F9" stroke="#E4E4EF"/>
<rect x="54" y="178" width="18" height="18" fill="#CAC5F9" stroke="#E4E4EF"/>
<rect x="54" y="268" width="18" height="18" fill="#CAC5F9" stroke="#E4E4EF"/>
<rect x="36" y="124" width="18" height="18" fill="#CAC5F9" stroke="#E4E4EF"/>
<rect x="144" y="124" width="18" height="18" fill="#CAC5F9" stroke="#E4E4EF"/>
<rect x="180" y="124" width="18" height="18" fill="#CAC5F9" stroke="#E4E4EF"/>
<rect x="36" y="196" width="18" height="18" fill="#CAC5F9" stroke="#E4E4EF"/>
<rect x="144" y="196" width="18" height="18" fill="#CAC5F9" stroke="#E4E4EF"/>
<rect x="180" y="196" width="18" height="18" fill="#CAC5F9" stroke="#E4E4EF"/>
<rect x="36" y="142" width="18" height="18" fill="#CAC5F9" stroke="#E4E4EF"/>
<rect x="144" y="142" width="18" height="18" fill="#CAC5F9" stroke="#E4E4EF"/>
<rect x="180" y="142" width="18" height="18" fill="#CAC5F9" stroke="#E4E4EF"/>
<rect x="36" y="214" width="18" height="18" fill="#CAC5F9" stroke="#E4E4EF"/>
<rect x="144" y="214" width="18" height="18" fill="#CAC5F9" stroke="#E4E4EF"/>
<rect x="180" y="214" width="18" height="18" fill="#CAC5F9" stroke="#E4E4EF"/>
<rect x="36" y="160" width="18" height="18" fill="#CAC5F9" stroke="#E4E4EF"/>
<rect x="144" y="160" width="18" height="18" fill="#CAC5F9" stroke="#E4E4EF"/>
<rect y="250" width="18" height="18" fill="#CAC5F9" stroke="#E4E4EF"/>
<rect x="180" y="160" width="18" height="18" fill="#CAC5F9" stroke="#E4E4EF"/>
<rect x="18" y="250" width="18" height="18" fill="#CAC5F9" stroke="#E4E4EF"/>
<rect x="36" y="232" width="18" height="18" fill="#CAC5F9" stroke="#E4E4EF"/>
<rect x="144" y="232" width="18" height="18" fill="#CAC5F9" stroke="#E4E4EF"/>
<rect x="180" y="232" width="18" height="18" fill="#CAC5F9" stroke="#E4E4EF"/>
<rect x="54" y="124" width="18" height="18" fill="#CAC5F9" stroke="#E4E4EF"/>
<rect x="54" y="196" width="18" height="18" fill="#CAC5F9" stroke="#E4E4EF"/>
<rect x="54" y="142" width="18" height="18" fill="#CAC5F9" stroke="#E4E4EF"/>
<rect x="54" y="214" width="18" height="18" fill="#CAC5F9" stroke="#E4E4EF"/>
<rect x="54" y="160" width="18" height="18" fill="#CAC5F9" stroke="#E4E4EF"/>
<rect x="54" y="232" width="18" height="18" fill="#CAC5F9" stroke="#E4E4EF"/>
<rect y="106" width="18" height="18" fill="#CAC5F9" stroke="#E4E4EF"/>
<rect y="178" width="18" height="18" fill="#CAC5F9" stroke="#E4E4EF"/>
<rect y="268" width="18" height="18" fill="#CAC5F9" stroke="#E4E4EF"/>
<rect x="18" y="106" width="18" height="18" fill="#CAC5F9" stroke="#E4E4EF"/>
<rect x="18" y="178" width="18" height="18" fill="#CAC5F9" stroke="#E4E4EF"/>
<rect x="18" y="268" width="18" height="18" fill="#CAC5F9" stroke="#E4E4EF"/>
<rect y="124" width="18" height="18" fill="#CAC5F9" stroke="#E4E4EF"/>
<rect y="196" width="18" height="18" fill="#CAC5F9" stroke="#E4E4EF"/>
<rect y="142" width="18" height="18" fill="#CAC5F9" stroke="#E4E4EF"/>
<rect y="214" width="18" height="18" fill="#CAC5F9" stroke="#E4E4EF"/>
<rect y="160" width="18" height="18" fill="#CAC5F9" stroke="#E4E4EF"/>
<rect y="232" width="18" height="18" fill="#CAC5F9" stroke="#E4E4EF"/>
<rect x="18" y="124" width="18" height="18" fill="#CAC5F9" stroke="#E4E4EF"/>
<rect x="18" y="196" width="18" height="18" fill="#CAC5F9" stroke="#E4E4EF"/>
<rect x="18" y="142" width="18" height="18" fill="#CAC5F9" stroke="#E4E4EF"/>
<rect x="18" y="214" width="18" height="18" fill="#CAC5F9" stroke="#E4E4EF"/>
<rect x="18" y="160" width="18" height="18" fill="#CAC5F9" stroke="#E4E4EF"/>
<rect x="18" y="232" width="18" height="18" fill="#CAC5F9" stroke="#E4E4EF"/>
</g>
</svg>
